<mxfile host="Electron" modified="2024-02-01T00:49:09.100Z" agent="Mozilla/5.0 (Windows NT 10.0; Win64; x64) AppleWebKit/537.36 (KHTML, like Gecko) draw.io/23.0.2 Chrome/120.0.6099.109 Electron/28.1.0 Safari/537.36" etag="znInw2aY1h1p5e8aUOUA" version="23.0.2" type="device" pages="2">
  <diagram name="Draft" id="EcywLfP-LxWt-scF6Rro">
    <mxGraphModel dx="1050" dy="1790" grid="1" gridSize="10" guides="1" tooltips="1" connect="1" arrows="1" fold="1" page="1" pageScale="1" pageWidth="827" pageHeight="1169" math="0" shadow="0">
      <root>
        <mxCell id="0" />
        <mxCell id="1" parent="0" />
        <mxCell id="JhqW3P9DHBe0ouiO6Wt8-26" value="Grafana" style="rounded=1;whiteSpace=wrap;html=1;fontFamily=Helvetica;fontSize=11;fontColor=default;" parent="1" vertex="1">
          <mxGeometry x="540" y="420" width="120" height="60" as="geometry" />
        </mxCell>
        <mxCell id="JhqW3P9DHBe0ouiO6Wt8-1" value="Web Interface" style="rounded=1;whiteSpace=wrap;html=1;" parent="1" vertex="1">
          <mxGeometry x="160" y="140" width="120" height="60" as="geometry" />
        </mxCell>
        <mxCell id="JhqW3P9DHBe0ouiO6Wt8-2" value="Api Gateway" style="rounded=1;whiteSpace=wrap;html=1;" parent="1" vertex="1">
          <mxGeometry x="160" y="265" width="120" height="60" as="geometry" />
        </mxCell>
        <mxCell id="JhqW3P9DHBe0ouiO6Wt8-3" value="API Services" style="rounded=1;whiteSpace=wrap;html=1;" parent="1" vertex="1">
          <mxGeometry x="220" y="385" width="120" height="60" as="geometry" />
        </mxCell>
        <mxCell id="JhqW3P9DHBe0ouiO6Wt8-6" value="Data Base" style="shape=cylinder3;whiteSpace=wrap;html=1;boundedLbl=1;backgroundOutline=1;size=15;" parent="1" vertex="1">
          <mxGeometry x="180" y="505" width="60" height="80" as="geometry" />
        </mxCell>
        <mxCell id="JhqW3P9DHBe0ouiO6Wt8-7" value="Rabbit MQ" style="rounded=0;whiteSpace=wrap;html=1;" parent="1" vertex="1">
          <mxGeometry x="400" y="530" width="120" height="60" as="geometry" />
        </mxCell>
        <mxCell id="JhqW3P9DHBe0ouiO6Wt8-8" value="" style="shape=image;verticalLabelPosition=bottom;labelBackgroundColor=default;verticalAlign=top;aspect=fixed;imageAspect=0;image=data:image/png,iVBORw0KGgoAAAANSUhEUgAAA24AAALzCAYAAABp3lROAAAAAXNSR0IArs4c6QAAAARnQU1BAACxjwv8YQUAAAAJcEhZcwAAEnQAABJ0Ad5mH3gAAKoeSURBVHhe7N0FnFXV+sbxdxi6uxukUxoVQUT4myDY4kXswotiXQv1XuHaHRhXxUQBu7AIQVK6u7s7/+dZ7D0chhkYJvee+X3v59w5e+19AmTO2c9ea70rZv/+A4cMABBaMTHenSgxCTVGJNYOAEBmduhQwpEnofZEDs1wMQcOENwAILM4XjAjtAEAsrLEwpscb19QENwAIMSSGsYIbQAAJD2gBTHIxRw8eJDgBgCZFIENAIBjhaGHLT6CGwBkMoS1Iyb9Pd27hzA5tXE97x4ApL2whDiCGwBkAoS1hN1592O2Zs16bwthcFqrpnbHbf/wtgAgfQU5xGXzfgIAMpjCV3JvAAAg5RL6jk3qLa3FRFIlPW4AgEyJHrfwoccNABJGjxsAAAAABBzBDQAAAAACjuAGAAAAAAFHcAMAAACAgCO4AQAAAEDAEdwAAAAAIOAIbgAAAAAQcAQ3AAAAAAg4ghsAAAAABBzBDQAAAAACjuAGAAAAAAFHcAMAAACAgCO4AQAAAEDAEdwAAAAAIOAIbgAAAAAQcAQ3AAAAAAg4ghsAAAAABBzBDQAAAAACjuAGAAAAAAFHcAMAAACAgCO4AQAAAEDAEdwAAAAAIOAIbgAAAAAQcAQ3AAAAAAg4ghsAAAAABBzBDQAAAAACjuAGAAAAAAFHcAMAAACAgCO4AQAAAEDAEdwAAMhktm3daNMmj7I9e3Z5LQCAsCO4AQCQAdavXWFTJg23vfHC1aL50+zvCb/brp3bvZbDVq9cZNOn/Gn79u3xWgAAWQnBDQCADJAvfyH3c9fOHe6nKJTt3LnN9uzeaTu2b/FaD9se2c6Xr6DlyJHLawEAZCUENwAAMkDOXLktZ85ctn3HZq/FbPeuHXbw4AErXqKsG+7o27tnt+3csc0KFCzqtQAAshqCGwAAGSA2NrvlzVfQdmzbbIcOHXRt6mVTmCtStJTt2LHVBTbZs2enOyZP3gJuW/dXLJtvE8YOs5G/D3FDLjeuX+X2HXHI1q9b4YZd6piJ436xdWuWefsAAGFDcAMAIIMULFjMdu/eZfv27nFhbOuWDVYg0pa/QGE7ePBg3Dw3P9DlzpPXba9cvtC2bF5ndeu3stPbdrEKFWvY0iWzI23r3X7ZvWun7dqxzeo1aO2OqVK1ri1bOs82bVzjHQEACBOCGwAAGSR3nnwusGmem3rX9kYCXIGCRdwwyjx589m2bZvccZrfpt459dLpuM2b1lq58qdEjslvMTExVrR4Gcufv/BRvW45cua0UmUqRX7mijumSJEStuGYnjkAQBgQ3AAAyCC5cuWx3LnzuHlumsOmgKUwFxOTzQoVKm7bt2203bt3un358h0uZqJhk9qeOnmEGwLp31atXGQHDux3x0hsbI5IAMzjbR2moLdv7+6jjgMAhAPBDQCADJItNtbyRgKZ5rlt3brB8uYtEFc1Ml/+wrZ3717bsmmdt304uIl60xo1aWtntLv4qFv1mo29IwAAmQ3BDQCADKQhjprntnXLxqOqRmo+W44cOWzz5nWWK1cu1zsnuXLltWzZsrtet+M5cGDfMWvE7dy5PRL6crshlwCAcCG4AQCQgfLmK+AKkezfv++oXjWFK/W6rV29NBLi8rveOdH8t2LFy9jyZfPcnDbNkdPQR/XM7di+1R0j+/fvd8Mn9+7dHTnmkDt2c+QYPRYAED4ENwAAMpCCWN68+dzN71XzaZ5b7tz5XPXJaGXLV7Ny5avbksWzbdQfX9rYP7939w8ePDJ3rVDhYu7xM6aOiRwz1BYtnGEVKp7ilhoAAIRPzCFdhgMAIBO68+7HbM2aIyXyEXyntWpqd9z2D28LAOCjxw0AAAAAAo7gBgAAAAABR3ADAAAAgIAjuAEAAABAwBHcAAAAACDgCG4AAAAAEHAENwAAAAAIOIIbAACZwMb1q2ziuF9s9IivbfGC6V4rACCzILgBAJACy5fOs/lz/va2Msaundtt+bL5VrV6fWt1xgVWoXItbw8AILOIORTh3QcAIFO58+7HbM2a9d5W2lBw271ru1Wv2dhrObG9e3bbogVTrXK1+pYrVx6vNfnU27Zq5SKrUbuJ5ciRy2sNp9NaNbU7bvuHtwUkbPfuPd49hEnu3OH+fMpoBDcAQKYV1OC2eeNaW7pkjtWs0zRVgtuGdStt7ZqlkeDW1GJjs3ut4URwQ1Lc96/+tmTpCm8LYdDk1Pp2z103eltIDoIbACDTyojgphC1ceNqK1CgqK1YPt927thq+QsUsfIVqluJUhVszarFtmDeVDtwYL87XurUa2nFSpS1Hdu32pJFM2zzpnUWmz27lShZ3ipUqhnXi6YhmYWLlLDde3bZymULIs9byPLkyW/r1q6wPXt2umOKR55HAU69eksXz7Itmze4fXoPlSrXsqLFy7jjxA+Q27dtctt6bNVTGlr27DlO+F7SCsENSUFwCx+CW8oxxw0AgFS2Yd0q27lzqzVodIad3razlSlb2Qtx26xUmcpWMxKsChQsas1b/5+d0e5iF9p2795pixZMs6LFylirM863U5u2t4MHDtjihTPs0KGD3jObrVyxMBLKdlmDxme4sFilen2rdkoDF7pat7nQakdCoHrdskfCVslSFa1piw6R99DFypWvZssiIXNP5HVk+9ZNtnDB9Mgx5a1F5H00bXmOlatwigttSX0vAID0Q3ADACCV5cqdNxKUqluOnLksJiabC0DZsmW3XTu3eUcca/PGNZYzcnypMhXdY/TYkqUr2Y7t2yKBb7t3lLljKlWpY7nz5Ivcz+21HitHZF+RYqUsW2xs5PlirFCREpH3kM327t3t9q9buzwSHgtHXq+SxUbCmp4rX/5Cbl9S3wsAIP0Q3AAASGW5c+ex7DlyelvmhhrmyJHD20rY9m2bbc3qpTbqjy9t5O9D3G3KpD9sXyRoHTx4ZFhl/gJFkzSPTZUm58+d7JYI+OvP723G1DG2Z88ut0/DNHfv3mF58hRwwSy+pL4XAED6IbgBABAQZcpWcUMno2/NWnV0wypPhkLbnFkTXa9c4ybtrOVp51rdBq1OqhBKar0XAEDqILgBABAA+QsUdnPL/KGMKaGCKGaHXEERDZWU3Tt32L59h0uoq8cuZyTEqdctIan5XgAAqYPgBgBAOsuZS3PTDtnuXYeDkwo8Fy5ayg4ePGhLF81yxUfUpv2qUqnCICdDz6/n2rZlo9tWD9zKFfMjbUeep3jxsq5i5OqVi9zz79+31w2RVPGR1HwvAIDUQXADACCdqUerSCQczZ45zkaP+No2bVxjuXPntRq1TnXh6u+Jv9uoP4batCl/2javVP/J0HBGVbJctHCGm582b87fVqJkBStQoIh3hLliJdVPaWhr1yy3v/78ziaO/8WFuEMHD6XqewEApA7WcQMAZFrpsY4bUhfruCEpWMctfFjHLeXocQMAAACAgCO4AQAAAEDAEdwAAAAAIOAIbgAAAAAQcAQ3AAAAAAg4ghsAAAAABBzBDQAAAAACjuAGAAAAAAFHcAMAAACAgCO4AQAAAEDAEdwAAAAAIOAIbgAAAAAQcAQ3AAAAAAg4ghsAAAAABBzBDQAAAAACjuAGAAAAAAFHcAMAAACAgCO4AQAAAEDAEdwAAAAAIOAIbgAAAAAQcAQ3AAAAAAg4ghsAAAAABBzBDQAAAAACjuAGAAAAAAFHcAMAAACAgCO4AQAAAEDAEdwAAAAAIOAIbgAAAAAQcAQ3AAAAAAg4ghsAAAAABBzBDQAAAAACLuZQhHcfAIBM5dXXP/DuZR5Lliy09evWWky2bFauXAUrVaqMtyfzuO2Wa7x7QMLu+1d/W7J0hbeFMGhyan27564bvS0kB8ENAICQOP/88+27777ztg6744477KWXXvK2gKwhKwS3bVs32uKFM61G7SaWK1cerzVl0uI5k4rglnIMlQQAIAQeeeSRY0KbvPzyy/bll196WwBSy549u2za5FEu7ERbv3a5Tf17pO3YvtVrAdIHwQ0AgBD45ZdfvHvHGj58uHcPCL9HH33UXZAIovVrV9iypfOsctU6li9/Qa8VSB8ENwAAQmDr1sSv7h9vHxBGvXr1sipVqgQqwG3dssGWLpljFSqeYgULFfNagfRDcAMAIATKlSvn3TtW2bJlvXtA5rF48eLABLjdu3bYkkWzrGKlGla8ZHmv9TANmZw5bYyNHvG1jR39vS2cP9X27dtjBw7st9kzxtrypfO8Iw/bu2e3G2q5dvVStx39eN1mTB1te3bvdPvi27xxrXus/1rzZk+MPN8ub6+511yyaKZNGv+rjfx9iI0b/aPbPnTooHfE0fTn0nDQ5cuOfo8IJoIbAAAh0LVrV+/esS688ELvHnB8O3futKVLl9r27dsDe9u7d6/3bg/L6ACnEDV39iQrXLTkMaFtd2TfogXTrGixMtbqjPPt1Kbt7eCBA7Z44QzLli2ba9+yeZ3t33/kz7Rj+5ZIkDpkhQoXd49fMG+K5ctf2Jq2PMeat+pklarUsZy5cntHH7F96yZbuGC6lSxVIe61YmNzuMf7z6/XVG9gvQat7Yx2F1vdyM/Nm9bZhnWr3P5oCm3z5vzt/lzlylf3WhFkVJUEACAkHn/8cXfiun79erddo0YNe/DBB+2aayifj+P76aefbPTo0bZixQr376dixYrenuAZO3asjRs3zts6Vvv27a1Cpbq2a0/CvUipRcVJZs8YZ/v27bWDBw9Y4SIl7JSajS0m5ki/x+qVi9wQylNqnRrXvnXLRls4f5o7VkFq3pxJVqlyHStUpLjbr31StXp99/j161ZarbrNLHv2nK7dF78C5KLI4w5E3kf1Go28I9R7F3mPMydY2XJVI6Ey4V75+ZFwljtPfitf8ZS456xYuZYtXTzbChQsEgmKtY/6M6UVqkqmHMENAICQefHFF61q1ap2wQUXeC1A4gYMGGC7d++2c88916pXD37PioqT6CJFfApsd911l/tzpMdyAH5wK16inBUpWsrmzJpgJUqVt/IVTvGOOByKVkXCV3y5c+dzYaxAwaJHBTUFrTmzJrrnKFKslHu8VI+EvPiig1v27DlsbuT1CxQs5gKYT0Mg582eZHnzFXLt+/fvs9WrFtuGSBjctWuH5ciR0w7s329ly1eLC27qoVNQy5Yt1mrVaWo5ch7bu5cWCG4px1BJAABCplChQu4GnIh62TZv3uyGGoYhtCVEgU1LYaiyqkJbelK4KVioaCQYFXBFSdauXuZ62KKVKVvFDUuMvjVr1dGFNilWrIxt37bZDblUb5x64fIXLOz2pSaFOA3b3BF5rVp1mlnL0861Js3PtqKRgBjt4MGD7j3nypXbVnvz7BAOBDcAAIBMasKECdauXTtvK1wyMrAlpFiJsla4SHFbtmSO7du7x7XlL1DYzVPbu3e3205IvgIFLTY21oW3zZvXuUCXI0cuty9PJBD6hUyOJzY2u+vF2717h9dymN7H7t27IvvyRt7DHlfoRD2EuSLbbn/kufX+oum1CxUpYRUr13bFTrQuHcKB4AYAAJBJrVy50qpVq+ZthUeQAptPwws1NywmJsaWLZ3jergKFy3lerCWLprlhkFqBpKKfmioooqUiOauaajl2jVLbdfO7ZH7JV27FClSygUvVZ5UgREFOAW8hIJciZLlXY/d6pWL3WtrWOSK5QtcD54KnWg4pXrRtm7d6B6v/atWLHLPl5DcefJZmbKVbfmyBbZzxzavFUFGcAMAAMikatWq5Xp7wuSxxx4LVGCLphBWvmIN27xpvQtn6umqUetUV7zk74m/26g/htq0KX/atm2bvEccpuC2a9dOy5Ejh+XNd2Thbg3BrFGrie3YvtmV7h/75/e2bMnsuNAXLX/BIlajZmPbsH6ljRn5rU0cN8z279vjXj9HzlyuV65CpVq2besmt1zA3xN+d22a35YYVcksVLiYLV08M64yJYKL4iQAAITMe++954qTtGnTxmsBEta7d2/r27dvppsTmR7FSVLTgf37XHGTosVKW+myVbzWrIXiJClHjxsAAACQhrZv32L79++3QoVLeC3AySO4AQAAAGlEhUtWLp/v1kzLkze/1wqcPIIbAAAAkMpUIGTW9L9swl8/u0qOFSrV8PYAyUNwAwAAAFKZCoPUrtfSWre50C2wrcImQEoQ3AAAAAAg4AhuAAAAABBwBDcAAAAACDiCGwAAAAAEHMENAAAgk7rtttssX7583haAMCO4AQAAZFLVq1e37Nmze1sAwozgBgAAEGK33HKLDRkyxNs6sTFjxtjrr7/ubQEIC4IbAABASC1btsz9nDp1qvuZGIW1n3/+2dsCEEYENwAAgJAaP368dejQwd1XiNuyZYvrgfMD3dNPP20ffvihPfXUU9axY0fr0qWLbd++3YW4mJgYd9MxAIKP4AYAABBS6mlr1qyZNWjQwD799FOv9Wh58+a17t272+DBg23o0KGWP39+d9u8ebMtXbrUFi5c6AIfgGAjuAEAAISQhj+qN61ixYrWtWtXGz16tG3dutXbe3ytW7e2QoUKWcGCBa1UqVJeK4AgI7gBAACE0KhRo9wQyEOHDrlbtWrVbPbs2d7ew9Sb5luwYIF3D0AYEdwAAABCRkMbFco0TNKnXrTJkye7OW/qhdP8NV+ZMmXszTffjJvjBiB8Yg7pEg0AAAiNgQMHWoUKFaxt27ZeC5C13Pev/rZk6QpvC2HQ5NT6ds9dN3pbSA563AAACJnixYvbypUrva2MpQqGfnXC5s2bu2qGmnulhZ+jqxZGt+nn7bffHrc/+jgAQMIIbgAAhEy9evVs3LhxtnfvXq8l4+TLl88VxdAAnksuuSSusmHnzp3j5l7dc889rqKhegq1PX/+fHvllVfcfbXr5h+H1PXjjz/anj17vC0AYUZwAwAgZDRMskWLFvbaa6/ZmjVrvNZgUIGMhKhy4apVq7wtpJeffvrJdu/e7W0BCDPmuAEAEFLffPONDRs2zIoWLWrZs2e3AgUKeHvSlhZyrlWrlruvoZJvvPGGu68Kh+o107BIrRvmVzFUj9rFF18cd6y/LUOGDHE//W1RgY3hw4d7W+Gk6o6NGzd2IVtDSIsVK+btSV+9e/e2vn37utL/mQlz3MKHOW4pR3ADACDEDh486KoLLl682EqUKOG1pi1VLCxSpIi736dPH7eGmHrTFCJff/11F9wUzp555hl3THz+Y1q1apVgcFu/fr2tWBHuk3KF1nLlytncuXNdCO3Ro4edfvrp3t70Q3BDUBDcUo7gBgAAks0PYXXq1HEFR2699VbXfrzgpiIkGlKpsJZQcMtsFKr/+9//2n333WeVK1f2WtMHwQ1BQXBLOea4AQCAFFMwUGhTYJMvv/zyqGqR0dUn1UOYmYNafAprF1xwgY0YMcJrAYCTR48bAABAGtPQzwEDBthjjz3mtaQPetwQFPS4pRw9bgAAAGlMxWOWLFnibQHAySO4AQAApLE8efJY4cKFvS0AOHkENwAAAAAIOIIbAAAAAAQcwQ0AAAAAAo7gBgAAAAABR3ADAAAAgIAjuAEAAABAwBHcAAAAACDgCG4AAAAAEHAENwAAAAAIOIIbAAAAAAQcwQ0AAAAAAo7gBgAAAAABR3ADAAAAgICLORTh3QcAAEAa2Lp1qz3yyCP2wgsveC3po3fv3ta3b18rVKiQ15I53Pev/rZt23ZvC2FQpUpFu+euG70tJAfBDQAAII0R3ACkFEMlAQAAACDgCG4AAAAAEHAENwAAAAAIOIIbAAAAAAQcwQ0AAAAAAo6qkgAAAGmgffv23j2z/fv326JFi+yUU07xWswqVapk7777rreVNqgqCWQeBDcAAIA0MGjQILvsssu8rWNNmzbN6tWr522lriVLltgPP/xg77//vl100UXWsWNHa9y4sbcXQBgR3AAAANJIy5YtbezYsd7WEddee22a9bYNHjzYunXr5m0d0b9/f7vvvvu8LQBhQ3ADAABII4n1uqVlb1vt2rVt9uzZ3tbR1q5dayVKlPC2AIQJxUkAAADSyKWXXmotWrTwtg5Tb1tahbYVK1YkGtpk4sSJ3j0AYUNwAwAASEN33XWXd++wu+++27uX+nbv3u3dS9iJ9gMILoIbAABAGorudevZs6fVrVvX3U8LFSpUsGzZEj+9q1ixoncPQNgQ3AAAANKY3+sWv/ctteXMmdNuuukmb+to7dq1s1NPPdXbAhA2FCcBAACBkZlPS66//np7++23va209dBDD9kXX3xhq1atcmu4nXvuudavXz8rUqSId0Tqi4mJ8e4BSAsENwAAEBi7du2yzZs3e1sIC1WqzJ49u7cFIC0wVBIAAAAAAo7gBgAAAAABR3ADAAAAgIAjuAEAAABAwBHcAAAAACDgCG4AAAAB9dtvv1mfPn1s+/btblsl/T/44AN3H0DWQnADAAAAgIAjuAEAAKSSwYMH0yMGIE0Q3AAAAFLBvn37bOrUqd4WAKSumEMR3n0AANKcvnbWrFnjbSEs8ufP725pbdeuXbZ582ZvK3Vpntj//vc/+/HHH92/wcqVK9udd95pZ5xxxjH7atWqZVdffbV17NjRYmJi3P6nnnrKzjzzTPvjjz9s5MiRljt3bmvdurXdfPPNlj17dnv00UdtzJgx3quZtW3b1vr27Wvjxo2zsWPH2llnnWVvvvmmbdy40Z544gmrX7++a9frzpw50/LmzRv3fCVLlnTPoTlu33//vXse/f1rjlu5cuXsmmuucfuj3/e2bdusUaNGduONN1q9evXcfh3ftGlTW716tX366adWu3btuOdKTSVKlHB/BwDSDj1uAIB0p/DGLVy3sNu/f78NGDDAFi9ebC+++KINHz7c+vfv7wJO9L7XX3/dhalbbrnFvvjiC/vll1+8ZzDbuXOnffTRR9apUyf79ddf3WM2bNhggwYNsqJFi7qQpLDWq1cvmzBhgj3zzDNxAWnKlCn2+eefW+/eve2tt95ywXD69OnuvZxzzjnu+T7++GN3/LPPPmtbt251jzse/30rsA0cONA9h17/ueees6VLl3pHmXt/69evd6HxgQcesHz58nl7AIQJwQ0AAGR6ixYtcuHpyiuvtOrVq7vwop9FihRx+2bMmGE9evSwihUrWmxsrJ122mkuUP30009xFR1FwUj7dIyObdOmjQt80cckRCHr+uuvd71s6p3KkSOHC1oNGza0Ll26uG2Fv+7du7sex/Hjx3uPTJze9/z58+2qq65yj9Vz6D0XLlz4qMcXL17c9eKVL1/eihUr5noQAYQPwQ0AAGR6y5Ytcz8VXuLTPgUrf3iir0qVKq43a8eOHV7LsY9X8EsKDcuMfqyCnl63TJkyRwUpPV/ZsmVtxYoVXkvi9HgNw+zatasbDqmbguWIESOOes8aHpknTx5vC0BYEdwAAABCqm7duvbdd9+5oZnRN38OHIDMg+AGAAAyvVKlSrmfa9eudT+jVahQwRXWiL9PQxELFCiQJnPCNJdNr7tq1aqj5hBu2rTJVq5c6QqQnIgeL3qfADI/ghsAAMj0atSoYVWrVrX33nvPBZ09e/bYwoULXVjTkEj1XGmfinooSE2aNMn1ZGnoYVIrMCrgaf6agpeqYx44cOC4hV3at2/v5t0NHTrULSWg4ZOffPKJq1bZuHFj76jE6X1rjty7777rliHQ623ZssVGjRqVpKGWAMKF4AYAADI9Fe64++673Vyz22+/3RUYefDBB23JkiWut01VJOvUqeMqQjZr1sxVZrziiivsvPPO857hxDRX7fzzz3eBUEsMPPTQQ64SZWJU0fJf//qXW15AIa5bt26uMInel4qNnIj/vlu0aGGPP/64+3nZZZfZV199ZQcPHvSOApBZsI4bACBd6WtHa0ohXDRkMCVrf6lsvnqBGjRo4LWYTZw40btn1qRJE/czLddxQ9phHTcg7dHjBgAA0tRrr71mDz/8sCutH+2vv/6KuwEAjo8eNwBAuspsPW6az6T1uC666CIrWLCg13rEzJkzbdq0aXbxxRe74XphldIet6Sixy2c6HED0h49bgAApICKWfzyyy8JViuUOXPmuHW1tB5YVrNmzRrvHgAgpehxAwCkq8zW45ZVJKfHTcU5Lr/8cleEI6nocQsnetyAtEePGwAgy1JFQYULVQ5s2rSpXX311a53zPfbb7/Zk08+aYMGDXIV/3TMjTfeaGPHjvWOMDcM8tZbb020d0nP0adPH1fqXZLymv369XOv0bNnT+vcubN7jTDSmmTVqlXztgAAKUFwAwBkWVp369xzz7XBgwe7oKTeoQ8++MAtiuz78ccfXQ+Q1soaM2aMtWnTxl5++WU3BDI5kvKaWtvr888/t969e9tbb71ltWrV8vaEi4Kp1icDAKQcwQ0AkGUVL17cWrdu7RY8jo2Ndet35cyZ09avX+8dcXiR4wsuuMAVHlFxka5du1qFChWO6nU7GUl5zf3799v1119v9evXd0PQwlrU5Nprr02wYAsA4OQR3AAAWdbixYvtv//9r+v16tSpk+vhij/kUcFJ87t8efLksdKlS7s1yZIjKa+pRaLLly/vbQEAQHADAGRRqgb52GOPWdmyZe29995zQyKff/55K1WqlHdE6suI18xIixYtcsVGAAApR3ADAGRJ8+fPt4MHD9o555zjhi2KgpUKakRbt27dUaX8FURUFbNcuXJeS9Il9TUzi2eeeca7BwBIKYIbACBL0hBIzSWbPn26W6JAAUrVI/fs2eMdcZiGRH7xxReuKqQKbXz22WduuGOLFi28I442dOhQ6969uwtp8SX1NQEAiI/gBgDIkrS2mErtq0KkCoT8+9//dnPO6tSp4x1xWN26dd28th49elirVq1s9OjR9s9//tNq1qzpHXEs9aolJKmvmVlomQQAQOpgAW4AQLoK0wLcWlPt+++/t759+5704tO+1HiOIEjOAtzJwQLc4cQC3EDao8cNAAAAAAKO4AYAQBrYu3evm882d+5c11vlFyPJKhYuXJjste4AAMciuAEAkAaGDBliZ511lo0bN866deuW5YaRvfXWW7ZgwQJvCwCQUsxxAwCkqzDNccMRSZnjpv+2MTExtmPHDvvoo4/shhtucNsngzlu4cQcNyDtEdwAAOmK4BZOuXLlsvvvv9/dVw+i1qITLSKu3kUtIt6rVy93Ap8SBLdwIrgBaY/gBgBIVwS3cNKSCNE9bv5JuubxyYEDB1y4SymCWzgR3IC0R3ADAKQrgls4pedyAImtg4fgUmgnuAFpi+AGAEhXBLdwSq/gBgBIGFUlAQAAACDgCG4AAAAAEHAMlQQApCuGSoZTeg2V5LQkvE526QcAJ4fgBgBIVwS3cErP4iRUlQwfqkoCaY+hkgAAAAAQcAQ3AAAAAAg4ghsAAAAABBzBDQAAAAACjuAGAAAAAAFHcAMAAEhlH3zwgfXr18/bAoCUI7gBAAAAQMAR3AAAANLY4MGDXS8cACQXwQ0AACAN7du3z6ZOneptAUDyxByK8O4DAJDm9LWzevVqbwthUaBAAcufP7+3lXZ27dplmzdv9rbCYe3atfbGG2/Y6NGj3Xbr1q2tUKFCtnPnTrvpppvs0UcftTFjxrh90rZtW+vbt6/lypXLBg0aZEOHDrXFixdb5cqVrUuXLnbppZdajhw5vKPDoUSJEpY9e3ZvC0BaoMcNAJBmFNImTpxof/75py1btsxrBTIPBc2XX37Ztm/fbh9++KF99913LriNHDnS7S9atKgrUqKw1qtXL5swYYI988wzLgQrtP3666/22GOP2dixY+3xxx934e/TTz91vzsAEI3gBgBIEwMGDHAnrU2bNrXTTz/dKlasaJdccokdOHDAOwIIv4ULF9rSpUute/fuVrx4cYuNjbX27dtbs2bNvCMStn79ehfurrrqKqtbt657XJ06dezyyy+34cOH0ysN4BgENwBAqps9e7YbIhZ/yNsXX3xhffr08baA8FuzZo37WbJkSfdTYmJirEyZMt5WwlatWuWGUkY/TnSBQyFOwQ4AohHcACAT0bAtDbHK6NuwYcO8d3Ssr7/+2ruHMIn/39iXWDsAIHVRnAQAQk69W7///rvNnTvXXcXPly+ftyfj/P333+6WEBW5mDNnjreFsFAhjXvuucfdv+yyy+ycc85x93/88Uf7/PPP3X0V6PCLarz77rvWsWNHK1eunNtOqrAVJ5kxY4Y999xz7u+mVq1ark2nVi+++KL7szzwwANu/puKkTRo0MCuueYad4x61B566CE3fFhDK30aPvn+++/bE088ccJeuyChOAmQ9ghuABBimgszZMgQu/jii61x48ZWsGBBb0/GeuWVV+yOO+7wto5WpUoVV6wE4XKyVSU1hFDhQ4U59NikCltw0/t98sknLU+ePHbzzTe7apL69/3aa69Zw4YNXXDTqdZTTz3lft55552WM2dOy5Ytm3388ceuOMndd9/t5rctWrTInn/+eatfv77dcMMNbshlWBDcgLTHUEkACKlNmza5KnY66TvzzDMDE9qkQ4cO3r1jXXTRRd49ZGalSpWyq6++2gWazEx/Pl2k2L9/v1155ZV23nnn2R9//OF60nwKYOeff74rZHLGGWe4njbNb1MhErUr4KqYyb333mstW7a0a6+9NlShDUD6oMcNAELql19+cdXsevbs6bUEy9tvv23333+/bdiwwWsxtz7VJ598ElfQAeGR0nXcJk+e7N0za9Sokfu5YMEC27Ztm7uvoZi1a9cOXY8bDqPHDUh79LgBQEitWLHCqlWr5m0Fz/XXX+/m8WiumxYf1vv97LPP6EnIokaMGOFu/iLVPr8dAHB89LgBQEipIET58uWtVatWXks46GuHNarCJ6U9bklFj1s40eMGpD163AAgpDi5BQAg6yC4AQAAAEDAEdwAAAAAIOAIbgAAAAAQcAQ3AAAAAAg4ghsAAAAABBzBDQAAAAACjuAGAAAAAAFHcAMAAACAgCO4AQAAAEDAEdwAAAAAIOAIbgAAAAAQcAQ3AAAAAAg4ghsAAAAABBzBDQAAAAACjuAGAAAAAAFHcAMAAACAgIs5FOHdBwCEyFtvvWX16tWzVq1aeS3hoK+d1atXe1sIiwIFClj+/Pm9rbSza9cuO3jwoLeFsMiVK5dlz57d2wKQFghuABBSBDekp/QKbgCAhDFUEgAAAAACjuAGAAAAAAFHcAMAAACAgCO4AQAAAEDAEdwAAAAAIOAIbgAAAAAQcAQ3AAAAAAg4ghsAAAAABBzBDQAAAAACjuAGAAAAAAFHcAMAAACAgCO4AQAAAEDAEdwAAAAAIOBiDkV49wEAIbJq1SrLly+fFSxY0GsJB33trF692ttCWBQoUMDy58/vbQEA0hs9bgAQUmXKlAldaAMAAMlDcAOATGTIkCH29NNPe1sAACCzYKgkACBdMVQynBgqCQAZix43AMhgY8aMcb1k1atXdz+1rfsxMTGuB030U9u69enTJ+4x/n5t++2vv/66bdmyxe3v0qWLuy1btsz91ONvueUW9xgAABAeBDcACICpU6faxIkT7cYbb7QPPvjAfv/9d9u8ebMNGzbMZs6c6X4uXbrU9VYllZ7z3nvvtaFDh9qnn35q3bt3d4+vWrVqXOADAADhQHADgABo3bq1FSpUyLZu3eoCXMWKFa1w4cIusM2dO9cd4xciqVatmvt5IjquTp067v7ChQuta9eursdNYW7BggWuHQAAhAPBDQACROGsSZMmcb1r8+fPt3bt2rl9CnWSUOjS0gA7duzwto6lXrbBgwe759Ttnnvu8fYAAIAwILgBQICo1+2aa65xYU29Y5qXJh06dHC9cGrzg9vll19u/fv3d20DBw60UqVKufaEaAimjtGxmj+nuXAAACA8qCoJACGj4iONGjWyVq1aeS3hoq8dqkqGD1UlASBj0eMGAEh36vnLjLedO3e6YJrQvrDfAAAZix43AAgpFTEpWbKkVahQwWtBRlHBl/fff9/Wrl3rQo6Gtv773/+2Zs2aeUcAAJAy9LgBQEhNmjTJli9f7m0ho9x3331uzTyFNtH10J9//tkuvvhi27dvn2sDACClCG4AAKSAir4kRKH666+/9rYAAEgZghsAAMm0e/dutxRDYlasWOHdAwAgZQhuAAAkU+7cuS1nzpze1rGowggASC0ENwAAUkCFSBIT1iUbAADBQ3ADACAF/vOf/1jVqlW9rSMef/xxq127trcFAEDKENwAAEiBhg0b2oIFC+yrr76y888/31WYnD17tj388MPeEQAApBzBDQCAVHDhhRda8+bNrWvXrlazZk2vFQCA1EFwAwAAAICAI7gBAAAAQMAR3AAAAAAg4AhuAAAAABBwBDcAAAAACDiCGwAAAAAEHMENAAAAAAKO4AYAAAAAAUdwAwAAAICAI7gBAAAAQMAR3AAAAAAg4AhuAAAAABBwBDcAAAAACDiCGwAAAAAEHMENAIBUki9fPu8eAACpi+AGAEAq2bNnjx08eNDbAgAg9RDcAABIJaVLl7alS5d6W0iKLVu22C233GLLli3zWgAACSG4AQCQSho1amQjR470tpAUhQoVstdff90qVKjgtQAAEkJwAwAglTRu3NjKli1rr776qq1cudJrzXzUS/b0009bly5d3M3vNYuJiYnbVg9a8+bN49oGDhxoQ4YMcY8T7ddjdGzfvn3dtgJc9+7d3eO0reP1+OrVq9uYMWPc4wAgq4o5FOHdBwCEyFtvvWX16tWzVq1aeS0Iim+++caGDx9u+ordtm2bC3OZwV133WUFCxZ0Yev222+3W2+91f37U8BasGCB3XPPPXH3pVq1anbxxRfHtWnbP07B7Mknn7T+/fvb888/b9ddd53b7tChg3tM9P6tW7fG3VcP3XvvvWeLFy92r4HUt337ditXrpydcsopduaZZ1qBAgW8PQAyEsENAEKK4BZ8q1evtnnz5lmlSpW8lnDTyXxsbKwLbgpbvXv3dkFKvWj33nuvd5TZzTff7Cpsdu3a1f37VG/Z5MmTrVSpUscNbu+88477qWGTeox63/wQ2KxZMxs8eLDbt3btWtu9e7drR+rbuHGjZcuWzaZMmWLjx493PaO1a9f29gLIKAQ3AAgpghsySvzgFt3j5lOYO16Pm4LZa6+9Zq+88kqCwS062Ok1kDEmTJhgn3/+ufvvoGGrADIOc9wAAECKKJwtXLjQndjrpqB2+eWXx53s9+vXz/Lnz2/t27e30aNHu7ZHHnnE9cAlRuFNwyYLFy7sjlevD9Jf06ZNXU/rX3/95bUAyCj0uAFASNHjhrDwh0oSvsLpp59+sk2bNrkwDiDj0OMGAACARGnY6rRp07wtABmF4AYAANKUeoXpbQuvWrVqufmJADIWwQ0AAAAAAo45blnEjh07vHsIE5XTBhLDHDcA6WHUqFE2d+5c69mzp9cCICMQ3LKIVatWefcQFlrwVFXYgMQQ3ACkB4IbEAwMlQQAAACAgCO4AQAAAEDAEdwAAAAAIOAIbgAAAAAQcAQ3ZFrbt2+3Pn362G+//ea1nFi/fv3sgw8+8LYAAACAYCC4AQAAAEDAEdwAAAAAIOAIbgAAAAAQcAQ3pBvNOXv44Yft888/t5tvvtnatGlj5513nr355ps2adIk69Wrl2vr1KmTvfHGG7Zv3z7vkWbz58+3u+++29q2betuuq+2aGPHjo173m7dutmnn3561HOI3sPLL7/sXlfH6TWnT5/u7QUAAACCieCGdLVr1y77/vvv7Y477rDff//d7r//fvvhhx/sySefdGFLbU8//bQNHz7chg0b5h6zcuVK11azZk379ttv3a1Bgwb27LPP2vLly90xc+bMsRdeeMFatmxpv/76q7333nvutWbMmOH2y/79+23AgAG2bds2GzhwoDtOIfC5556zpUuXekcBAAAAwRPbN8K7j0xMPU0Zbe/evfbHH3+4cNWhQwfLli2bFStWzKZOnWrNmjWzrl27uraSJUva3LlzLXv27NawYUP7+eefbe3atS7s5c+f33LmzOlCnHrY9Ofyj9mxY4fdeuutlidPHndMxYoVbdy4cdaoUSOrUqWKLViwwIXGW265xcqUKWOxsbFWoUIFGzNmjLtfp04dGzVqlBUsWNA9Z0bLlSuX+3MAvq+//toWLlzoept1Gz16tLsQsXnz5rg2/Z7pdwgAkkvfyxoJ43+u/P333+7noUOH4tr0PV2jRg3vEQDSAz1uSHfly5f37h2hsOWLiYlxN5++HBTwFNp8Or5y5cq2YsUKt71kyZJjjilQoICVKFHC2zJbtmyZC3IKiE2bNnU39biNGDHChT4g6OrVq2fnnntu3O2ll15yw4b97ccff9zq1q3rHQ0AyaNRLZra4H+23HPPPW5Ui7+tW/369b2jAaQXghuyFJ3UfvfddzZhwoSjbtdcc413BBBcVatWdb3Kibnrrru8ewCQMsf7PLnzzjvdqBYA6YvghsDTUIwNGzYcNdxT89cWL15s5cqVc9uVKlWyrVu3unaf7qvNp2GRsmjRIvcTCKPETqY0BPmSSy7xtgAgZa688kpr0qSJt3U0LhIBGYPghsBr1aqVm8fz8ccfu/CmSpFDhw611atX2xlnnOGO0ZeLhk2q0In267gvv/zSzQfyaZ6b5q69++67bvz+gQMHbMuWLW5emz/kEgi6atWqJdjrxokUgNSmodjx0dsGZByCGwKvbNmy9tBDD7k5aueff74rbDJx4kR78MEHXRgTFSu57bbbXJGS9u3bW48ePSxv3rx25plnuv2iYicqTNKiRQs3F0g/L7vsMvvqq6/s4MGD3lFA8MUPafS2AUgLV1xxhZsPHo2LREDGiTmkEkHI9FatWuXdQ1iouEp0sRUgmi5UvPbaa+7+oEGDCG4A0sQnn3zihk2KettUpARAxiC4ZREEt/CJDm5aNFwKFy5s3bt3d/dVnlnDPKVLly5x1Tr9Y0VLKMi6devcguSipRfUQyM64V+zZo277x8r/nOot1NVOEXDS7W+noah6vVq1arl2pExtLxF9erV3X9LLWkBAGlF3xsq5KUKzgyTBDIO67hlEdGFPRAO0eu4+evSaX0urUEnmuOnNt3y5cvn1p8T/1jd/GN37tzpQp/aNGTUb9eaX/GPFf85ihQpEteuJROKFi3qCr6oYIz2IePov4UCuYYysQQAgLSkC4m6OKjpBQAyDj1uWQQ9buHDUMnUE11dNDNRhVR/nmdm5F+MAMIis37WyPLlyxNchzUzCONnjebmc1E+fLJly5aiczuCWxZBcAufMAS3m2++2V588UXXOxhka9eudVVEER4qLlSoUCFvCwiHzZs3H7UsDYIvNjbWjWYJGwU3f6oDwiOl53ZUlQSQbLr6qvX0AAAAkLYIbgCSTcNLtMYeAAAA0hbBDUCy9erV65g1fgAAAJD6CG4AAAAAEHAENwDJtnHjRncDAABIa6qk2adPH/vtt9+8lhPr16+fffDBB95WuBHcACTbRx995BZkBQAAQNoiuAEAAABAwBHcACTbqaee6t3LurSOzq233mrTpk3zWgAg69Bnnz4DWVMMSHsENwDJdtppp1njxo29LWS0lStX2sCBA23r1q1ey8mbOXOmffbZZ7Zv3z6vBUAY6XdYv8v6nQbSiuacPfzww/b555/bzTffbG3atLHzzjvP3nzzTZs0aZKrPq22Tp062RtvvHHUd8v8+fPt7rvvtrZt27qb7qst2tixY+Oet1u3bvbpp58e8/0U/Tx6nWeffdY2bdrk7c1cCG4AkEksXbrUfvnlF1u7dq3XcvLmzJljI0aMYH0+IOT0O6zfZf1OZyaDBw/ONIUmMotdu3bZ999/b3fccYf9/vvvdv/999sPP/xgTz75pAtbanv66adt+PDhNmzYMPcYXWhUW82aNe3bb791twYNGrjQtXz5cneM/u2+8MIL1rJlS/v111/tvffec681Y8YMt1/0PM8//7y7kKzn/vjjj23Pnj326quv2v79+72jMg+CG4Bk0xfo33//7W0ho+nL7f3337fq1at7LSevS5cu7guvaNGiXguAMNLvsH6X9TudWainZerUqd4WgqRdu3ZWt25di42NdSNx9D3UoUMH11Omtnr16ln9+vVt/fr17vgxY8ZYgQIF7Morr7T8+fO726WXXmqFCxeOqxg5ceJEK1eunAt/OXLkcMfovtp8ep6SJUvahRde6I7Rv3v1+C1YsMAWLVrkHZV5ENwAJJuudGUlhw4dsh9//NGuvvpqt/C4fuoqoNqjRQ/t0LCNxx9//KheMH0pPfbYY27YiL5gdJyO15fUO++8Y507d3bPf+ONNx51ZVFXGjX85IorrnD7/eEo/rCR+HNN9Dq64vnll1/a5ZdfHvee9WeI/559eoxKLWv4iyTlNR955BH301+Q/WTKNANZnT4b9Bmhzwr9/uh37e2337a9e/e63ysNQ/vuu+/iPnf0uxz9O6zfVf0O6nPnxRdfdMPFVP48ftl0/3f1559/tp49e7rn0kmwqgNHDz3zP7/0OaTn0nG6//LLL3tHHEvvRZ+Fib1H0fvRc+gzRMck9Fl0vGO09Mxdd93l/i5eeukltz/6swoZq3z58t69I/LkyePdM4uJiXE339y5c61YsWIujPl0fOXKlW3FihVuW1Wr4x+jsFeiRAlv6/DzfPPNN+7Cpf5N6Hbddde5oZK7d+/2jso8CG4AkESjR492YUsnVjq50RCOefPm2bp167wjzKZPn+5Ons455xx3IqNhG/rS0fCP6Lln2pctWzY3B0UnImXKlLGbbrrJha53333XRo4c6a5QDhgwIO5xupqoNp20TJgwwb3+uHHj3HCoxOikTVcdX3vtNXdlUidgek+6GpkUSXnNZcuWuTB3ySWXuD9L69atvT0ATuSTTz6x7Nmz2xdffOE+VxS61HuRM2dOt1+Ba8qUKW44mPbrpPStt95yn0c+hTxd9FFvhX6/dQEnIfp8+vPPP61v377uuW6//XZ30quLRqLh1noeBS9d8NFwtwsuuMDOP/98NwwuMatWrbLFixe7zwk9r15fwxn996gha/os0zGvv/66O+aWW25xf2YN707KMepJ0d+NwqQuEunz6JlnnjnqpB5ZU9euXd2/h+ib/v2qhy+zIbgBSDZ9kWel4iQ64WnVqpWde+65buhH8eLF7eKLL7a8efN6RxwOZA0bNnTDk/xhG927d7fNmzfb+PHjvaPMqlSp4k6IdNKhK4hnnHGG1ahRw6666ir3GF15PPPMM90JmXq9RCd3GsfvX2085ZRT3HAU/+pkQjSkRCdhek69H5306Ll1gpYUSXnNHTt22GWXXeb+DKVKlbLcuXN7ewCciObj6CKOPlN0U49DtWrVvL1mBQsWdJ8V+h3U/rPPPtv9ro0aNSqut0qhp06dOnbNNddY2bJlrVChQq49Pn3eqJetYsWK7rnUS6HXUq+FbNmyxf3O165d223rs0KfVfp9P958If896nNGz6tRBC1atIh7j7p4pNEDPXr0iHttfa7oAtdPP/3kes2ScgwyD33fbdiw4aj/rvquU3D3h0JWqlTJXbj0vwNF96Mvgup5NCdOz5UVENwAIAn05aIhTeoZix7uobH1/hVfHaPep/jHFClSxJ1MRYcdnYQpsEVTsIoOPTqZi34ePb+qRuqKu4ZVKZDpxOh44r+Onj/+6x5PUl5TAVZfngBOnoYDqtf+H//4h73yyitxhRl8+nzR54xPnwkVKlRwj9FFE58KO0R/XiQk/nPp88D//BIFPgUtfY6JTpI1JF4n0gp06kXzh6Pp/frDsuM/r2jonP8e9XwKfvGPUShUEZWkHpMQjSrw35NGFKiHEsGni6D676oeYn3PaLju0KFDbfXq1e7ChDRp0sR9b6rnV/t1nHrSFi5c6PaLnsfvrdW/twMHDrjHqCAKQyUBABlCX0wapqgr4//5z3/cvA+VRT799NO9I1JfRrwmkNXooo6G/Gk4tU5ONWRa886i536lF/V0qUCE5tzpIo3CWb58+dx90QgDDYfWTe9XF20ymoZm++9JQ0hr1arl7UGQ6d/9Qw895AK7huKqkImG7D744IMurIsqTt52221uXmb79u1db6xGuGg0is9/Hl1k0OgW9fTqMbNmzfKOyFwIbllE6dKluYXspi/LoNMk8qxSVdK/oqwJ8tEnVJoA7Q/j0DG6Eq75HvGP8a9aJ5eGgWg+nea+6N+HaPhlWhaIyYjXBLIivxetd+/erhiJerX96nvqZYgubuT3iKk3PbW/J/Tc+p3XnCHNvRs0aJAbEu/3yumnhkPrptCm4YxyoveoP5t67KKPEQ2P1AiApB6TEPUa+u9Jr6eRC0g/+jehCw9nnXWW13KkTUN3oz3wwANHtem/+RNPPGF//PGHu+liQPyqyApimluuedWa76jpBPodiX49PY8uNujioj+/TfMs/REs8V83zAhuWYS+FLiF74Zg0XwLFeZQ4RANx1CIGzJkyFFrnumqoAoJaMiHP7RDJ0D6AknJfECdtOikRMUFFBT1vFrwNKVXFf/66y93kqZCAPGl1WsCSJg+MxRU9HmRK1cu17Zz5073OaMgp88drZelk1z1fKf294ReS4WLNLz7ZJ47/nvUZ6Q+K/33qB4UlYrXOlyaX6tgp8WZ1Uumebc60U/KMf5nki4e6TNJr6Xjgs7/rujfv7/XcpjWO9NNQ1B9kydPjmuPHjar4jRqU6VgZF0ENwDJpiucWYmG5OiqncbS6yqgKptpWI4/kV9UgfFf//qXO7FSiFMhAPVSafiHJu4nl05arr32WheiNP5f82I0ZMQfwpQSiZ38pOVrAjhMIxf8pQA0XEw9BhrqpYIfoqCiokD//Oc/3eeO5pyqXL8+j1Kbfr81r0i9F/68Mb03hYXoghDxNWrUyF2Y8t+jqtjqs9J/j+pJU4VIFVDR52azZs3sueeecxV6Vfo/qccoBGpYneY46TNJQ+QUGoNOn/0K5RpqGk3LG+imv2Ofhv757X5lUVFPk9quv/56rwVZUUzkyzr4lyoAIAU09EbhBCemif66oq9y4QpuGUUnkIlVxgOCShdp/KHTqUGFNlQa/9FHH02XC2WaWzdnzhy3hqSGdmueq4Z+a66rwllmGW4WTcM94xdECYODBw/GFYdBeGjYb0q+W+lxAwAAyOI0FFpzljUsURUh1bul+WIqWKIiEZqri5MTf74ekFIENwDJpvlRWaU4SWan9eJ0dV0VJHVF0J/UDSBr0O+8FvDWUE2/11AjFVQUYvjw4W7YJE6OFjdXuXsgtRDcsgh9+HIL3y3ooheURrhp4ryqdKmggOblab4JgKxDv/MaIqm1r7p06eKCmuaWqdCS5q6lxZy6zE5FVDR8FkgtzHHLIjRGHeGS0nHQ6UGT6lU1LCXVEtMDc9zChzluCKPUnuOGtJeWc9xULVJDTTX8NLUxxy2cUnpuR3DLIghu4ROG4LZu3Tr3U1XPgozgFj4EN4QRwS18KE6C9ERxEgAZRoEt6KENAAAgMyC4AQAAAKlMi6nrBqQWghuAZNMcN6pKAgBwrJEjR9qSJUu8LSDlCG4AAAAAEHAENwAAAKS5mTNn2meffWb79u3zWjK3Jk2aMA8cqYrgBiDZ7rjjjsAvBQAAmdmff/5pTz31lLeVMlrD7T//+Y9NmzbNa0ldc+bMcQt6b9u2zWvJ3OrWretuQGohuCFLGzx4sFtnBQCAsNGKTlOmTEm15U60YPTixYu9rdSnhb1fffVVK1q0qNcC4GQQ3JBlaajG1KlTvS0kx/Lly90NAJA29F310UcfWbdu3axp06Z23nnn2SOPPGILFiywxx9/3N599113EVL7/vGPf7i1vbSW3JtvvmlXXHFF3GO07Q9RVI+ankM/e/Xq5Y7Rfo2iUMGpa6+91rX5Fza3b9/uilHpedq0aeMeM336dLdPfvvtN+vXr5+NHTvWevbsaZ07d06w107H9enTxz2fqHDHQw895J5Xr3f11Ve7HjlfUp83qPTfBkhNBDdkmPnz59vdd99tbdu2tU6dOtmzzz5rmzZtcos633LLLa4aU7TZs2fbDTfc4H6KPshvvvlm9yWiD/N33nknbuFTfSnoS+nXX3+1hx9+OO419CWnxZg3btxod911l3333Xf20ksvuS+M6C8TJM3QoUPjFuEGAKS+cePG2fDhw12AmTBhggtTl1xyiVWqVMkeffRR69q1q7tp3/vvv2+lSpWyHDlyWL169dz3m9pfeOEF9zzRoWjZsmUurOm59F2o0Ne/f3+rU6eO/e9//3OPu+aaa2z//v02YMAAN7xx4MCB7ntV36nPPfecLV261Hs2cz1/n3/+ufXu3dveeustq1Wrlrcncfny5bNzzz3XBU99p19++eXuz7dq1SrviOQ9b1Doz6F5fUBqIbghQ2g4xvPPP2+nnXaaDRs2zD7++GPbs2ePG0JRpEgR98GsLyp9YfhGjRplJUuWtMqVK7srffoAv/LKK+333393X076cNRVSd/OnTvdtgKbvmj0xbNhwwYbNGiQG6ahL0F9+ejKob6gnnnmmRStZg8AQGrTMEjdYmNj3XaxYsWsfv36lj17dredEO3T96tfGOOUU06x6tWr24oVK9y27Nixwy677DI744wzXNjLnTu3t+doWodMF1qvuuoq992pUHjOOedY4cKFbfz48d5R5r6vr7/+evfe9Lo67kSKFy9urVu3dq+tP1+zZs0sZ86ctn79eu+I5D1vEOjvTBeJFYSB1EJwQ4YYM2aMC2EXXnih+xDWl4GGSmjoh74kTj/9dHclTwFPtm7dajNmzHBfRPqAVxDTB7x62/RhX7FiRRfQ9CUS/YGvYKbH+MfoeI3fp2ctdegLPyYmxtsCAKS2Vq1aue87jRJ58MEHbeLEiSec06bvOPWOXXfdde67UT1ZuvgZTaGpRo0a3lbi1DOn3jr16ml0im76blXvncKfTxdVy5cv720ljb6P//vf/7r3p/epXjUN9YyWnOcNAgVljSQCUhPBDRli7ty59s0331jLli3jvgj0BaOhkqpqVbNmTStYsGDcWHZVolIPmioY6gtJXyTqcfMfq9sDDzzgHhv9hRb/w169eUg9jRo1cjcAQNrQxU1NC9AQQn3XPf30025emC5oJkQ9VBoaqe9ZVYj88ccf7dNPP3UXRJNLlRE1nFKjU6JvGkqZXLo4+9hjj1nZsmXtvffec+9TI3HU+5feNNVCf6+6+fbu3RvX9vPPP3utZj/99FNce/SyBnqOf//73240T3rRRWlu4bqlFMENGcYfkx99+/LLL91wCA1ZbN68ubtCqHlro0ePttq1a1vp0qW9R1vcEMfomz++HwCAzEQXM/2qjLqAOXnyZG/P0TQlYN68edauXbu478zNmzfHjWA5WRUqVHA/NRomNWko4cGDB92wS3+YpsKcLuCmNw3XPP/8890tmt/m/x2IRu8kdKx6RnVeo4vQ6SFbtmxu5BK3cN1SOiWH4IYMoeEZqkaoL5jEtGjRwn3ZTJo0yX0JacijhuXpH70+RDWsMqss4hlUGoqjCmQAgLSn8v/67lRwU2EPKVeunCsSpcCjESdq11wwzQXXhU8dq+Ies2bNcscfj4ZPao6ZApReS713VapUsYYNG7oKiarErNfYsmWLu7AaPWcuISpg1b17dxfS4tN71PPrfeq19Jqag6757ulNF4b9m09/Dwm1R7dFz7fTXDa16eQcSCsEN2QIXZnSB7YKhugLR18E+gJQoRENdxR9Gen2ww8/WK5cudzwSV/79u3d8EkNHdFwEQW4hQsXHlUx60T8LzddhdSXm96DvjyQdArWAIC0owW2VTlZwyQ1101D9FRU5NRTT3X7zz77bHdR86KLLrKbbrrJfYeqnL8CkeYhq8R+3rx53TyyE1EPXceOHd1UhDPPPNO++OILV+hElZ51MVWVmfVTr//VV1+5HrMTSewYVb3Un0vLDOjPpWGGmudGMQ8gcTGRE1XOVLOA6NK6QeHPU9OkZxUU0Xw0DZnQWi3+sAktCaAx8DfeeKNdeumlrs2nL6W3337bDRfRFUVVzbrgggtcpUlt9+3b15UZPuuss7xHHF4T5vvvv3f71HOngicvvvii69Xr0KGDmzfgX8XMaAUKFAh8lUt94WrehOYeBpmWgIie+4jg04lmoUKFvC0gHHQxy1+WBseK/x0cBJp3RC8ZwoLglkUEMbjh+BTcdKVS8xrkjz/+cD9FFb1EAVVz+3x+e0LHSmLtf/31lxu3r0nimRHBLXwIbggjgtvxEdyAlGGoJBBg0WP9Nf7fv0VLqE0LpR7vWM2RiKYeRw2/AQAkTPPEklvgI6tThUZNj1ClS12UTGzNOADHR49bFkGPW/iEYahkWNDjFj7qcdPcVl2Z17qNuhih4dQaMq2h00geXaCpVq2aXXzxxV4LkkrzvfTvT+up6ZbQCAV63BKm5Qhee+01t7bZ3Xff7ZYXCIqw9rhpRE70OnoIB7/IXnIR3LIIglv4ZGRwmz17ttWqVcvbSpyO08mM5gYGGcEtfBTcVFpboS0+rU31r3/9y9sC0oc+6y655BJ3XydfCQU4glv4hDm4xV+sHMGX0nM7hkoCOMqwYcNcSeakULjTunlJPR5IKs27TCi0ySuvvOLdyxpef/11V1Jda1uqqNOQIUNccFDvxZgxY1xpdq3vpTYVWXrmmWfccaoEqH3Sp08fd6weq5sWFFZvph6jbe3T8/nbOD5d83722WddL7D+bhlCCSA90OOWRdDjFj4Z1ePmV/tU2eek0EeIlnLQCYyoSui0adPcfQ0r0p9D3nnnHfdT/AVKtbbP8OHD3X0tgOqvlZPQsSpx/dFHH7n7lSpVciWwRctF+CdNPXr0cFdPxX8Obau6KD1u4aJS4woeiVE12KBUgE0LKsWuICX6e1Ag0/BG/X4++eST1r9/f7cUiu5rjUt9xt9zzz0ugA0ePNjuvPPOuONU5EXhQj2Y0d8FukijUKhwd//997teTBVD8u9rvUxV7Z04caL3iKxNfw/6+0qI3wN3/fXXU1QnZPQd8c0333hbR75zNC9Pa5WKfhdU9Vp++umnuHni11xzTdxabrqAqSHdOlZLFvnfRWmFHrdwSum5HcEtiyC4hU9GBbfVq1e78HXhhRd6LSdnypQprtqlNGjQIC64aS0in040RcHN/+IpWrRoXHBL6FgFt+gTSL89+tiWLVvGfVlGt2upCIJbuHz77bfHncumk6fMHNz0b9YfvqWeMZ1M6oRQwUy9bwsWLHD7tP6VQl2TJk3igp0uWuj4EwU38R+jfePHj3dtmgOnE1att6l98YscZVVaZ/Thhx/2to6mvyvN3dIJO0Mlw0XfGfPmzfO2jny3KLj5vxOS0HeOesH94DZ27Fh3EVGFV/7v//7PtaUlgls4EdyQJAS38Mmo4JYZMcctfJYsWeJOhhOiCwK6QJBVRAe36B43v2dHQxsV5BLrcZPbb7/dbr311gSDW3SPm14DCYue4+bTv1H1tHXr1s1tM8ctfBTc0mqO24cffugWQE8LBLdwSum5HXPcAACBo97X2267zds62oMPPujdy3oUrNTDVrhwYTc8T8Mo1cszevRot92rV6+446pWreqOU2/c8U4UFAA15Ktdu3buOTRfzp8bh4QpsGl5AP29+6ENiKblfEaOHGmbNm3yWoCUo8cti6DHLXwyqsdNY/f1RVO/fn2vJfzocQsffwHur7/+2p38aD5XuXLl7KKLLrKGDRt6RyE+f6ikeumQutTj9txzzx3VwxYfPW7hk5Y9bpqLqyGWTZs29VpSDz1u4cRQSSQJwS18MjK4DRgwIMnFScKA4BY+fnDDySG4pR3NYWrRooW3lTCCW/ikZXBLSwS3xGm4uNa400iCoGGoJAAAcDREktCWNk4U2gBkvH379tnUqVO9rcyH4AbgGH45ZAAAgKRStWhVWG3btq116tTJrXeo6Rfr1q1zc3I19D3a7Nmz7YYbbnA/RT3bN998s7Vp08Y6d+7sRhD4vdhaauiRRx5x61D27NnTDUHVsGUtFaTAtnHjRjeU+bvvvrOXXnrJ7VdFXb/SdWZAcANwFK3HpnXSAABA8n3wwQf2xx9/eFuZn5ZDeP755928Pq0T+fHHH7siLa+++qoVKVLEatWq5dZu3b9/v/cIs1GjRrmhqpUrV7bp06e7dWSvvPJKt/yGwtfMmTPj1nAVHaMlGTSyQCFPFXO1Dp+WC9KyQv369XOhUYWaJkyYYM8880yGTDtJKwQ3AAAAACmi5UgUwrQOrNa3U5A677zz3HIlixYtstNPP92tC6mAJyo6NWPGDBf0tP7dr7/+6tamVG+b5h5WrFjR9dppPb3169e7xyiEqZdN+3SM1m/V2pNz5851+zM7ghsAAACyLAUI/+bTAtwJtfvbKgyiAiE4QuFJvV8KUxqmqJumXmio5O7du61mzZpWsGBBN+RR5syZYzt37rTGjRu74YwqrqQeN/+xuj3wwAPusX6BMQW36GIyCnyZqUftRAhuAI6hMelanwgAgMxOa/Jp7pQWrY+mNt3++usvr+Vwr5LaXnvttbheoMSoqqGG7WUlXbt2dUMUo29ffvmlW2JIAat58+ZueKTmrek8Q2t2li5d2nu0xQ1xjL69//77VqpUKe+IrI3gBuAY5557rg0cONDbAgAg81Kv0AsvvGD9+/f3Wsxy5szp2nQ755xzvFazjh07urbHHnssrudHPXAPPfSQu5+V1ahRwy0ptGHDBq/lWKrOqmUzJk2aZPPmzXPDJLXwv0KdquJqWKUKjSBhsX2pG5wlZKaKOllFrly53BdHRihRooSdf/753tbhhWd1RVIfqKeeeqrXaq7a099//+0+qDUEQjQRW+PU1X7KKae4P4f4x+rmP4eqTw0dOtS15cmTx72uJHSshkroqpvaVDmqatWqrv2HH36wESNGuHYtzJwt2+HrUf5zqCyw3gdLVoaL5kdoCAwQJvqcii68gODTd0a+fPm8reTR95yG/SmwVK9e3WtNW/pO01plQVK4cGFXVETnCipEos9wrSOswiFlypSx7Nmzu4Cm72VVkdSfQT10/nmC9umcQOes+nvUf5slS5a4oZUqmqY1WdUDp17M6OGR6sHTEEydA+i7Y/LkybZt2zZr0qSJew4FQ92CIKXndvS4ATghVZqsW7eu+yCOpm3dihUr5rUcPuH226P5bYm1RzvRsQp5Pn1YH+9YhTYAANJS+/btXSGNaOpZ0hwt/cwKypYt63oeNQyye/furnfttttus1mzZnlHmAtvZ555pht+qv36DvfVq1fPPV5BTQVOWrVqZQ8++KC7OJxUCmi68Lxw4UI744wz3PNpHl1mERNJu1yGzgL8NTAQLtEBBcmnq3T+xGaEQ968ea1QoULeFhAOOkHn+zZcVJkwuthFatOaY6qo2KNHj7iepdSgwigqkIJwKVCgwFG9hSeL4AYg0yO4hQ/BDWFEcAuftA5uou8g/zVUCn/AgAHu/kUXXeQqKsqHH37opg9I9Cwm/76G/V1wwQXuvqYkqOqlCn4gXAhuAHACBLfwIbghjAhu4ZOawU1D/DTc73jzqfR9pLmQPq1HJlrfzOe3SULtmjemHjd/TjfCg+AGACdAcAsfghvCiOAWPqkZ3FSd8u23306XQhgMlQynlAY3ojoAAAAABBw9bllE0ErGImlSWqIYh9HjFj70uCGM6HELH/W4ffPNN97W4V4z0Rwyfz1TVVVu2bKlu388Kl2v4Yz0uCExDJVEkmg8NMIlpb/cOILgFj4EN4QRwS18FNy0ELRPC0KLgtv48ePdfX0Xa40w0RplmltWpUoVt51RCG7hRHBDkhDcwofglnoIbuFDcEMYEdzC52TnuH3xxRf2999/23/+8x+vJWMQ3MKJOW4AAABAOujWrZuVKlXKhbf4XnrpJaM/BGmJ4AYAAAAkUa9eveLWX4s2ZcoU7x6QNghuAAAAQApl9Lw3ZH7MccsimOMWPkGa47Z161bbuXOn5cqVy4oUKeK1mm3atMm7Z3Ht0W3Zs2d3fw450bGSULvfpgVLo+eOJHRswYIF3XwFiW7ft28fc9xChjluCCPmuIVPctZx0/eh6HMqozDHLZxSem4X2zfCu49MbPv27d69zE8n6Zo8rKpPJUqU8FrDRyEpZ86c3lbG+vDDD+2rr76yESNGWMeOHb1Ws4ceesi1qfRxzZo1XdvYsWPdAqRqb9u2rftzyH//+1/75ZdfbMWKFdasWTPXpvvPPfecO7ZGjRpx/730ekOGDLFx48ZZ+/btXdv+/ftNH1c6VsskVK1a1bX/8ccf9t5777n2Dh06uP/u8uijj9rw4cNdgDvllFOYdxAyOXLksNy5c3tbQDjoApM+qxAe+s442aV3NL/txx9/tKZNm3ot6U/faSz1FD4pPbejxy2LyEo9bhs3brSHH37Yzj77bOvSpYv7In322WftwgsvtPr163tHBV9G9rjp34smX/shKOyoKhk+9LghjOhxC5/k9LjpouKkSZPs5ptv9loO04XCwoULs44bEkVVSSCeokWL2quvvupCm6xcudIWL17s7iNp1Ns1bNgwbwsAAETTSI74+vTp490D0gbBDcnSr18/d2I/cOBAO++889yHlT8cU0PldBWqTZs21rlzZ3vnnXfirkBOmzbN9YZ99913dvXVV7thBpdffrkbchDd+avnevnll91z6xgdG32MhkN+9NFHriyv9uu4Rx55xJYvX+4eq/fz22+/ufdyxx13uGEN1157rTv2gw8+cM9xotfQfj2nnuPFF190w/6eeOIJe+CBB+Kew7d+/Xr3Z/7++++9lnBTZazoIZEAAOCw5s2bxw3jB9ITwQ3JNmjQIBdY3nzzTRdmNEZ8+vTp9tZbb9mVV15pv//+u1vTZObMmS5k+RTeFAyef/55F4quu+4695jRo0e7/ZofMGDAANdL9vrrr7tjbrnlFjdvTXOkRMMUNH9JAXLChAkuSF1yySVWunRpt9/XokUL69+/v9WpU8f+97//uWOvueaaJL2G7N271wVPDX34+OOPXQngM844wwVBFezwzZkzxz1nQuWBw0h/NwAAIOl69uzp3QPSBsENyVa8eHHXy1S+fHkrVqyYG9P966+/usIT6m3TuPGKFStap06dbPz48S7kiSr/XXDBBa4QhY7RXDSFoVGjRrnerkWLFtmMGTOsR48e7vE65rTTTrNzzjnHfvrpJ9cTpvlKummf6PU1f01VDJMiKa8hCmMKfQp7ZcuWdXNu6tWr5/YrrInes/58ao8fHAEAQOaii8caORSfziPSY34bsi6CG5Ktdu3alidPHm/r8NDCZcuWud4zDT30b+qNU4EQvziEJmVGTwTWh1yFChVs3bp1rkKSnkOBKf5kYa2Psm3bNndMq1atXEC866677MEHH7SJEyeeVPGJpLyGr0GDBkd9EOu91q1b1/78808X2hRIFeL0fvjABgAgXDSyRqOAdIumOfKJ0XkEkN4Ibkh1Gk6oIYnRt/fff99VKUwtKhWu3j4NkVQ4fPrpp11p+ujhi2lF4UxX1WbNmmWrV6+2qVOnuvejMJcZ6L/XM888420BAJC5ac6aRv/o5tuyZYubYjF06FCv5cQGDx4cN08eSAsEN6Qa9aSpN2rBggWueEhi1DOn8uw+fcjpypWGTmqenJ5DQx6jjxENb1QZ1ej1VjTsUtUjVUVSzzt58mRvz/GdzGskRGuWqVy55u8p6KhXTvPgMgPN6/MXFwUAILPTVAv/5tPUCBU303qjCnHRNMLmpptu8raOSO8CZVqyh1u4binFOm6ZiMLP448/7hYk1ol35cqV7aqrrrJbb7011ddxU1GQcuXKublf0VSc5N///rdbCFnFQjSUUu9L1R41702FSR577DH34XjbbbdZkSJFXCVHDa+85557XE+WhjCqqIk+LO+8804XslQMRJUd9Zznn3++92qH6Z+wer1eeOEFu/32212o0kLN5557rp111lnuz65Klgp4avOHVJ7oNRQEo58nPhVn0Th3/V2rsEn0B35qyKh13P766y/3d+Yvp3CyNN9P8wela9eu7s8hWiTbp7mFMn/+fDe3UVRIRsNvJaFjNdz2008/dfc1r9K/MvrDDz/ErWXTvXv3uHmP0c8R/d8d4cA6bggj1nELH31nnOw6bonRSCAVPGPaBNIKPW6ZiMrav/322+5kWOOyVaVR4UiLT6cXFejQkEUFNC14rblomoOm4OZTz5rWP/nnP//pTta1pIA+7Fq3bu32qydMQUhFQTTsUle2nnvuObviiivcn1E0v0xLDWiYpPZrqORll11mp556qtsfTQVDVNpe4fDMM890lSOT8honoveuv2edXFavXt1rDb+WLVueVGibN2+ezZ4929s6PIy1atWq7hbNb0usPdqJjs2ZM6fXYq539HjHxm8HACAtvPHGG4Q2pCl63DKJL7/8MtGTbfVAqTR/ECjQ6WrUo48+mqpz3jKCeuS0zpt6CdWzlNrSu8dNV4mji80kxcGDB11vpgJzWvwdpBYNiaXHLVzocUMY0eMWPifqcfOnDugzyafRNpMmTXIXnYH0RHBLAfX6aD6X5kWpNH5G0mLTQ4YM8baOpR6v1Bhbm1KZKbipkqXWsFMPo5YUSG0KbnPnzo3rRdR/YxVEES0m7n+JaH6fqBfRH3Ovx2mBdNGw1Ro1arj7uhroBxj1xvq01p0e065dOzfcMKn0d6AvrxtuuMFrCSaCW/gQ3BBGBLfwOVFw04VxnT9pFJGP4IaMQnBLBgU1DUnUEDxVElTpeK3xlZE03+qpp57yto6mYWVaaDoIMktw0xIA+vvWXCtNXk6LoREKburV89eGU0jyaS6YH9yi25s0aeJ+KoRpWQPR8/jBLaFjRXPSKlWqlCFz6tIDwS18CG4II4Jb+CQ3uGmKQPx5/ppn//LLLzNcEmmG4JYM//rXv1yxg9NPP91ryXhjxoyJmyMWX/v27d08siAIe3DzC5aokqQW69aHtCpbpoX0HiqZmRHcwofghjAiuIXPiYKbRrtIQkXK4rvuuuvchX2CG9IKwe0kqQKeSs7rhD1oNExuwIAB3tZhmrOk8rSa54ZwCUNw27Bhg/tZrFgx9zOoCG7hQ3BDGBHcwic1q0pq9JMqU6dHcNMcc43+Qbjouy0l53YEt5OkhaQ1pKxt27ZeS7CotL563zR8U/OuLr74YjecL7WXA0DaC0Nw05AQ9Tw3btzYawkmglv4ENwQRgS38ElOcPPXjG3UqJH7mREU3PylcBAeKT23YzmAk6T5bUFenLhTp05unbRnnnnGlblXaAMAAMDJ++6779wt2t69e92ap0B6I7idJA0JK1OmjLcFZG1aRw8AgMxq3759SR6xMXbsWGMgG9ISwQ1AsmmB9aAPkwQAIDXpAv55553nbR0Rv84AkNoIbgAAAEACLrroIrvgggu8rcMqVKjgbkB6I7gBSLbPP//c/v77b28LAIDMRRUik1olsl+/ft49IG1QVfIkhaWKXnxUlQwfqkqmnsxa5W3kyJF2xhlneFuZj5YzAcIks37WaI7X+PHjrWXLll5L5nKynzVagHvSpEl28803ey3pL6tVldRcwyFDhlj9+vWtTp06Xmv4pPTcjuB2kghuSC8EN5yIhvBoaZLevXt7LQCQ+p5++mlXeOOLL77wWrKOL7/80rJly2YXXnih10JwywgbN260hx9+2M4++2zr0qWL7d6925599ln330VhLixYDgBAhrnjjjsIbRlk+PDh9vXXX9tzzz3ntQBA6lNvmz5nBg8ebKNHj/ZakZD+/ftTVTKNFC1a1F599VUX2mTlypW2ePFidz8rIbgBQAj5gW358uX2/PPPu/sAkNr0WbN69eq4+zBr3rx5gr1t8+bN8+6Fk+boDRs2zAYOHOiqZvbp08e2b9/uhil+9NFH1q1bN7cMUM+ePW3EiBFxIXXatGmuN0zr3V199dXumMsvv9x+/PHHo4Ls/Pnz7e6773YjRXTTfbX51q5da48//rhbk1jPccUVV9jbb7/t1s3T+9D7+e2331zvry4ca479tdde64794IMP3HPoOI0G0vtXu95P9PvQ/kceecQ9x4svvujeh7Zvuukm+/XXX90xPv33/Mc//mETJ070WjIewQ0AQsbvbfNxMgUgLfi9bb6s2OvWuXPno4ZJHk/dunW9e+E1aNAgW79+vb355pv2wAMPWL58+Vybhobq34ICT48ePVygUptP4W3KlCnuQqKOue666+ytt96K+/eiHjINua1Zs6Z9++237tagQQM33FEXIOWTTz6x7NmzuyG5eg4FyXbt2lnOnDndfl+LFi1c76bmuv3vf/+zCRMm2DXXXGP79+93SzKoJ+711193z3HLLbe45/vll1+8Rx9eQP2dd96xwoUL28cff+wCZLNmzWzMmDHuOXxTp061EiVKuPccFAQ3AMmmq1pUlUx/8YMavW4A0oJOqv3eNh8XiswFG93iu+uuu5JcgTKoihcv7noTy5cvb8WKFbMNGza4AKQetIoVK1psbKwrilWrVi0bNWqU9yizggULumUTFHR0jOai6Tgdo94uhSLN77ryyivdHC/dLr30Uhee1Isme/bscfMJ9XjdKleubNWqVXP7kmLRokU2Y8YMFyz993raaafZOeecYz/99JPrbROFM4U+hb2yZctaoUKF3LQPPX7FihXuGBUaUiBU72qQ6g0Q3AAgROL3tvk4mQKQmnRym9DnSlbrdZs8ebK7RVu4cGGmLdRSu3bto6psqrjd0qVLXc+Vhh7qpt4pVXjcuXOnd5S5cFOyZElv6/AyClrrbt26dbZjxw6bO3euC4LRIUivo3DmhyUNa9TxGp74yiuvxPXEJdWyZcvcv9vo9yFVqlSxbdu2uffhU29fdMhWkNPjFFJlyZIlLrQGbR4/wQ1AspUuXdq7h/SSWECj1w1AatJnTWJVC7PShSINu1NwycrUm+YPSYy+aShlalLv1zPPPON6ejWvTvPONLcuPQq+KESqSrYqhqpnTj/LlSvnQl+QENwAJNsll1xCVcl0pMngCfW2+eh1A5AaEutt81Fh0qxhw4bevSNUMENl6jOTMmXKuFCjYYTHo7Cj4iI+hS31gGnopObJ1ahRw/Vg+cMVRcMRFYwVkHx+T52WuVHBEw21TGhYakL0OM2Ri34foveuYZp6H8ejZQXUKzd9+nQ3Z089i3q+ICG4AUBIaIK0vlT8m4aSaG6Avz1nzhzvSABIPp2sajig/9miSoMq9uBv66YT8axAQwNPPfVUb+swzXtq1aqVt3WEemc0xyoz0Zy3Nm3auCIeunionjCFLy3IHl1FU8MmNXxSIUtFbb7//nv7448/XC+Wwpj+vjRcUc+jx+t5hg4d6uZQai5cfNqvwJU7d27LlSuX13qE3peKlqg3VCFRFxv0968CMe+9915cuwqoqNqlqkeeaK6agp++Z/Xe9ecJ4oVpFuA+SWFdcJj/zOEU9EnOmmysD1V63TKGKnbVq1cvwRMIAEgt6vXQHCWVgUfi/vrrL2vZsqW3lbbSYgFuVXFU75eKdkRTEPvqq69cMJs9e7YLQCpOctttt7leKvVOvfbaay6AKfTomOrVq7siIR07dow7l1EPnKo+jhw50m03adLEzZ3TsaJzbIUshT+9RvR+hb2+ffvaueeea2eddZY7r9U8Qw2l1OLct956qyugol48hcNvvvnGTSHQ+9TcOf99xH+e+BRItTyAjr/zzjtT/TwspQtwE9xOUliDG5AW+H3IWAQ3AOmB4HY0zX9S8QpNF0iM/s5U7EKVDTVcUPPEJHoYn19EI/7QvoTa/TYFNgUb/QzKKbyCm3pkH330UStVqpTXGk5atuDBBx+066+/3lWkTG0pDW4MlQQAAAAS8OWXXyY4t1jztY5Hw/w0ZE/rhWkYn08X3DR/UGuW+TQvTm26RS+/oN4rvz2atrXGGFKfKohqiQL1JAYRPW4niR4G4Ah/wrDGmiP90eMGID1k5R43BTetLRa9CLd63DR3SuudZZS0GCqZXJmlx23+/Pn21FNPuXXfunXr5rWmLoZKprOwBrfNmzd79xAWmhyekl9uZH4ENwDpgeB2dHALAoJb6tHf47333ut+du7c2a677jrLkSOHtzd1EdzSWViDmxZQRLik9JcbmR/BDUB6YI5b8AQpuCHpmOMGIMPoQsbff//tbQEAACCtENwAAACABGgutz+f26c5bm+88Ya3BaQfghsAAACQAA0THT16tLcFZCyCG4Bku+OOO6iwCgDIcooVK+bdA9IPwQ0AAABIQOnSpeMWv/Y1b978uItvA2mF4IZMad++ffbZZ5/ZzJkzvRakhWXLlrkbAACZUcuWLd0NCAKCGzKlbdu22YgRI2zOnDleC9KC1reJP2kbAIDMTMVJxowZ420B6YfghkypaNGi9uqrr1qXLl28FgAAgJOjC5Rff/21t3XElClTvHtA+iG4Ic1p2OJHH31k3bp1s6ZNm9p5551njzzyiC1fvtzt3759u1sPTO1t2rSxXr162fTp090+6devnw0bNswGDhzojunTp4+7/8ADD9iuXbu8o8y0lvwLL7zgbnpOHffbb795e83mz59vd999t7Vt29a9zj//+U9bvXr1Mfs6depkzz77rG3atMntQ+L095gtGx8jAAAAaY0zLqQ5DSkYPny4C2ATJkywDz74wE3q1YTf/fv324ABA9zQRoWxX3/91YWn5557zpYuXeo9g9mgQYPckLw333zTBbYWLVrYypUrj5rDprlWugLWrFkzr+UIHfv0009bzZo1bfDgwfbNN9/YTTfdZMWLF3f7nn/+eTvttNNcQPz4449tz549rsdO7w+Ja9iwobsBAJBVVKtWjeIkyBAEN6S5AwcOuFtsbKzbVgnd+vXrW/bs2W3RokWut+uqq65ywxtz5Mhh55xzjhUuXNjGjx/vjhcFrJtvvtnKly/vHl+1alU75ZRT7O+///aOMNdLp8fpuePTWPTcuXPb5Zdf7h5fqFAhq127tnsP2qeKURdeeKF7fb0P9ewtWLDAvT8AAJA1de7c2Z0fRNN5BMsBICMQ3JDmWrVq5XrB7rrrLnvwwQdt4sSJLsiJesnUI9e1a1c3jFI39bipsMiOHTvcMaKQlSdPHm/LXODS806dOtU2b97sesYU9LSmWMGCBb2jjpg7d67r4Utsn3rgVDXKfw/XXXedGyq5e/du7ygkRL2n0eEZAAAAaYPghjSnXiz1lukkX6FIQxYfeugh27p1q9tft25d++6779wwyujbNddc4/YnpkGDBm7+3LRp01zP2IoVK9zaKsmh4Bj/9TUhOaHeOxwxa9YsW7x4sbcFAEDmpwvOb7zxhrcFpB+CG9KNertU5VFzx1Q8ZPLkyVahQgW3LzlDEkuUKGGNGjVyPXiTJk2ycuXKWfXq1b29R6tUqZJt2LDBvW58NWrUcIVStB8nJ1++fAn2YgIAkBkkVlUSyAgEN6QrVX5USFKA0kl/lSpVXHGLd9991w171BDKLVu22KhRo1wP2omoB2/27Nk2cuRINxxTQygTomGVa9ascYVH1NOn11dvkapSap9fJGXdunXuPei1f//9d4ZKnkDv3r1doRgAAACkrZjIifQh7z6SQGXrTz/9dDeXKkxWrVrl3Ut/f/75pxse6Zf/r1Wrll199dXWsWNHi4mJceFJgeqHH35ww+5UiERDFLUsgHrkVI1SvWkJDZ3UYx9//HHXW/af//zH9cKJglnfvn3t3HPPtbPOOsu1qQjK66+/7nroREFPFSpVjERz7d566y03/EHVK1UERUVSevbs6YqaZIQCBQpY/vz5vS3gWPo3W69ePXfxAQDSii6maj64vhOzGvW4admb+AVKMtrBgwcTHEWEYNO/pZSc2xHcThLBDeklqMFNPaIqHnPBBRd4LcgoBDcA6SErBzcgSBgqCQSY30spL730kuuFfOKJJ7wWc5Uv1aabejZ9Q4YMiWuP5rd99tlnXsvhSdZ++9q1a71Ws/79+7s2LUYe7dFHH3W9ktHHAgCQVWid2ei1ZoH0Qo/bSaLHDelFPW558+Z13eoSPSTC74mLP0wiofboXrvUeA4EBz1uANJDVu5xGz16tPvZunVr91N0wVNF0VQxG0hP9LgBAeaHNlF48m++6LbE2qMl1B7dllg7AABZkUaXaJQJEAQENwAAACCJcuXKxUgHZAiGSp4khkoivVBVEifCUEkA6SErD5X013gtVqyY+xkUqiqp5Y0QLlq2KiXndgS3k0RwQ3ohuOFECG4A0gNVJYNHwU3r0yJcUnpux1BJAAAAIIlUnOT999/3toD0Q3ADAAAAEqAFuL/++mtv64hdu3Z594D0Q3ADAAAAgIAjuAEAAABJ1Lx5c9ZwQ4YguAEAAAAJ6Ny5s1144YXeFpCxCG4AAABAEqmio25IXytXrrSBAwdm6WUQCG4AAABAApYuXepu0SZMmGADBgzwtpBe9N/hl19+sbVr13otWQ/BDQAAAEjApEmTbPLkyd4WMlLLli3dMgzVq1f3WrIeghsAAABwEipWrOjdy5rU6/X4449bp06drGnTpnbFFVfY22+/bXv37nX7t2/fbi+//LKdd9551qZNG+vVq5dNnz7d7ZN+/frZsGHD3NBHHdO7d2+75557bNCgQd4Rh61bt85uueUWGzlypE2bNs1uvfXWoxYeHzt2rCsUo9do27atPfbYY+61Zf78+Xb33Xe7dr3PZ5991jZt2uT2hRXBDQAAAEhA1apVrXLlyt7WYaoqee6553pbWdMnn3xi2bNnty+++MKFJwWxdu3aWc6cOW3//v1uKOm2bdtcMPv1119deHruueeOGnaqkLZ+/Xp788037aGHHnI9an/++edRc9jGjx9vhw4dstq1a3stRygIvvjii9ahQwf7/vvv3XtRgMyfP7+bD/f888/baaed5gLixx9/bHv27LFXX33Vvb+wIrgBAAAACWjQoIG74WgKQdmyZbPY2Fh3U7itVq2a27do0SLX23XVVVdZ0aJFLUeOHHbOOedY4cKFXRDzFS9e3PWWlS9f3ooVK2bNmjVzC5vPmzfP7VfA0lBV9ejp2PgUCOvUqWMXXXSRC2s6pkaNGm7fmDFjrGTJkq4iqF5f70M9ewsWLHDvL6wIbgAAAEASjRs3zoWGrOzqq692wxj/8Y9/2CuvvGLLly/39pgtW7bM/R117drVhS7d1OM2YsQI27Fjh3eUuV60PHnyeFtmFSpUcOFPxV9kxYoV7rlatGjhtqNpOKT2aciqev7imzt3rn3zzTeuF89/D9ddd50bKrl7927vqPAhuAEAAAAJ+PLLL+3rr7/2tg6bM2eOq26YlZUtW9aeeeYZN29s3759dtNNN9lHH33khjVK3bp17bvvvnMhLPp2zTXXuP0JiYmJsdatW7tiMAqFOl49ZcktRqLgGP/19d+zfv363hHhQ3DLItRNnNluGgM9e/Zs1+Wd0P6w3wAAQPDkzp2bddwiFLTUS6bCIg8//LCNGjXKzVlTmyRnSKJClf5+Fd4UtE4//fSjeuV8GhqpoZCrVq2KC4vRNGRSvYAbNmzwWjKH2L4R3n0kgbp+1S1bpkwZryUc8ubNm6lu119/vRsXrbKw7777rpt0qvHV6hJP6Pgw3jTBFzgejf3XF5f/JQkAaUEFJXQC3LhxY68l69AFYgWUmjVrei3mzgFr1arl5mVlFIWV6GGHGUk9bqNHj3bVHs8++2z3vbRkyRJXFKRSpUpu7pkKlSiIaT5cwYIFXcjTz4YNG3rPcphCmwKX5qhpvtvFF19shQoVcvtUyVLPoWGXCm46T1KBEw2VVBEZ/X0oLBYpUsT11P3+++9uTpv+W+l5FfImTpzo/vslNLwyPeTKlStF53f0uCF0/vnPf7pqRtE0Drp79+62ePFirwUAACBlOnfu7ApcRFMo8ItgZFUq9e8vBaCqjgpUt912mwtjCkUq4a+5aVoyQD8vu+wy++qrr5LUU6leNl0s0BDJ412YVDETLSGggKjiJ3oNDYVUURMN5VSlSoU/nR/qPej9zZo1y3t0OMVEEvux/YtIlP6h6h9UVrzqFBTq8dSE1ISopOyNN97obQGZ21tvvWX16tWzVq1aeS0AkPrUO6JiDz179vRa4NM8Lp0X+r1C6UUBKHo9M4RDgQIFXG9hctHjhtDRhNXEHG8fAADAyVBASqyXSEPvFJ4effRRr+UwrV12xx132F133eW1HKY23VTt0KfhfH67v3C0PPLII67tjTfe8FrMlcn3j1WBFGQ99LidJHrcMl65cuXcwooJee2111z3PJAV0OMGID1k5R43Db3TemXxh0seT/Tcs3z58nn3Em6PP08tofaE2hQmo4MewoEeN2Q5x/vwbN++vXcPAAAg/Slo+bdoCbVHtyXW7otui25H1kFwQ+ho3RCtfh9NVy9ef/31LD9ZGAAApB5VAMyoCoRAfAQ3hI6uMn377bdu2IYKkWgpAJUp1vIAAAAAqeXcc891NyAICG4IrVNOOcWVim3UqBFrngEAACBTI7gBAAAACfjll1/cDQgCghsAhNT69etZxwcA0pAqN+7cudPbAjIWwQ0AQqpKlSqWO3dubwsInqefftqGDBnibQEAUoLgBgAhVa1aNZsxY4a3BQTPPffcYxdffLG3BYRPx44drUOHDt4WkLEIbgAQUs2aNXPDeH777TevBUg5La3SvXt3a968uS1btsxuueUWi4mJsS5dutiWLVvcTffVphNaLdHiH6d90qdPHxszZozrbdPt559/tr59+7rHaFv7VFzK3waCKk+ePO4GBEHMoQjvPpLg5ZdfttNPP90aN27stSAjaRjO+eefb7Vr1/ZagKxlxYoV9tZbb1mhQoWsfv36tn//fitevLi3F0ga9d4WKVLE3VcAUyBTT5lC1YIFC1zPmX9fx/ptCmCDBw+2O++805588knr37+/+7eo4Na1a1dbtWqVe04ZNmyYC4UKd/fff7/961//soIFC8bdr1Chgi1fvtxWr17tPQLZsmWzUqVKWbly5byWjDFq1Ci3BE/Pnj29FmS0gwcPMsc5hAoUKODWHk4ugttJIrgFC8ENOOyvv/5yJ9NLliyxwoULe61A0mg4mAKZqGfsuuuuc0FKn7H33nuvaxetl1m1alV3rIKdetreeecdd/yJgpv4j9G+8ePHuzY918CBA61Vq1bu3/GkSZNcO8z27dvnwqxCdbdu3axGjRreHqSXL7/80gXoCy+80GsJBoJbOBHc0hnBLVgIbgCQuqKDW3SPmy+6LaEeN7n99tvt1ltvTTC4Rfe46TVwYvp7fvfdd+3BBx+0ypUre61IDwQ3pKaUBjfmuAEAgAQpaC1cuNDNRfPno7Vv395Gjx7ttnv16uWOUwBTT5x6e5s0aXLcExP1yF1zzTXWrl079xz+3DkkTr2Rl19+uX3//fdeS8aLP68RQNqjx+0k0eMWLPS4AUDG8YdKqpcOaUvDJtWT+corr1iOHDm8VmRV9LiFEz1uAAAAmZzCmk76NmzY4LWcPPWO6YKnejl1U/D2K4Sq90zUpoqifm+o5h+qp1WP8/frWP1UYNdznqgSKYDUQXADAADJoiGS9Laln9jYWHdLialTp7qCM0OHDrVPP/3UBS4NvtJQVwU0tWkOotq0LylVPvWcCmnjxo1zRWf0XP7jBwwY4B0VTrNnz3Y3IAgIbgAAAFmEqnjWqVPH3df8RVX4VO+YwpyKzmj4XZkyZdx+/UzKsC4tWaB1JUXPoefSc+q59RphptCmpRCAICC4IdR05ZFpmgAAnDz1jKkqqL5HdVOlUIUwvxqofmqR/2haniB+WzQFw6eeeiruOTWMEmlDw2e5heuWUhQnOUkUJwmWDz/80H3JaLFYAAAys/vuu8+tkVeiRAmv5eRovtnzzz9vvXv3dtU9td2jRw9X8t5fT698+fJx6+w1bdrULbp95ZVXxh139tlnW8OGDd0SECpMo+fSc/pLSIjmuL3xxhvuvoKhqpOG1fz5893P6tWru59ARiK4nSSCW7BMnjzZvv76a3vkkUe8FgAAMqeUBreTpfXj9D3rFy4BkLEYKolQa9SokZUsWdLefvtt27x5s9eacXT10q/Q5VfX0mRvv8KW2jRsRPd19U5figlV8NLz6DE6Ru18aQIAAGRt9LidJHrcgunzzz+33377zQ2b3Llzp5UuXdrbk/aqVKniAld8Kp2soScybNgwF9jUponauq9Ap0ncouM0lMRvu/HGG11Vr3/9619u6ImusGroihZhnTVrlv3www/ucTiiSJEitmPHDjeZ/tRTT3X/XQAgM0nvHjfftGnT3EXGc88912vJOjQ8NFu2bHbhhRd6LUDGIbidJIJbcGlx0iVLlrhhHbVq1fJa057W1alUqZK7rx40lT/2A5nG9vv8YBZ936/g5Ycyf1iK5hNEz0PwQ6Aep55FTQ7Hsfbv32+LFi2yESNGWJs2bRIM1AAQVhkV3EaNGuUqK2q+W1ZDcEOQENxOEsENxxPdMxbd4yaJBTc5mR43nJgqnj377LN2zjnn8HcGINMguKW/oAY3Tt/DS1NgkovgdpIIbjgeBS8FLGnfvr3deuut7r4kFtwuv/xy95j4FbwU3DTEUsfcfPPNlFQ+SVOmTHFDSvX3CACZAcENvoMHD7oROwgXjdJKytqIiaE4CZCKFMh0LUS3X375xW37N39/9H2tmaMetXHjxrnHvPTSS26faL7exIkTWQcnmVSuet68ebZnzx6vBQAAILwIbgAyLc17XL16tbcFAMDJ0dD74y04DqQnghsQIJqPpdL/KkjSt29f9xPJp0qTRYsW9bYAADg5Gj2jqtVAEBDcAAAAACDgCG4AAABAAgoXLmwFCxb0toCMRXADAAAAEtC2bVt3Q7BpkXhV8vYrbWp4qyqwZrb5iQQ3AAAAAAg4ghsAAACQgK+//trdkLrWr19vDz74IGvRnSSCGwAAAJAALXSN1Dd//nwX3nByCG4AAAAAHK2B+tFHH1m3bt2sadOmdt5559nnn3+e4D791Lbaff369bNvvvnGnn32WevUqZObI3j33Xe7sCZfffWV3X///TZx4kT33HoezUnTPLVHHnnE/ezVq1dcu+ixeg5/zmH08yVF/Pfds2dPGzFihB06dMjtP95rBwnBDQAAAEhA586d7cILL/S2soZBgwbZr7/+ag8//LANHz7cXn75ZTvzzDOP2vfYY4/Z2LFj7fHHH7fRo0fbp59+GheC5P3337eaNWu6ADdkyBBXmXPgwIG2e/duu+iii1xIqlu3rn333Xc2YcIEO+uss9zjli1bZm+++aZdcsklbl/r1q1t5cqV9vTTT7vn+/bbb92tQYMGLhguX77cPe5E9L4nTZpkzz33nHvfPXr0sLffftu1+RJ67aAhuAEAAABwwxdHjhzpeqYaNmxo+fLls6pVq1rJkiXj9l111VUudMXGxlqdOnXs8ssvdwFv9erV3rOYNWvWzPWm5ciRw4oWLWpnn322C1lbtmzxjkjYjh077LLLLrMzzjjDSpUqZblz57YxY8ZYgQIF7Morr7T8+fO726WXXuqWakhKr5jet8Ka3mfFihXd+9bz16pVy0aNGuUdlfBrBw3BDQAAAICtWrXKdu7caRUqVPBajvD3KcRF88NQ9Jy1MmXKWExMjLdlrsctV65c3lbiihcvbjVq1PC2Dps7d64VK1bMBTZfnjx5rHLlyrZixQqvJXF630uXLrVbbrnFDYHUTcFSPYH68/gSeu2gIbgBAAAACfjss89s8ODB3hbCSsHxf//7nxuWGX174IEHvCPCgeAGAAAAJEA9PdG9Mpld6dKl3fDGtWvXei1HqBctb968x+xTb9aBAwdcj1VaUC/Yhg0bjlpMe9euXbZ48WIrV66c15I4vW/10C1atMhrCS+C2wl88cUXbgytf7vvvvusTZs2cdvly5f3jgSQ0e69996jfl/feOMN9zvqb1988cXekQAAnFiVKlVs5syZ3lbmp/DVokUL+/DDD23q1KmuGqOGIy5ZssTt0/wvVWecMWOGK0aycOFCV/ijefPmLvQlVYkSJdzjVRBEPxX8EtOqVSvbtm2bffzxxy686T0NHTrUzanT+zkRvW+du+vxqiSpx+t5xo8fb/PmzfOOCgeC2wlocqYmXmoypW5K+PqP7W/fdddd3pEAMpp+H6N/P/fu3Wtbt27l9xUAkCzVqlVz5e2zCs1Lu/baa10xEVWMVGi67bbbXIgTFfg4//zz7YknnnDzxHTBtGXLlu4x0XPaTkSFQVS18aGHHrJ27dq5ypSJKVu2rDtOIU+v3aFDB7eUgBbwVrBOCr1vFTQZMGCA+zPped555x1X5TJMYiIp90jtTiRIvW4qDRqfumeTWoYUQPrQl4jKBsfXpUsXNxEZAMJKo3769OnjeivSkyrvqUCE1r7K6n766SdXJbFRo0ZuSKEoRPiaNGnifs6ZMyduaJ8qIvpFLxI6VtUMZ8+e7e6L357QsaJ2LQzOqK/w0b+F6CIrJ4setyRQr5uuJsTH1XsgePR7qepW8fH7CgBICQUmzbVSefroBaf/+usvd4sOWuK3R9PwvITa/TaNEvFp/bLEjt20aZO3hayEHrck0orx6mL16SqHumwBBE/8XjctoKrx8AAQZvS4wacetzVr1nhbCAt63NKJhkpG97px9R4IrrvvvtuyZ8/ubfH7CgAAwo/gdhL8kz/1tvXu3dvdBxA8pUqVivt9VW9bUqpOAQAABBnB7ST4vW5cvQeCT7+n6nXj9xUAAGQGaTbHbeascK2LkFQ//fSDdez4f95W5lOn9inePWQVS5ettO3bd3hbmcuzzz5td999j7eV+fD7CmQtzHGDjzlu4ZTSOW5pFtyuveEe27UrXGsjZHWdOra1Ht27elvIKhTc7n0g66xRk1nceXsPa9XySHloAJkfwQ0+gls4UZwEAAAAADI5ghsAAAAABBzBDQAAAAACjuAGAAAAAAFHcAMAAACAgCO4AQAAAEDAEdwAAAAAIOAIbgAAAAAQcAQ3AAAAAAg4ghsAAAAABBzBDQAAAAACjuAGAAAAAAEXcyjCu5+qrr3hHtu1a7e3hTDo1LGt9eje1dtCVrF02Uq794F+3hbC4s7be1irlk28LQBZwX333Wd9+vSxEiVKeC3pY9SoUTZ37lzr2bOn14KMdvDgwch59i5vC2GSL18+797JI7ghDsEtayK4hRPBDch6CG5A1sZQSQAAAAAIOIIbAAAAAAQcwQ0AAAAAAo7gBgAAAAABR3ADAAAAgIAjuAEAAABAwBHcAAAAAmzjxo324Ycf2rhx4+z999+3GTNmeHvS3vDhw+3zzz+3n376yb766iuvFUBGILgBAAAE1LBhw6xKlSrWvXt3++OPP+yee+6xevXqWf/+/b0j0s7VV19tbdu2tZdeeskGDRpknTt3tqZNm9qGDRu8IwCkJ4IbAABAQD344IO2detWb+uIBx54wJYvX+5tpT4FtY8++sjbOmLixIn273//29sCkJ4IbgAAAAG0efNmGz9+vLd1rOPtS6kxY8Z49441YsQI7x6A9ERwAwAACKCdO3d69xJ2ov0pcbznTsvXBZA4ghsAAEAAlS1b1vLkyeNtHatChQrevdRXsWJF796xKleu7N0DkJ4IbgAAAAF13XXXefeO1qRJE2vTpo23lfouueQS796xrrrqKu8egPREcAMAAAiol19+2e69917XAxYbG2tFihSxyy+/3L744gvviLRRo0YNtwRAu3btLHfu3O61GzRoYK+99pqrNgkg/cUcivDup6prb7jHdu3a7W0hDDp1bGs9unf1tpBVLF220u59oJ+3hbC48/Ye1qplE28LQBComMiuXbu8rdSnU7aYmBhvC6lBgbRkyZLeFhBs9LgBAACEAKENyNoIbgAAAAAQcAQ3AAAAAAg4ghsAAAAABBzBDQAAAAACjuAGAAAAAAFHcAMAAACAgCO4AQAAAEDAEdwAAACyuN9++8369Olj27dv91oABA3BDQAAAOli5cqVNnDgQNu6davXAiCpCG4AAABIF0uXLrVffvnF1q5d67UASCqCGwAAANJFy5Yt7f3337fq1at7LQCSiuAGIHA2rFtps6b/ZQcO7PdajpWUYwAgrKZNm2Y33XSTLVmyxGsxGzRokHXu3Nnt8w0bNszuuOMO27x5s9seO3as3XzzzdamTRvr1KmTPf7440f1bmkuW79+/dxxPXv2POb5fFOnTrXu3bu755d9+/bZRx99ZN26dbOmTZu6x44YMcIOHTrk9us5HnnkEfezV69e7hi9Vnzaf+utt9qaNWvc9q5du+zNN9+0K664wj3mvPPOc9t6PUnq8wJZQSiC27atG238mJ9s+pQ/bf/+vV7r0RbOn2Yjfx9iy5fO81qCbf6cv9379W9jR39vM6aOts2b1nlHHJHYsVs2r/eOAIIj/r/X8X/9bAvmTbG9e3Z5R6Sf3bt32vJl8xL93EjInsj7nDzxD/t7wu+2a2fCk/RXLl/g/mz6s0bbv3+fLV44wyaMHRb3uzpz2hjbsX2LdwQAJE2ZMmUsJibG5s+f77Z3795tM2bMsPz589vffx/57Jk5c6brvSpcuLBNnz7dXnzxRTvnnHPs119/tY8//tgd/+yzzx41p2zKlCn2+eefW+/eve2tt96yWrVqeXsOU2h7+umn7aqrrrKzzz7btSk0Tpo0yZ577jkX+nr06GFvv/22a/MtW7bMha5LLrnEvvvuO2vdurW3J3E5cuSwevXq2UsvvWQTJkywF154wcaNG+dCoS85zwtkRqHpccudJ6/t3bvHdmw7djLrnsjJ2c4dW61AwWJeSzhUqVbfzmh3sZ3etrM1PLWtFSxUzObNnuRONOM7cmwXa9j4TMtfoLA7GeaEEEHk/3tt3eZCq1Wnme3etcMWLZie7r1juyPBa92a5ZHQuMdt792z2+bMHOfC2fHExmaPnDAdvmgUn/4MumhSuEhJr+Uw/RlnTB0T+TzaYTVrN7Xmrf/P/a4WKFg0Et7+svVrl3tHpq5vvvnG/vOf/9gTTzzhTqwAZA7FihWzKlWquDAmCi8bNmywCy64wGbPnu16qtTLtmDBAhd8RGGtYcOG1qVLFxeIihYt6nrNdNz48ePdMbJ//367/vrrrX79+laiRAl3rE+vp9Cm1+nYsaMLj+vXr3dh7fLLL7eKFStGPiNj7YwzznCBb9SoUd4jzXbs2GGXXXaZ21eqVCnLnTu3tydx2bNnt9NOO829DznllFNcEF2xYoXbluQ8L5AZhSa4xcRks/z5C0Y+tFZ5LUfoJCpbtmxHffCEif5suXPntQqValr1mo1szaoltiWBnjfRB2juPPmsTNmqkQ+7nO5kEQgqBaACBYtY2XLVXO+XeqTSU+GiJa1x03aWN18Bt60LPHu8EHc8+j3Ln7+wbYx83sQPm9u3bbaDBw9Efv+O/rxZuWKh5cqVy6rVaOT+zLly5XG/q/q9rlCphq1YvjDVf1/PPfdcu/DCC+2hhx5yQ4l0YtOsWTPbsoULOkDY6XNIgUyBTSX6586d68JNkyZNXBBbvny5Czf6TFPQ0TE61u+p8xUpEvkMLlv2qCBUuXJlK1++vLd1xKpVq1yPnfZfdNFFcc+jdhUVueWWW9xQRd30WTNkyBDbuXOnO0aKFy9uNWrU8LaSRu9bVSavu+46N7RT4TA6DEpynhfIjEIT3DSGukjRUu7EK3rI1cEDB2zTxjVWtFgZF96iuWFLC6bbuNE/umFLGvq0bs0yb+/hK+dzZ01wc2XmzBxvo0d87YY2zZs98ajX2LxxrU39e6Qb8qVj/OFfem45dOigrVg2P254lH5qW+0nq3CRElaggE4YV3stxxf94QyEhYYg6ncu+ndz4/qjL8ociPxuR/9e6XdQv4vRTnSMesymTR7letjWrFpsM6f/ZVs2r4u87g/ueP3uJ0SfN4UKF7d9+/a69xpN71O9aDly5PRaDvf6b92y0YqXKO8uqMRXtFhp97uq0JdavvxyiP3www/e1hEaavTUU095WwDCTGFl27ZtLjTpd1uBSaFKvU4azrh48WIXarSdGhQCb7jhBhemfv/9d6/1sIIFC9r//vc/9z6ibw888IB3xMlTz5+GRiqUauTAjz/+aJ9++qmdfvrp3hEAooUmuEnefIXcyU/0PLCdO7e5gKZhhtEUmpYunuX21290uhtiWLlqHVu5YtFRQ5YU3jQ0sWTpitbqjAusQaM2kQ+u3e7queikbemSOVaufDVr1vIca3HauVYqcqxulasdHpqwcvlCW79uhRsSptepVbuZC5Mrli9w+0+Get/y5C0QeQ877UAivRMKq2vXLnNBNX/BIl4rEEz6HVq1cqHrhcqZM5dr09CYkqUqWtMWHdzvjH6/li2d5wKQb+uWDS5ANWrS1g0nLlmqgi1eNOOo4cFJOcZXqkxlN4RRoUvDGDWUs1iJst7eY+X0esyiL6Logo4+U4oUPXqY5N69uyP/f9By5c5zuCEehTn1xqnXMbVMn35sMQHfzz//7IY7Bemmk0ydfAJIOvWeFShQwAUkFfNQkNPnp3riVKxDc9Vq1qzphg5qLluFChVc75hfMEQ2bdrk1k4rV66c15I4hcLmzZvbP/7xD/viiy9s8uTJrl3vI0+ePLZo0SK3nVo09HPevHnWrl07K126tGtTb6LeL4BjhSq4Zc+RwwoVLhEJbmtdMBOdVCno5Mx19HjnnTu227atm9wwpTx587vApx67EiXL2bpIcIse/lSseFm3T8fo2OKRk7ldkZMzHaOiBmr3A5KGfilA7t69w70HzZnZsH5V5MSzupt3dvjYwlY2ciK6Yd2qo05Ek0rhzX3oRp7Lt2jB4eIruv054ivbGTkxrV6zceREmHHeCJ7of6/Tpoxyv7dVqtVz/7YlR+TfbZFipSxbbKz7nSlUpIS7EHE4AB2m3+vSZSq5IYl6nEJZnkiQ2hTVo5aUY5JL76dIkVKu127fvsPDK3XR6PBnQEG3HS02NocLewnRn1P7d+9KuNhJcuzdm3jBFVWQU3gL0k2V6V577TV3dX7kyJHeOwVwPApjmvOl3i/NeVMwkwYNGrhqk3PmzLHatWu7Nmnfvr0Lc0OHDnVVGdVz9sknn7hg17hxY++oE9M8uTPPPNP1sG3cuNH16qlKpYqdqGiI/9yaN6fgdTx//fWXde3a1c2Riy9fvnxu+Kcu7mjOnp5TRVNmzZrlHQEgWmzfCO9+qvrqm2GuCzw16Cq3Tph0dVxX7BW8NP8kW2w2W71ykZUqVcld6d6wfqXlypXX9b5t27LBtkRupctWdid1voMHDkY+hDS0snTkxCzWPaZw5KTSnwMje3bvsh07trjXU4DSPJd8+Qu5eWgKc+qxyxW5r2GNO3dudftLlCrv5rREU6gsWKjoMe2ifdlz5Dymp1A0Z08nisXc8M9Yd2yJkhVcz2GlKrWtfMVT1KXoKmnmzJHrqPeeEtWrV7ZGDet4W8gqtmzdZsN+PXo+QUpE/3tVz/TmTesjwa2Yu7DhUy/ckkUzXcGSpYtn28b1q91FEl000e+LLpyo17lEJIj5Q6BjIj+3bYmEqEi4K1q8TJKOif7s0OeAHqNeuhIlNaQx4Tmx+h3XxRj9fueLBLT16yKfK5HfdxVIUs9hkSIlXe+h/pziv44+SwpFfp8T+n1XL/n6dcvdRZ+EfueTo3DB3DZ1yuGr4fFp7tszzzxjrVq1CsxNVeBUna5SpUpuXow+W6tWreq9YyBzUOXH1Dr38Wn44ldffeWKhSiwSd68eW3ixIkuQCkUaVtKlizpeuAGDx7shkwrwCkY3XXXXS58iXrNFLbatm0bOac6MrQ7ul0jBNS7p+qOClGaz6ZCJurt+/DDD+2///2v65HTnLpTTz3VDdXUBSP1DOrxCpw+zcXTxRoNf9S8uujjVDxFPYEqsvTkk0+6hbkbNWrkip6oAIoCZGLPm1r0/aEACYRBTOTL80h/eiq69oZ7bNeuI1fPU0JXvBcvnGk1ajexHNlz2rw5EyMnTsXcMCYFN7Xrarvmq6ldwUZzV5YtnWu167U46kRqS+QkcsniWVazTlN34qbHaMhW9JApPXbtmqWR523qrq5rWyFJV82lWCT0la9U0z1e703VHaud0tANwfLpxHTenL+tSrW6R7X7VEY8d578h0NYFJ00ao6dAmiV6vVdW2LHLoq8Jx2vnrfU0KljW+vRvau3haxi6bKVdu8D/bytlIv/71Wl8zV0uEatyO9vzlzud2POrIlWvGRZK1u2qvu90hy0uZE2DWfW70v830Ff9L/5pBwT/dmhz4HEPheixX8vej59SJaMhFENw9Tvunrm/aUA9DrqWZ81Y7yVr1A98uc6djiSgt3smROsbLmqCe5PjvM6nWbXdL/C2zqaymUrvAWVTuT69+/vyopHnzgCYadhfuo5QuI0xPP111+3Rx99NNXm5qWEAqICLxAGoRoqKTrJK1K0tLvarSvcBQsVjwSoY7/4deKoIVg6YYqmnjRVn0zsantCtm/fYqXLVbEmzc92N81t8x+vgJUtW3bXSxdt167t7oryyQ5l3BT5c+2MnNgm5eTuwMED3j0guPRv+eDBg+73VVRgyCJRSL1e/sWQ3Tt3xA1H9O2O/E7t33dkOKDCmHrY9LvtS8oxKaUeNRUVWbduWeR587nQFp965NS7rl61hNaMU6+fPg+iex1Tqnr1U+ynn35y6zXpqrUKB6hUtoZFBTm0ia66q8y51qQCAABJE7rgJn61ty2bN7jhTAnJmy+/aTjTsiVz3BV+0RDENauXujlt0Vfoj0cFQnbt3OqGJCZEc+uKRU7sViyfH1cxbueOba6XQe9NJ3QnomFUOpnVsLGF86dbqdKVEuyl8+nkVEsGaB5Pag27AtKKLl5obuma1ctcOXz9zijIaUij6Pdz5Yr5rsR+NPVirVqxMBKE9kVCz0G3HpuKe0QXBknKMdEOz4U9FFeWPykDDhS2dLFnzaqlboh1YtSbpiFNC+ZOdvNrFeD0OvoMOlzgqKoLfqlJoU3hTRP8tQSA5p6olHYYqNjBunUJL3sCIPPRsE4NI9WQTA251HBMACcnlMFNYUjhrWAkmOXLf2yRANHQyUpVDg91mj51tCuSoOGOGsqkCpJJFZs9h+vVmzt7YlyxBS0ZoGFS/pV1FSJR2Joza4Lbr5LjKnZSsXJNtz8xfgEHFRuZPmW06x1UZcpykfcYX3Sxh7F/fh85CV5iVarWOak/C5BRdLFEX9S6cKLfyTJlK9uihTPcv2cNKdacuAIFjq6QWrJ0BVfEZPLEP2zUH1/a2jXLrHKVum6+qS8px0RTCNPv5uyZ49zSHhrCeSK6yKPiKnqsLgYlRqGsboNWkc+nfO6zYMzIb238Xz+5Cyy16za34iWPXTMpK9PwpDQaqQ8ggFSkRPNc33//fevWrZsVLpx6IxCArCIUc9wyktaI2rF9cySE1XYnZrqqv3vXThekFOjizzsLM+a4ZU2pPccNR2jdyKVL5kbCZO3jLj2QHHfe3sNatWzibYXPZ5995k7cOnbs6LUA4ccct/BhjhvCJJQ9bulFQxK3blnvegv8IU7qydMcF13RV+U6AEiMKl5WrFTD9fZr+DQAAEByEdyOQyViVbJ/8+Z1LsSJOig3rl9lG9avtsKJzKMBAJ/CW7NWHd2QagAAgOQiuB2HmydXubYdjIS2CWN/dvNxxo35wVatXGRVq9d3c2UAAAAAIK0xxw1xmOOWNTHHLZyY45bxduzY4RZcRrgUKVIkbtH+1MYct/BhjhvChB43AACSae/evdxCdgOAsCK4AQDS3WWXXUZFSQAATgLBDQAAAAACjuAGAAAAAAFHcAMAAACAgCO4AQBSzdNPP20xMTHuNmTIEBszZozdcsstVr16dXd7/fXX3U9//5YtW6xLly5uu0OHDvbMM8+45+nTp481a9bMtWu/jgMAICsjuAEAUs0999xjWmVm9OjR7ibbt2+3iRMn2lNPPWU///yzu+/v//XXX61169buMY8//ritXr3aPUZeeukl1679Og4AgKyM4AYASBXRvWcKW1rnTHS/UKFCVqZMGTvnnHPcfd+CBQusWrVq7n758uUtf/787r5+alu0X8cBAJCVEdwAAKkiuvdMvWn58uXz9iQuOpQtX77c9c6JfmpbosMdAABZFcENAJAqNCft888/dz1uvXr18lqPr3379i7kJfQYbatd+3VcVjF//ny7++67rW3bttamTRv75z//GTeENHqfbrqvNt+0adPskUcecUNSe/bsaU2bNrVu3brZRx99ZPv27XPH6Ke21a795513nnuMgvKaNWvsH//4h/3222/uWN8HH3xg/fr187bM3f/kk0/c0Fi9j06dOtmTTz5pM2bMsIcffjju/alt69at3qMOB/KXX37Zvab+bPpvPH36dG+vudfVc48dO9a9/86dO7s/EwCA4AYASCUVKlSwcePGuR638ePHu0IjrVq1csVJJP597dewyaFDh7rHqFhJ9FBJbatd+6OHV2ZmK1eudAVeatasaYMHD7ZvvvnGbrrpJitevPhR+7799lt3a9CggT377LNxvZOiIPTnn39a3759XQC6/fbb3fNobqHov9Hw4cNdQJowYYILZZdccomVLl3a7U8qvb8LLrjA9bTqPcyZM8cFycaNG9uwYcNs4MCB7n0NGjTIHb9//34bMGCAbdu2ze3T4xTunnvuOVu6dKk7RqZMmeIuAPTu3dveeustq1WrlrcHALI2ghsAAAGhKpy5c+e2yy+/3IoVK+YCa+3atS179uxuX4ECBezKK690wVa3Sy+91AoXLnxUD5na1ZtWsWJFi42NtZYtW7qhpnPnznX7Dxw44G7aJ3qd+vXru9c4GephPeOMM9zz1K1b1wUsBfILL7zQcuTI4YJ88+bNbd26de74RYsWud7Bq666yooWLeqO0ZxHvX8FfZ8C3vXXX+/eU4kSJdxxAACCGwAgAyhoRJ+si0701Usk+qntrEbhSj1fBQsW9FqO0D6FLL9XUvLkyWOVK1e2FStWeC2Hg1vJkiW9LXNBMPoxClcKXXfddZc9+OCDridOQe5kqdiMhrJGy5kz51EBMFu2I6cZy5Ytc719Xbt2dUM0dVOP24gRI+IK2Yj+PH5hGgDAEQQ3AEC6+/777+2XX37xtpCe1IN18803uyGSCk8afvnQQw8dNRctrahn7rvvvnNDNKNv11xzjXcEACAxBDcAQLo7/fTTrU6dOt5W8GhYn4qCRM+9Sg+VKlWyDRs2xFXXjFajRo1j9u3atcsWL15s5cqV81qSTr16Wr7h1Vdfdc85efJk10MW3Usmmme4atUqbyv5/B5U/d0CAE4ewQ0AkO4UNBYuXOhtBdOLL77oglR6BjgNY1Rlx48//tj1gClQzZo1ywU07VNhD+1Tu6pDqnCLKk5qrllyKJT5yzBo+QbNodPcuJEjR7rX0muokEn8Ya3JUaVKFWvYsKG9++67NnXqVDc8U2v/jRo16qihngCAhBHcAADpTkP0VCUxDKXe0zPAKdw8+uijrkKjinycf/75LugouJUtW9YNadRcMbV36NDBzU/TPDU9LqlUcVJl9vXfQHPdNFTysssus1NPPdXNh+vevbsLjaoYqZuWY0iNoYya+6aqoi1atLDHH3/c/dTrfvXVV3bw4EHvKABAYmIO6XJbGrj2hnsiXzS7vS2EQaeOba1H967eFrKKpctW2r0PHFmfCeFw5+09rFXLJt5WOGlontb00nA9hYgiRYocU+wio2j4ocruJ+TOO+90hT1UKCQ95oUhdZUqVeqY4aCpZfPmzS5kIzxUFTW6mA8QZAQ3xCG4ZU0Et3DKDMFNNERO63nNnj3blY33S9RnNH9IYmJUpl/ro912221eC8IiOrhpmKZ6NEVr0enigTzxxBNuLl6jRo3iFoZXmFdPoSi416tXz93X4/U8WrrggQceILiFDMENYUJwQxyCW9ZEcAunzBLcgkon7VWrVvW2jlBg00m7buodpMctfOhxQzSCG8KEOW4AAJyAAttjjz3mCnk88sgjR62LBgBAeiC4AQCQiMKFC7vhcRrSSWADAGQkghsAAAlQYFMP28MPP+xK5QMAkJEIbgAAxKPy+gQ2AECQENwAAAAAIOAIbgAAAAAQcAQ3AAAAAAg4ghsAAAAABBzBDQAAAAACjuAGAAAAAAFHcAMAAACAgCO4AQAAAEDAEdwAAAAAIOAIbgAAAAAQcAQ3AAAAAAg4ghsAAAAABBzBDQAAAAACLuZQhHc/VT37/FvePYRFseJFrUf3rt4Wsoqly1ba5198520hLFq3OtVatWzibSEj7Nixw/bu3ettISwKFSpk2bKlzXXrzZs3265du7wthEFsbKyVLFnS2wKCLc2CW2rYs2eP9evXz/r27eu1AAAABBPBLXwIbgiTwA+VXLNmjXcPAAAAALKmwAe3+vXre/dSx4YNG9wNAAAAAMIi0MEtV65cduutt3pbqaN///7ePQAAAAAIB6pKAgAAAEDABTq4qTjJ/Pnzva3U0aVLF+8eAAAAAIRD4Hvcnn32We9e6mjdurUVK1bM2wIAAACA4GOoJAAAAAAEXOCDW69evbx7qeOLL76gqiQAAACAUAl0cFNVydq1a3tbqWPs2LHePQAAAAAIB4ZKAgAAAEDABTq4qarkW2+95W2ljqeffpriJAAAAABCJfA9bpMmTfLuAQAAAEDWFPjgVrRoUe8eAAAAAGRNgS9O8p///MfbSh333HMPVSUBAAAAhErMoQjvfpag4Hb//fcHZp7b7DkLbMjQH70thMX5555lDRqkbsVTAEC4bd682Xbt2uVtIQxiY2OtZMmS3hYQbIEObipOoreXO3duryXlBg0aZO3btw9UcOv7xAveFsLiX/feSnADAByF4BY+BDeESeDnuPXu3du7lzouvfRSqkoCAAAACJXABzcAAAAAyOoCH9wuvvhi717q+OuvvyhOAgAAACBUAl9VskOHDt5W6hg8eLB3DwAAAADCgaGSmdSBA/tt1vS/bMO6lV4LAAAAgLAKdHBTVckffvjB20od9913n3cPAAAAAMIh8D1uX3/9tXcvdRQvXpyqkpnU3j27bc7McZHATylmAAAAZC4MlUSmsXPHVtdLCwAAAGQ2gV6A+8CBA+6nFkdMLf369bMbb7wx0y3AvXnjWlu6ZI5t37bJcubKYyVLVbCtWzZYmbJVrFiJsu6YHdu32pJFM2zzpnVuu3CRElapSl3Ll7+g25b4xxQqXNyq12gU+ZcSY7Omj7UKFWvEPZ8sXzrPdu/abtVrNnbz6ubP+dsKFipm69aucO8le/acVqpMxchrlYwcO9e2bF5vsdmzW+kyla1i5VqRpz187WD//n22PPL+165ZHrm/171upcq1LX/BIm6//7zbt2+OPPdyO7B//1Hvf82qxbZg3lT3Hnx16rW0ApHHL1k00zZuXON65PLlL2TFS5Sz8pE/R7Zsyb9uwQLcAID4WIA7fFiAG2ES6B43/TKlZmiTjRs3evcyjx3bt9jCBdOsSNGS1uqM861Rk7Z2MBJgtm/b7B1htnv3zkiwmRIJLoWteev/c7cCkSC0cP7USPDaccwxTVueY81bdYoEozqRIJjb7U+KgwcP2JrVy6xq9fqR93JBJNA1srWR7XmR4KUQqbY69VrZhvWrbF0kpMmhQwdt6eJZLrw1btrO/RmKFS9rCyLvbdfO7e4YUTDNr/cfeV/NWna07Dly2oplcyN/1gORcFjZatZuGglqRd2f7Yx2F7uAuWLZfBc6mzTvYKe37WK167aIBLeyKQptAAAAQHrLcmevZcse6S3KLDZvXmd58uSzsuWruR6s7NlzWJlyVS1X7rzeEeqRW2M5cuSw8hVPcft1Kxs5Rm3rvcqTOkaBplyFapYzZ24XjPIXKBzXK5ZUCkaHHxfjes7yFyhkJUqWs6LFy7g29YIVjASsvXsPD2vcuWO76+krV+EUy5Ezl3s9HZ8j8vpbIn82n3rYSpau6PbruBIlytuuSOjct3+vd8SxDkZCYYz+F3ld3fLkzW958x3pYQQAAADCINDBTfOV7r33Xm8rdfTu3TvTFSfZtWNbJOTkstjY7F6LudCVO3ceb8tc71v8Y3Q/T94Cbqij6JjckbCn4Y0poRAZX2xsDu/esfT6mzettQljf7aRvw9xt9Ejv3G9cvv3Hxn6mDv30c+bPRI6s2U7fo+swuDevbtt8sQ/bPHCGXG9iwAApAVdAOUWnhsQJoGe46bg9s9//tNef/11ryXzSY05bpr/JZpn5tNcr7mzJljJUhXdkMGEjhHN/9q3d49rT+wYUaXGpMxxi35N8dsKFCzmevt8eq3cefK7Nq01t2zpXKtdr4XlynUkbEaLPt63bevGSBibaTVqN3GPO97zKLCtXLHA1q9dGQlz1d0tJZjjBgAAgPQU+EsNLVq08O6lnvnz53v3Moc8+Qq4gh7RhTkO7N9n+/bt87bMDV3ct2/P0cdE7u/auc0FItHzxD/GFxP1/9F27055D5b/+uo5TCu58+SzqtUbWI1ap9rGDatsL0sGAAAAIEQCHdxy5cplPXr08LZSx7p162zAgAE2d+5cryX8Chcu4QqLqNiHCn2oyMfqVUtceXxf4aKlXJBTD5n267jVKxdHHrfbihYr7Y4pUqRUZHuXd8zhIKjhk/qp4ZN58+azDZHQ4z9ePVx+9cmUyJsvvxUsVNQVH9m2ZWPkuQ/Z/n17bdOGNSc1tPFwEZVDcY+J35ms97wj8nei4ZXZUrnoDQAAAJCWYvtGePezhHz58rlKlVOmTLFTTz3Vta1atcpWr17tKk7q5s+Bmzdv3jFtklB7dJsKfih0xm/3j12wYEEkAG1wbYsXL7HJU2a79uRSIRHN/1q5YqEtnDfVleJX6XwV9zhcjKOAK0aiQiEb1q1www5Vmj8mxlwvlL8cgAp+FCyoUv7LXGn9Fcvm2d69u6xIJPRpPpl6xjZtWO0qT65audAV+yhRsrzrvVLhERfm1q90Jff1muK35cqV170n38bI82gentr0PPqpsLZk8ezIn2GKrV2z1PX+HX7tnEcd79PrKjhqWKb+fDkj718l/xcvmmFLF81yvYxaJmDO7Am2aP40V2FSf+bKVeu5uXwpccZpzaxUqRLeFgAAAJC2Aj/Hbc6cOdagQQOvJfVs27bNChQ4HC4U3N577z13v0OHDta0aVN3/+OPP7YlS5a4+w888ID7KVoLTmrXrm2dO3d290eMGGF//vmnu3/bbbdFAtDhMOQfq221i4LboEGD3P36DU61Dz/51t1HeDDHDQAAAOmJ4iQZLLUW4Eb6IrgBAAAgPVEHFQAAAAACLvDB7f777/fuAQAAAEDWFPiqkpUqVfK2/r+9u/mtukrjAP6U0lZooaXSFgHBqlg6aCOimUwIkyGT6AY3LFy5n8SVGRMTdWN0knFpHBPX/gEQknFFYsaEycQJOOpMGKhQkVKUd1p5q31j7jn9FeOEMU5i6Sn38yE39zm/e+7vNoFFv5xzngsAAFCfbJUEAAAoXNHBLTUneeedd6oRAABAfSp+xe3IkSNVBQAAUJ+KD27r16+vKgAAgPpUfHOS1157rRoBAADUJ81JAAAACld8c5JLly5VIwAAgPpU/IqbrZIAAEC9s1USAACgcMUHt+eff76qAAAA6lPRwS11ldy+fXs1AgAAqE+2SgIAABSu6OCWukru2bOnGgEAANSnhps1VV2cFNxefPHFeO+996ord5+jg0MxNTVVjVhMHt3SV1UAADC/BDcAAIDCFR3cAAAA0JwEAACgeFbcFtj09ExVsdg0Nvp/DwAA7oziz7i99NJL8e6771ZX7j6pOcnrb75djVgsXn35hRgY6K9GAAAwv4pfMpienq4qAACA+lR8cNu5c2dVAQAA1Keig1tLS0s899xz1QgAAKA+6a4AAABQuKKDW2pO8vHHH1cjAACA+lT8itv7779fVQAAAPXJVkkAAIDCFR/c3njjjaribnf54tkYOvZ5NQIAAOYUHdxSV8murq5qxN1ubOxC3JyZqUYAAMCchps1Vc0CODo4FK+/+XY1WjhTU5MxcnIwzp0dqdUT0d6xOjY+0B/LWlfEsaOfxMr21bF2/UPV7IiJ727E4JFPYt39D0fnvWvi2tVv4+SJwzF6+Xw0Ll0aXd3r4/6NfdHU1BLT01Mx9MVnce/qtXHh/Om4eOGbPKezsyc29v4ili5tjuPHPouz35ys7h6xYmVn9D/6y5ianLx132TZ8hVx39reWLP2gTxeKK++/EIMDPRXIwAAmF/Fd5V86623qhHz5ebNmRj+6kgOb1uf3Bm/2rErh6yh4/+sBbTx6FjVHZcunsmBbk4KUinzt7V1xPj49Tgx9K9agLsvv/eJJ38bM9PT8dWXh/O9kxTeRk4di+41G2pzno2Bx39d+/sdj69PfxlLGhvjkc3bciBLjx07d8fj234TTbVANzJ8NIe4dN/0eGTzE7GqszvfEwAA6kXxZ9xOnvx+FYb5cf3a1bxitu7+TdHU3BINDUuiq3tdNDU1x9jo+Wjv6IqZmZk8J0lhLG1r7FjVFc0t98TopbPRXHtfz30b8nvTPbrXbKzNv5LvPSeFwVWdPbU5DbFseVus7lobN65fyaHudtLnpHA4uyjckO/d2tYeLfcsn50AAAB1oujgln5h37RpUzVivozfuBqjl8/Fob/vjwN/2Zsffzvw57ylcWpqKoes5a0r8pzZ+ddrgevarZWvq1dG4+yZ4fjrR/tuvf/zf3wUkxPjtcD3fShbtqy1qmalbZQ/pnFpU6zf0JdX9z775KO8Yjc58V31KgAA1A9n3BZYCWfcLp7/Ok4Nf5HPlLW0LKuu/lDaKnn61PHo69+W6xTiNm3eFo2NS+P44Kd5zsN9W/Pzf0sral8cORTdPRvi3q611dXZzz13djge6X/yR++T/oleuzoWp0eOx7djl6L3wS2xuntd9erCcMYNAIA7qfitksy/e5a15ecb167k59tZsXJVLFmyJAenFNrSebYUtpK2FbPn3CYmxvP455a2VqbP6KsFvA0b++LC+ZGYnpqsXgUAgLvfoghuo6Oj8emns6sx/PyWt7bFyvbOGD45GFdqwSytcE1NTuTvVRu/cS3PSdsaU5OQtEKWtk+mek5HZ08+Azd84kjuNpnen96XVtRSk5KfKgXIFP4mJ7+rzrX9UGqecv36t3kLZWpoAgAA9WJRbJU8ePBg7NmzJ9rb2+OVV17J1yYmJuKDDz7IdWtrazzzzDO53r9/f1y9OtsQY9euXdHc3JzrvXv35udk9+7d+fnw4cMxODiY661bt0Zvb2+ubzd3bGwsPvzww1yn75bbsWNHrvft25dDSzI3N7ndPQ4dOhTDw8O53r59e/T09BTzdQBpO+PXI0P5rFpqGJKajqyshbPehx6rBarZs2npLNvRfx/M7f8ffPixfG1OCmqpM+Xly+dyJ8oUwlKDkw0bN8fN2p+fslUyrdp9eezzfKatta2jdn1bnDp5NC6cO51/vvQzzX2FQPP/2NJ5p9gqCQDAnbRoz7il4JZCWtLU1PSD4JZeS55++ulbwW0u5CUp0CUpuJ04cSLXW7ZsuRXcbjc3BbcDBw7kOgXIueB2u7nJ7a6n4HbmzJlcP/XUU0UFN/4/ghsAAHeS5iQLTHBbnAQ3AADuJM1JAAAACie4AQAAFE5wAwAAKJzgBgAAUDjBDQAAoHCCGwAAQOEENwAAgMIJbgAAAIUT3AAAAAonuAEAABROcAMAACic4AYAAFA4wQ0AAKBwghsAAEDhBDcAAIDCNdysqWoWwNHBofjDH/9UjVgsXv7972JgoL8aAQDA/BLcAAAACmerJAAAQOEENwAAgMIJbgAAAIUT3AAAAAonuAEAABROcAMAACic4AYAAFA4wQ0AAKBwghsAAEDhBDcAAIDCCW4AAACFE9wAAAAKJ7gBAAAUTnADAAAonOAGAABQOMENAACgcIIbAABA4QQ3AACAwgluAAAAhRPcAAAACie4AQAAFE5wAwAAKJzgBgAAUDjBDQAAoHCCGwAAQNEi/gMikDmoioZeRQAAAABJRU5ErkJggg==;" parent="1" vertex="1">
          <mxGeometry x="1280" y="280" width="709.13" height="609.78" as="geometry" />
        </mxCell>
        <mxCell id="JhqW3P9DHBe0ouiO6Wt8-11" value="Containers" style="text;strokeColor=none;fillColor=none;align=left;verticalAlign=middle;spacingLeft=4;spacingRight=4;overflow=hidden;points=[[0,0.5],[1,0.5]];portConstraint=eastwest;rotatable=0;whiteSpace=wrap;html=1;fontSize=13;fontFamily=Helvetica;fontColor=default;" parent="1" vertex="1">
          <mxGeometry x="100" y="70" width="80" height="30" as="geometry" />
        </mxCell>
        <mxCell id="JhqW3P9DHBe0ouiO6Wt8-12" style="edgeStyle=orthogonalEdgeStyle;shape=connector;rounded=0;orthogonalLoop=1;jettySize=auto;html=1;entryX=0.5;entryY=0;entryDx=0;entryDy=0;entryPerimeter=0;labelBackgroundColor=default;strokeColor=default;align=center;verticalAlign=middle;fontFamily=Helvetica;fontSize=11;fontColor=default;startArrow=oval;startFill=1;endArrow=classic;exitX=0.25;exitY=1;exitDx=0;exitDy=0;" parent="1" source="JhqW3P9DHBe0ouiO6Wt8-3" target="JhqW3P9DHBe0ouiO6Wt8-6" edge="1">
          <mxGeometry relative="1" as="geometry" />
        </mxCell>
        <mxCell id="JhqW3P9DHBe0ouiO6Wt8-13" style="edgeStyle=orthogonalEdgeStyle;shape=connector;rounded=0;orthogonalLoop=1;jettySize=auto;html=1;entryX=0.5;entryY=0;entryDx=0;entryDy=0;labelBackgroundColor=default;strokeColor=default;align=center;verticalAlign=middle;fontFamily=Helvetica;fontSize=11;fontColor=default;startArrow=oval;startFill=1;endArrow=classic;exitX=0.75;exitY=1;exitDx=0;exitDy=0;" parent="1" source="JhqW3P9DHBe0ouiO6Wt8-3" target="JhqW3P9DHBe0ouiO6Wt8-7" edge="1">
          <mxGeometry relative="1" as="geometry" />
        </mxCell>
        <mxCell id="JhqW3P9DHBe0ouiO6Wt8-14" value="amqp" style="edgeLabel;html=1;align=center;verticalAlign=middle;resizable=0;points=[];fontSize=11;fontFamily=Helvetica;fontColor=default;" parent="JhqW3P9DHBe0ouiO6Wt8-13" vertex="1" connectable="0">
          <mxGeometry x="0.1067" relative="1" as="geometry">
            <mxPoint y="1" as="offset" />
          </mxGeometry>
        </mxCell>
        <mxCell id="JhqW3P9DHBe0ouiO6Wt8-19" style="edgeStyle=orthogonalEdgeStyle;shape=connector;rounded=0;orthogonalLoop=1;jettySize=auto;html=1;entryX=0.5;entryY=0;entryDx=0;entryDy=0;labelBackgroundColor=default;strokeColor=default;align=center;verticalAlign=middle;fontFamily=Helvetica;fontSize=11;fontColor=default;startArrow=oval;startFill=1;endArrow=classic;" parent="1" source="JhqW3P9DHBe0ouiO6Wt8-1" target="JhqW3P9DHBe0ouiO6Wt8-2" edge="1">
          <mxGeometry relative="1" as="geometry" />
        </mxCell>
        <mxCell id="JhqW3P9DHBe0ouiO6Wt8-5" style="edgeStyle=orthogonalEdgeStyle;rounded=0;orthogonalLoop=1;jettySize=auto;html=1;entryX=0.5;entryY=0;entryDx=0;entryDy=0;startArrow=oval;startFill=1;" parent="1" source="JhqW3P9DHBe0ouiO6Wt8-2" target="JhqW3P9DHBe0ouiO6Wt8-3" edge="1">
          <mxGeometry relative="1" as="geometry" />
        </mxCell>
        <mxCell id="JhqW3P9DHBe0ouiO6Wt8-18" style="edgeStyle=orthogonalEdgeStyle;shape=connector;rounded=0;orthogonalLoop=1;jettySize=auto;html=1;entryX=0.5;entryY=1;entryDx=0;entryDy=0;labelBackgroundColor=default;strokeColor=default;align=center;verticalAlign=middle;fontFamily=Helvetica;fontSize=11;fontColor=default;startArrow=oval;startFill=1;endArrow=classic;" parent="1" source="JhqW3P9DHBe0ouiO6Wt8-7" target="JhqW3P9DHBe0ouiO6Wt8-3" edge="1">
          <mxGeometry relative="1" as="geometry" />
        </mxCell>
        <mxCell id="JhqW3P9DHBe0ouiO6Wt8-20" value="Keycloack" style="rounded=1;whiteSpace=wrap;html=1;fontFamily=Helvetica;fontSize=11;fontColor=default;" parent="1" vertex="1">
          <mxGeometry x="440" y="205" width="120" height="60" as="geometry" />
        </mxCell>
        <mxCell id="JhqW3P9DHBe0ouiO6Wt8-23" style="edgeStyle=orthogonalEdgeStyle;shape=connector;rounded=0;orthogonalLoop=1;jettySize=auto;html=1;entryX=0;entryY=0.75;entryDx=0;entryDy=0;labelBackgroundColor=default;strokeColor=default;align=center;verticalAlign=middle;fontFamily=Helvetica;fontSize=11;fontColor=default;startArrow=oval;startFill=1;endArrow=classic;exitX=1;exitY=0.25;exitDx=0;exitDy=0;" parent="1" source="JhqW3P9DHBe0ouiO6Wt8-3" target="JhqW3P9DHBe0ouiO6Wt8-20" edge="1">
          <mxGeometry relative="1" as="geometry" />
        </mxCell>
        <mxCell id="JhqW3P9DHBe0ouiO6Wt8-22" style="edgeStyle=orthogonalEdgeStyle;shape=connector;rounded=0;orthogonalLoop=1;jettySize=auto;html=1;entryX=0;entryY=0.5;entryDx=0;entryDy=0;labelBackgroundColor=default;strokeColor=default;align=center;verticalAlign=middle;fontFamily=Helvetica;fontSize=11;fontColor=default;startArrow=oval;startFill=1;endArrow=classic;" parent="1" source="JhqW3P9DHBe0ouiO6Wt8-2" target="JhqW3P9DHBe0ouiO6Wt8-20" edge="1">
          <mxGeometry relative="1" as="geometry" />
        </mxCell>
        <mxCell id="JhqW3P9DHBe0ouiO6Wt8-21" style="edgeStyle=orthogonalEdgeStyle;shape=connector;rounded=0;orthogonalLoop=1;jettySize=auto;html=1;entryX=0;entryY=0.25;entryDx=0;entryDy=0;labelBackgroundColor=default;strokeColor=default;align=center;verticalAlign=middle;fontFamily=Helvetica;fontSize=11;fontColor=default;startArrow=oval;startFill=1;endArrow=classic;" parent="1" source="JhqW3P9DHBe0ouiO6Wt8-1" target="JhqW3P9DHBe0ouiO6Wt8-20" edge="1">
          <mxGeometry relative="1" as="geometry" />
        </mxCell>
        <mxCell id="JhqW3P9DHBe0ouiO6Wt8-24" value="Prometheus" style="rounded=1;whiteSpace=wrap;html=1;fontFamily=Helvetica;fontSize=11;fontColor=default;" parent="1" vertex="1">
          <mxGeometry x="540" y="320" width="120" height="60" as="geometry" />
        </mxCell>
        <mxCell id="JhqW3P9DHBe0ouiO6Wt8-27" style="edgeStyle=orthogonalEdgeStyle;shape=connector;rounded=0;orthogonalLoop=1;jettySize=auto;html=1;labelBackgroundColor=default;strokeColor=default;align=center;verticalAlign=middle;fontFamily=Helvetica;fontSize=11;fontColor=default;startArrow=oval;startFill=1;endArrow=classic;" parent="1" source="JhqW3P9DHBe0ouiO6Wt8-26" target="JhqW3P9DHBe0ouiO6Wt8-24" edge="1">
          <mxGeometry relative="1" as="geometry" />
        </mxCell>
        <mxCell id="JhqW3P9DHBe0ouiO6Wt8-28" value="Entity" style="rounded=1;whiteSpace=wrap;html=1;fontFamily=Helvetica;fontSize=11;fontColor=default;" parent="1" vertex="1">
          <mxGeometry x="780" y="385" width="120" height="60" as="geometry" />
        </mxCell>
        <mxCell id="JhqW3P9DHBe0ouiO6Wt8-29" value="Repository" style="rounded=1;whiteSpace=wrap;html=1;fontFamily=Helvetica;fontSize=11;fontColor=default;" parent="1" vertex="1">
          <mxGeometry x="884" y="610" width="120" height="60" as="geometry" />
        </mxCell>
        <mxCell id="JhqW3P9DHBe0ouiO6Wt8-41" style="edgeStyle=orthogonalEdgeStyle;shape=connector;rounded=0;orthogonalLoop=1;jettySize=auto;html=1;entryX=0.5;entryY=0;entryDx=0;entryDy=0;labelBackgroundColor=default;strokeColor=default;align=center;verticalAlign=middle;fontFamily=Helvetica;fontSize=11;fontColor=default;startArrow=oval;startFill=1;endArrow=classic;" parent="1" source="JhqW3P9DHBe0ouiO6Wt8-30" target="LPhZucbt2zR15aocdCSv-1" edge="1">
          <mxGeometry relative="1" as="geometry" />
        </mxCell>
        <mxCell id="LPhZucbt2zR15aocdCSv-3" style="edgeStyle=orthogonalEdgeStyle;rounded=0;orthogonalLoop=1;jettySize=auto;html=1;" parent="1" source="JhqW3P9DHBe0ouiO6Wt8-30" target="JhqW3P9DHBe0ouiO6Wt8-42" edge="1">
          <mxGeometry relative="1" as="geometry" />
        </mxCell>
        <mxCell id="LPhZucbt2zR15aocdCSv-6" style="edgeStyle=orthogonalEdgeStyle;rounded=0;orthogonalLoop=1;jettySize=auto;html=1;entryX=0.25;entryY=0;entryDx=0;entryDy=0;exitX=0;exitY=0.75;exitDx=0;exitDy=0;" parent="1" source="JhqW3P9DHBe0ouiO6Wt8-30" target="JhqW3P9DHBe0ouiO6Wt8-29" edge="1">
          <mxGeometry relative="1" as="geometry" />
        </mxCell>
        <mxCell id="UfJdWlm_zbCe48178-TH-3" value="GET Flow" style="edgeLabel;html=1;align=center;verticalAlign=middle;resizable=0;points=[];" parent="LPhZucbt2zR15aocdCSv-6" vertex="1" connectable="0">
          <mxGeometry x="-0.4349" y="1" relative="1" as="geometry">
            <mxPoint as="offset" />
          </mxGeometry>
        </mxCell>
        <mxCell id="JhqW3P9DHBe0ouiO6Wt8-30" value="Service" style="rounded=1;whiteSpace=wrap;html=1;fontFamily=Helvetica;fontSize=11;fontColor=default;" parent="1" vertex="1">
          <mxGeometry x="970" y="260" width="120" height="60" as="geometry" />
        </mxCell>
        <mxCell id="JhqW3P9DHBe0ouiO6Wt8-40" style="edgeStyle=orthogonalEdgeStyle;shape=connector;rounded=0;orthogonalLoop=1;jettySize=auto;html=1;labelBackgroundColor=default;strokeColor=default;align=center;verticalAlign=middle;fontFamily=Helvetica;fontSize=11;fontColor=default;startArrow=oval;startFill=1;endArrow=classic;" parent="1" source="JhqW3P9DHBe0ouiO6Wt8-32" target="JhqW3P9DHBe0ouiO6Wt8-30" edge="1">
          <mxGeometry relative="1" as="geometry" />
        </mxCell>
        <mxCell id="JhqW3P9DHBe0ouiO6Wt8-32" value="Api" style="rounded=1;whiteSpace=wrap;html=1;fontFamily=Helvetica;fontSize=11;fontColor=default;" parent="1" vertex="1">
          <mxGeometry x="950" y="170" width="120" height="60" as="geometry" />
        </mxCell>
        <mxCell id="JhqW3P9DHBe0ouiO6Wt8-33" value="Event" style="rounded=1;whiteSpace=wrap;html=1;fontFamily=Helvetica;fontSize=11;fontColor=default;" parent="1" vertex="1">
          <mxGeometry x="1130" y="450" width="120" height="60" as="geometry" />
        </mxCell>
        <mxCell id="JhqW3P9DHBe0ouiO6Wt8-36" value="" style="shape=image;verticalLabelPosition=bottom;labelBackgroundColor=default;verticalAlign=top;aspect=fixed;imageAspect=0;image=data:image/png,iVBORw0KGgoAAAANSUhEUgAAA2QAAAEoCAYAAAA37TL2AAAAAXNSR0IArs4c6QAAAARnQU1BAACxjwv8YQUAAAAJcEhZcwAAEnQAABJ0Ad5mH3gAAIixSURBVHhe7d0NfBTF/T/wjyhaVFAJKE/WBP8kPAhSCRaoIAmPVfERRMEfKqAgPpWiMUoUqREpSqkPRVECSIWKIKioBZEEUIFKQORJEkoOKk+CoQpoiij8Z2Zn73b39u72Lhfy9Hn7Osnd3u7O7s7Mzndndu+UEwKIiIiIiIjopKuh/yUiIiIiIqKTjAEZERERERFROWFARkREREREVE4YkBEREREREZUTBmRERERERETlhAEZERERERFROWFARkREREREVE4YkBEREREREZUTBmRERERERETlhAEZERERERFROWFARkREREREVE4YkBEREREREZUTBmRERERERETl5JQTgv7b1eHDh3HkyBEcPXpUvT9+/Lj6l4iIiIiIqDqoUSPQj3XGGWfg7LPPRu3atfUnpRMyIPvpp59w4MAB1KxZE+eccy5OOaUGjoeP3YiIiIiIiKqsGqecghMnjuP777/DsWPHUL9+fZx++ul6amxcAzIZjO3atQuNGzdWKzhFrJiIiIiIiIgggrITKmbavXs3mjRpUqqgzDUgkwuuV68eTj/jDDAUIyIiIiIispNB1E9Hj+Lbb79VHVmxCnqoh7xnTEZ4qmdMf0ZEREREREQBMlYy4yYZQ8UqKCCTD/A477zzOEyRiIiIiIgoDBkzydhJxlCxCgrI5NMUa9Q4Vb8jIiIiIiKiUGTsZD6RPhZBAZl8rP0pNdg7RkREREREFImMnUrz02BBAZnEcIyIiIiIiCiy0sZOrgEZERERERERlb2gx94XFRWhadOm+l3pyMfnL1q0CBs2bMDWrVvVM/rbtm2L7t27o0WLFvpbpZA/DRlvbdVvDM1vnoDBqfpNOfl8WgbmoS8mDL5cf+LF5/g8/3JcLtO+532M/+smXPKHTFzTyJjqFNs6AtT8atc1R7vmW7HWXJaHdRMRERERUUBpYqgy6yH75z//iVatWmHo0KF44YUX8NFHH2HatGl44IEH0Lp1azz66KP43//+p78dvd0Lx4tgDOg7YQImmK8/dMH+tzIwfuFu/a3K4nNMy5iHTfqdF5cPFtsbYzAmg67crXXR5Q9yvw1G/9Isi4iIiIiIYlYmAdm4ceNw1VVX4dChQxgxYgQ+/PBD/Pe//8WXX36Jv/3tb/j1r3+N8ePHo3379jE+InI3vthyEHU794ItjGh0Df6vc10c3PKF+AaFtGc/DuJ8nM8eMCIiIiKichX3IYvLli1DWlqa+rXquXPnomPHjnpKwI8//ohRo0bhlVdewXXXXYd33nlHT/FqN97/8/NYUd/bkL3A8DxJ9gxZh+PpZRXrt0pz9J0w2Aj21BC+/bik836s+OQgkNAFDz5yDRrrXq3AgMnAPMZwwi7ocmBFYLnNQ6XVsRz5vd77jWGDnc8X6zSn2NNtH7Lo3AbnNgbInsXn5XZodTs/iPQDzweW5TJkMfz+IyIiIiKq3koTQ536pKD/VmRPlvxxs1jIHjEZjMmASw5R7NChg55iV7NmTVxzzTVYvXo1PvjgA3Tq1AkXX3yxnupFHST/6mssWb4CS5YsEa+1ONrqCiTX1pP9ZKCSjX+eJYKNjDvQo0cP9DivEFNzFvu///k0x/Qe5+DrJSKQ+voc9PhNY+BwIT5dvRZbz7za+M4VyWLtOoiSwZOe75yv/4F5Hx1FSzH98BdLsGXrTtTqMwEZt+tl/mMeFv+vJa5IqaPTZmqM36h1bkG9m8X3rzbXuRVbf2iJB8fei5vE8lv+71O89VYhzunxGzGH2DK5DrRUaXRug/ru0u9UWpxrq5NyhdgHYt9tricCyAz0F+mxLstY936c30Hun8j7j4iIiIiouitNDBXXIYvz5s3D3r17ce+99+K3v/2t/jS06dOnq1+3njFjhv4kCqmDMWHCg+iSIN8cxIq/ZiAjQ76miXBJ2/MFNhU3R19rz5SYr29z8f1FxreC78W6HJc0139aNG9j+U7+JmyVPWKW+dRyVM+ZltAFvfwPFzGWefBAdAMpm3cLLK9xu0tQF/uxf4/+wG839h/Qf2qN+2Ta0xIrD/uPiIiIiIhiF9eATN4jJnXu3Fn9G0nDhg3RrFkzLFiwIMZ7yRrjmkfkgyn062YZSW3FvD+/L8IUQd0rJd6rQC3wCgy/C1APCQk5va7tfqvde/eLgOv88AFP/QjTI7KvMzSxD7qJ7d46T6d/PN4PCtpiFMX+IyIiIiKi6MU1IJNjJ6WWLVuqf72QT2KUT1v8z3/+oz8pBdlrJoOy4k34QgQlKnBS93ZZgjbzpXt95P1RMsh4/pPz/d/r69JDVqGp3kKZdtljaPYWlj4w87L/iIiIiIgodnENyBo1Mrp0du3apf71Qg5xlM4//3z1ryfy98dCBRyNzkdd/WfjhnKZbsP8TJ9j01YRctwsgwz9EA+XIYBOarnF+41euArF7DE0ArNNa0uXwsj7j4iIiIiISiOuAZkcfiitWbNG/RvJ8ePHsXbtWnUfWUKCuhnMm9ReuifIcr+Y9vmiFTjYPN14CqD5vb/rIYyKfCCH/bfK9u+1TJ3mfOKii9RL0BxbkWv9vTMVJAanx5vGOF9svjUd3skHb2QgY5plzerer7q4pF0p7yLzuP+IiIiIiCg2cQ3IbrrpJvUExalTp+KHH37Qn4b24osv4tixY+jXr58KyrwzeoIe7Lw/6P6m3PoPWobTye89iC5Ygef935mH/Z0fRGYfGaxcjsF/6AJ88rx/fvn49wc71wW2bgoTXIn5JvTF+Zb5jB+pNnvZotUYv2lZFwfl8sz73zyT29gXzf33kInXX1fg/Jvj8Wj6SPtPMgJCW4AmH53v6MFU9+hFvW1ERERERFVb3H+HbOTIkfjrX/+K2267Da+//jpq1HCP+TZu3IjLL78ccvXbtm3DhRdeqKcQERERERFVHqWJoeLaQyY98cQTqFevHt544w107drV9WEdL7zwAtq3b68e5lG/fn2cddZZegoREREREVH1EfceMunrr7/Gtddei/Xr16uhiA0aNEBiYqL6wTQZoMkfjpbkgzz279+P3/zmN1i2bBnq1HH+jDEREREREVHFVqF6yCQ5/HD16tUYPXq0eqy9fJLiqlWrsHXrVhWMycfiL1++XL2/9NJL8cUXX+D3v/+9P1AjIiIiIiKqDsqkh8xJ9oJt2bIFdevWRePGjW1PVJS9Zunp6ao3rXv37vjggw9w+umn66lEREREREQVW4XrIXOSQxPl/WRt2rQJerz9eeedh7y8PDVs8eOPP8ZDDz2kpxAREREREVVtJyUgi+Tcc89V95DJx+Zfdtll+lMiIiIiIqKq7aQMWSQiIiIiIqqqShNDuQZkP/yk3xAREREREVFYZ52O+AZkFaGHbOPWIjRL4o9FU9nZ5vuaeYwqJObNionHhaj0WI4qLh6b2Ml9V5qArELcQ0ZERERERFQdMSAjIiIiIiIqJ/EPyPJn4o+ZY/HH6Wv0B0REREREROQmrgHZv6aLQGxjPXS1/9QYERERERERuYhfQJY/E0vqD8Ff7myjPyAiIiIiIqJw4heQpQ5C1jVN9BsiIiIiIiKKhA/1ICIiIiIiKieVNyArmoE7f9cRV1heva+/FQ9OmodNB/V3iGKyAzPvsOct+2sMlstvzbob6T3uxptFxlwnVe4YlZaxufp9Kaz6c09jux5biCP6syrhl0LMvOdKXNHjdoxfXIiDueNw7bhlemLVUbWOny57d8wQf1VCulw6X/Eop0TVzsF8vPnk3bi2ty5LPa7B8CdnY62HNt6R5ePQr8eNGL/8sP4ksljmicXyJ+X2GO2ISieo7X0lrr17HJbs/El/oXR2TL9dLPN2zCzTdlXFPM9U+h6yhj3ux5gnxuK+gX3QMfEoNs6biOHXi4O5TX/Bg4PLX8SDA3piPE+apCSg49CxKl/J1y3qtsjWuEW/H/NEHySLT4qLv8VPR48iPtVQOfllJZbLk8+p4u/ly7CsbM9DJ9eahZhX7yG898JA4B934don85GW3lVPrCKq8vGrxC7pH6g/5OuaFnpCGeO5jKqMbTMwvP/9eGlJARIu7YNrrhavyxJQuETk8f53R2zj/fR9MYp/jO7sHMs81ZXZ9h45tCsSfAsx9v9G4e29eiLFpNIHZGdf1Ak9evXELSMew5i/zseiqXegGQrx6h8nYtUv+ksRHCrKx9qdh3FUv6fqrjaaXdFT5Sv5an2B/KwhWuv3PXqlindAuwfm49MVr2NQbD/KXjEsX4z3v6+Nm27pi7OxEksWF+sJVUCHUXjvqT6o26InMmcsF8dqPkZ20NOqiqp8/CqxhpcE6g/5aicrjJOA5zKqGnZg5tNTsOloMgZNXYLpf34MmY+J159fN9p4Rzfi1afD927UvXYicj97H5lX1tafRBbLPNWV2fa+6c6xmD6mD87+JR/vL6qU4xoqjCp3D9npLYZhzJ3JwMHFWG3+FNreZZj0h1txbQ+jizW9/yjMXGdcSpZdx7dNLVR/L3lcTtfdyIc34m1rV3nv2zF+CcN/CnB2rfvfr1uJSUP1MDKXfHNwzQw8PEBP79ITt/3hRSyPMARj23tjcKfOi72HTsSq7/UEi592foTx5nrl0I4/f4S9YS9KHMb7H38EnNMLHUZ0RK9zgLXL8+BMysHlEzG8z5VqubLsvD31UfX3ndN15auHaY2eOg8P95ff02Xol2KsnT4K/XS56z0gUO6Unwrx5iO3oncXYz/cOWk2JqmhooGhHHtzJ+LB/7sG6XKbfncl+j0yA2ut2/7LXiyZdD9u85fTW/HSOmNSxHl/2oElfxZl3KwX+tyNsQsKK1GPZxU4ft+vxEt/uNGY3uNGPDyvEP/Tk/wiHqdlGCvnf3wK3n7EWFbFGyJYjLfvl+kfhfctu/DIB8axGP2B8WG4MmzWL68uD3xHHU/dUxDyXCao5d4dOA7X3j0Gb3/FngCqoFa/jdkiXycOfAh3tzhdf2iQbbz7bmgoT4p4f4P8xBx+NhFvTrpd1UeqbnMZ1u+1LvTPY75fkI+Zum6R5/RJn1oKcZj2pfJLId5/0kiXUU+uxLd6kp+ua63nsQcnL8NB//k7xDZWFB1T0U78s22nTNNhbJo3BsOvD7Rx7vTXY6JtdJX47CrRhpFvtYPz7hff7Ynxn+oPHCK1meJynqkA4heQ7fkQ2fIHoTNzsExepC340PiB6Gc/xG7jGydNYjvZg3EYGwp1hv1qJTac2wv3T/wH3nj5fnT8cSVezXpR9aAlXzsW9/UwLl8aw0yM4Wg4sBarv0nBgCdfx3tTn8FNTWShGoM3GZNRWHsxb9wUHO3xEMY8dAc6ni3zzR/x6mZjqhyjfscfpmDt6V1xnxzOdG9XYN1sjL49dI/ukSWP4n5Roe1s0EfNc1f7HfjLJNEQtyqagWH/NwYrz74JT0/9B14Z0Uk09sZgmKj8Qzq8DKtkBXh5O3REJ1x2ufh73Uf4yJrHt03BqMfmYdMZqRj00Fg8emMCFsx0vw9r+fxV6DBhCT79bCyuFOVv+Z9vx4PT96DdiFfxhihDN55fgFf/8Jge1nAYS566Dy99ugcNr74fY0bfjY47Z/sbl6bCNRtQN/0BvDBbbNMDnXD00ykY/Yq5TWIdT92FsfM2oGaHYRgph0/c0Eh+rISfV5zgRtyKsR98i5S+o0S5H4VbLt6DJc/dLirrSlLIK/vxEw2VVx8chTdFAN1ukDgGD/VFwvynHfcORHGcct/G6vZ/waLPVmFMuv6swkhA2pWp4t+VWGteKBTWrhHH4tSu6NiltscyvBfzpyxE3atF/fJAHzTaKxo4Y6Zgk5gS8lyml/v+wRTcIvLAmIcGIGnvR5g0jEOMqGLaUbgBR0QrrkPH1voTu3aXys/3YucOS+CzbR4W437MzluF6Xcm6g8toqgLnVZNexV7LhuOR8U5vV3NQrz92LjAhZUw7UtVTz55H8Yv2WGpJ5/DJNsFI13XTs1HzTR9C04XUTfMehR3OM/fkbaxvBT5sFP8k9hEnH9RjHWr9iLl1icx/Z3X8fS1DdUF5bGq8dwJPa4T6f7+M6xVwbR0GCvX5AMN++CaK/RHFl7aTKU/z1QM8QvIGl2FrPFj8Bfn6+Gr0Fh/5aQ5uzbOlv+aDdz0xzD9yTvQo00iEtsMwB0qQxSIaF7kgct6osNFRve0MczEGI6Gpnfg2ZfFyb9DMuq26IqR/eW9JxtR8JWcSBTKYaQMegmZ/UVeumEYnh17BxJFo3LJ8o1i2l68/+ZCHDynD57OeQy3yOFM/R/DKw91kpeIMF9fJbfbgfmzluGIZZ6bhr2ITHmF0GLV3NnYdnYfPDpxGK5skYhLbngMt18pFpu7ynYlyupI3jIsF2WkRxfjvqoru/QU/9+IZbmBVtryuTOwDa1x34sTcfcNOr0jRXpdNOt3P266SF/N3LsQ//igGJcM+4tIa2skijJ09719kPhLPlZ8VgzsfBuzcw/j7GufwfRHBohy1xd3T3wSN9k3C1c+8jrG3NkTl1wktqn/nbimqUj3V4VirwirX8UzS4qROPAlVb5vUvtmIu4T2y2FnffT2ZgtyvIlw/6GZ4f11et/BrdcJE6Eb4qTtlpCxVbpj9/yWeo+kMAxGIBM2aAx620pmuPUbADu7ZsI+/X08mH0UJkvo6eqrsifHeW0FboR+MsycazE6UreGyNOQd7K8GG0GzjOfyzvkoHnzk0oOBD6XKaW+4slD4h66fmnB6hj+eYCWS8RVTCqDqiNOqoh5yIxCc3EP98WW4Zon9oTdzyQirryfloX0dSFTvWuud9/Th95Y7JI31ps0xdZw7UvUeRWTz6Gm843ZlV0XRv4Tk/c8tiryBTBycEFb9t61CNtY7n4cSNmvvC2qNMT0aWjvASUiEETXxVt5k5oVj8ZV44cCHlK3rStQH39kh69xLHbi9WrdN1zWJzHPhVz9eiKS4xPLLy1mUp9nqkgqtyQRWV/sTiMohAlJBjvf9qB5dMn4uG7b0S/63t66+r9pRibFryIsX+4Ff36XoP0J71dSaHqLhmtL7GMP2+Vok4ce0WeBApQIK8KXd4JHS0V6tmXtA4+ufjtgE/2OrRLtc1jXCE07cC2r0TF9P1CPCyHReiGoBp28f2hEEPwirF4ibyC1Ant2hufoL1Yh/hn05LFRkUm/r9TjoBq2s52D8zZYt0yvU6JojL0+6pANZY3Tb4x0DDVTzQ6dFikdbtPnBzFdlxmOSGemorLHDXyTzuXYeakURje90Zc29v+5KUdX8mrqOIk0MP9KmrYecXJ4Yg4Vp06Wjbs1NZoLc8ne78Ve6eiqwLHTw1vScRll1sSd04qWlsSF9VxShQNIv1nebM/1EP3VNXuiivlFeDP1xoB1qqVWPVLbXT9ndyHXstwMlJaBOqXiy6SSz6EH4x2iQu93Gad0MGyC9HGyANGvURUER3GoVCPjd1h1D+NmlhKfNMkXBQyUImuLnRq1ixwjjHqSZG2H433YduXOp1h60ld13Zsb/mOCEYvaS7L9rc4eMD4RAm7jSfXtqm3GvVUj7vx6rrT0W7kWNzdyph2cPM8vPTk/bhN1fuBodNK017o1UbsmlVr1fnkyApRD4p6rafredxbm6m055mKokoGZGtXfaZO4kbDeC/eHnUrRk/PR0K34fjjM//A8wMjn7ZXTbodw59bjIMtbsJ9T7yEeQ8ZV6GJovLLT/G5J+lUx3V/sdwgTQfg+Xfex3u210OqkR5k72IsUfdarcR4/7j1cUZDcdtifGRe/ZNOPQM19Z/KkcOifHlz5UPO9LyPif0D5e9028nlMA6X6D+lvfPw8P89ilfXJKDrXQ9h4t9fxC1BD1A5Hb9yO0F5mrcSq7LH7yf8rwJeuYyW/aEeetSFaGR1lb2Z3y/G6tXiHLNa9nz3MoI0UzRlmKiKSmzRBmdbe1Ec1n4pP09GysXGe89KURe689a+tNeToparCnWcfsrimCcmYvqS9/F8X3XZCVg9EXfcPREffXcJbrh/LF6YPUr1kAU0RM9uqeI8tRKr94pjKYdtt+mFHrGen6vQeabKBWQHl4/D+Hl7UffqO3GjPCgHPsMK2XBJH6a6nDu2SMBPhyNdFRQZJVd8p1lfjBzWF1e2ScTRH3klkbzYiz179J/SqnysFf80U1fVEpEkr8p8Lq+My4mGI5s2Glf7ztc9ujYJSJCtuU1rsdYyz6p1cqmmRKjFF4nl/JyAuvWtr9quQ7j25i5TV+WaXSvvy7Fcze8vr1LtwIpP5QlPzC+fMLlto+0G2b0bN6oe6LD0kJK1hQWO9IjXmWJCvXqqkbrpy3z5bcMvGyF2hd/Bz5arbe4xVA5V6IRmdX/CEUsxNK5UFiJvueWKpOZ13pWrLFsi1r9RXkW9qJHY8oqtKhy/egn1xP8LsfFLS/fO3nyss1zdrOzHyensLp1w5amHsXLdDHGOOYyG1xjDGMWWRl2GvdHL1Y0fvw1GnZPYsLLtQaoW2vfENReJmmzWc3jV8fCZn76agpcWiMx8WZ8oGvGiHMVaF4YTqX3pWk+uxFrb6duoa1etsd4vdhibtopK7tRGovzrjyoY8ymLPWTdLs8J2qpPF+OgCJb7PjAMN13ZGok//xQ04kQO377y1I1YlTtPDdtu162XvmjlFLnNFI/zTEVR6QOyIzvlo54/wtvTJ2LsPTfi2scWorjNMEx8pKtxH1ndesZ427WLMXP5Miyf/ij+4rhXxxyqs/bjGVgyfaFoQIsTvRzjW5SHBYvFPAvEsmdYWhpEIR3G+3+9H68u+AhLFkzBg39eiCOndsJNN8o8logbB/VE3e8XYvSQcXhT5Nslc8Zh+HOiIm4xDHf0tgx19GuNa65OFhXIPIwdNQVvi3ne/PPtGOvIw1f27ou62IiX7h8l1i0qr9WyTIzB2FnBwYpssC9ZIvNzKq4ZLMdUW67m39lHVJTiG0tkg782uorP5OPUJ91jpPftKaPwgJey0LQXrrlMlM/3HsWdf56N5atXYvni2WI5LxrDF9r0QR9R0e6d9yQenDJPlOHZGD/kSbxvuVxZt25d9a8sl8tF2Z35+HO26bhyIO5uIc6xU+/D8EmzjXpApO8lsQKv826aci8eVuufh1dHPYo3dyaIin2Ay1j2iqRqHL+z00SD6hxxAp90N8bPMcrLw38wHlDhV0mP095NYntk+davVdt0ea3dFR2vENPfFGX5+0T0EA0WU3Rl2F3wuUzuwmFoJho/xnKN/fzg6NnYUbcn7rrFbZgQUTk7tTXuGyvyrWhIzxx2De58ZBzGjxuHsX+4Eb2HzsC2c3ri6ey+IRrxbkpRF4YTqX3poZ5E05twR48Ef10r64s3x4k68VOg2Z13qvtLK5OG6gpyIfLmfyTq/XmY9CdHnS7penDtrFdFoCUDu1AXhiK3meJynqkgKn1AtnfJixj7pzGYNPU9rD3SGDc99CrmvXSHOAHpL5zaFaPG9UWzY8vw6mNj8NLWdrh7kO5aNYmT/sgrGuLI8ikYO0c+TjkRg0aPQseGO/D2nx7FMx8At4+QN8wTRZKMQcOuxLY3n8bY52agoHYn3DflGVwjKgTp7PSxmPJkX7QuWYyXRL4dO3Wl+GwUpk+25FmHxEF/wdN9k/HTuhmY9PRzWIyBeNSZhzuMwoxxA9Du9I2Y+dwoPDzqabyeewRJrV0qus2L8ZG8vHRFT/RyXn3TFaW80XjJapne0XhxRCc0PLBQpPdpvFnUGpm6LPjv0XTVEDdNfB0je6Sg+OMXMXrUKIwWQVNBYmuxhyRRxv7yDG5q8RPWzpyIsZMWAwMfM37TrWE9o+cj/SE8K7dbPjEp+wVsvGy4/TffThX7euKLuE+czHbI+z3F/nxt+U/yoqT3edNrY+Mssf4/TcT8/Um4ZdzrGCM+q9CqyvETaX104v2int2D918Yg2feLETrR+5HDz1ZqaTHadMcUbZl+davVz81L9nWxjXdxf6XV3ub9UJPfc+FEk0ZDiXoXCY0uwMv/lXs13PlckV6Jr2N4osH4OnXx+JKXS8RVTgi305/50Xc3TEBxesW4v0PRJ229SckXyvOl29En3djrwvDiNi+DFNP+tXGlY+/hjF92+CIqGtVfbGqNno89DqmyJ9wqmQSB41WddDOBWMw+pmFYnsddboi6sGr+uDs7w/jyJVd0TVMVR6xzRSP80wFccoJQf+tFBUVoWlTW24pFxu3FqFZ0oX6HVH8bfN9Hdc8Jn8n6LapwN1/r+Q/Fh3Btqm3487ph3HLy/NxXxv9YTx8/xFG3zoGy1s/hkV/FpW1/tgT+XsxK9Lw6ZNV417PeOdNqwp5/CqJsjwuRNVFRSlHZVYXVmIn69gceW8Uev95JXo8VRF/piQ2ct+ddTpijqGq5lMWiSg+csfhzkdeNIYKyKEUf74dw6YXApcNwE2lOoHtwMxRd2P8dDmMQw8jGCIa898n4KYbYmjMX9AaPfY8h/Q/zCvdPQFVTWU5fkREZanM6kLybgfenjLDNuxwgP2JH9UaAzIiCu2CRNTZsxiv6qFXL+X9hNZ9x+KNidGM33dTGxedD6ycI4ehiWU/NxsFdXvivr++jpEd9Fei0aovxjzcB43WbIR83gNpleX4ERGVpTKrCykaP6yZgrEvLMbRjsPw/MTQt2pURxyySNUWhx9VFTvw5qg/YnbhT0jq9xc877y/rhJi3qyYeFyISo/lqOLisYmd3HccskhE1Vgibpk4H+8tfL9KBGNERERUvTAgIyIiIiIiKicMyIiIiIiIiMoJAzIiIiIiIqJywoCMiIiIiIionFTopywSERERERFVdKV5ymKFDshaNy//dFDVxTxGFRXzZsXE40JUeixHFRePTezkvuNj74mIiIiIiCqhuAZku99/Hn/MHKtfz+O9PXoCERERERERBYlfQLbnQ0z/qhlGjR+Dv4jXqCuAZS/MxL/0ZCIiIiIiIrKLX0DW6CpkPXwVGuu3ja/phBbwYUO+/oCIiIiIiIhseA8ZERERERFROSmzgGz3+yvxFZLQJlV/QERERERERDZlE5DJ+8k+/Q51r0jHb/VHZWL7NAxMTUWqfmV9rD/XckcHpqWmDsS07XqCC9/UgUgdnavfaR9nIXXANPj0W78I67WyLjdieiItV6bHMn3gVGfKfJg2IDA9aHtc2NLktq3OZbp+R3J8T72y4J4C/d2Qy6KqTua74PxLUXPUCYE6I57lMRdZbvVVmPpI1XuWaYFX+HqYKJSqU2fI8iTKgofzc0xUOyJUWa9c/O2TqtJWCNWmrHSiz8PGsawa+bLMyN8hs9q+fbv+K0a7Pzjx1CNPnhg57XP9QWw2fBUpHUtPjG7X7sToJfrtv3NODGg34ETOv/X7JaNPDHitSL8RxPt27UaLudzIZVnm1ctuJ1+35pywLEWIsF4by3IjpifScsV0W1oc3xeWPibS+5i5xKITObe2s6/Toei1Abbts88vRV5GgPxuqP3goLbdbd+eXJHzWNlQ+922n6sfmde85avqyVPeDFunxac8qjpBTguq4yLXR05VId+XV52hjlE515fljXWGR6rtEKpeqBi8lCNn+6QsnbS6qRKUYy/HJrit6E2s81UWct+VJoaKcw/ZGrz2whocTLkKf7mzvf6sbPim5mBRrwnI7q4/uHgwhvQqwORpOv7uno1ZQ5OMv6XuQzAieRFy3XqzPs7FouRuSLtYvpFXizPgGz4X+eN7q8lWEddrZV1uhPREXm46smcPRmAJ6RgyPAWL8vT07dOQs7g3JjydbrwX3xw8uDcKXskJcUUiFzmvACOeCiwzffAIpCzO8V/B9k3NwuSkCfZ0h+RDUaH+M6xcZGX60LtXin5PRNEzytGIOdmiJnBT+vIoe7kyfCMwN38CgmvCCPVREF3fDHZPLRFRkKRESx1DFUlKUvRHJimJ7b5w4hiQ7cJ7z36IrxLaY1QZB2OSz1cQlCHS00Szwbcj6u7g3LxFSElP0wVfBDKz80MGIdGs177c8Eq9Pb4iFCQ3ta+re7poSPmww22I0Ha53CQkqiBUuzgN3ZILUKRW6INsW4VuQOlhTlEOu8gdLYPdbAzxslMqAOfQK2NImNFdbx9SauyPkEPG1DAF47N+rxQAizPU5+GGedmH55jrNP41vmN0/9vmcx4PxzBY2zLVkDOxDHPomYdjGV0aA8MTbENjXdfjtr+0GNJZ5cmLPb2GYLC1/MYgXHlMGjoL+bagK3bGBafSp7dScJQ5I7/GWmfospO5CCicjH7+5RnKpM6Ic1kslzojzHKDGcsZODVXL88yrNbcTv2yHz/B9VgbbOm3rd9cn0itmt85jNcy3fLevyzbdgq2NIhl2SZWTnLfOc+TKh+Jbc/V+Smwf6z5W77sx9qcz2c9lv59aOzbUOfk0MfQzF/2YxOUP2z5J1weJIpjQLb7/bexrFj8UbwGE/0/Di1eIkjbbXwljkSQIcpMUmIUTYXteVhamIKmzllEZSZ7loZ47AXyvN5Iy7WlJ4btEfPk5QaCOJ+xAO+NJ7cAzkZeYRcBGxyVvf/EIaYFzVyAyf3dvquJyklecc/2tK/Ln6zI+72ShAn5+ciXrzkj0FRPiyR3dD/Vu6jmE68JKq41gv25w1OAXsY0M/BXJ6Dcbphrrit/ApJe6Wc7OUiLMnORrqbPVT2sGWJf9/MNMeYR6UsRJxX/SUGeqPsvRbc59mXaTxpiGXnpxnR/76q76NNo9N7I+YyeFj1fWi4yFhvfNciTWj8sTZ+rlyv2V5JofNoaYd7TWR3I8i7Lvq3BENRoPZnl0V4f2RnTeqdVg+OmytxkJI3XeV2WU4+7173OANKfFu/laI1kXYZ0/i+TOiPOZbF864zg5YYjR5PgKfndWcaFA9mYzoSt/vdlWspRmGOt0o/AsZw73IcMZyAl6YugS/MsU1TbwGw7RNjOoDRkA9Mmi5Jfuck873aelBclcpAd+Exuf2oG4N9+va+dwY+8mGHmWZEHe4v3WSoPhj8nRzqGizKzdJ4xliHf+9er8o8cxWCmLR258sIKUQhxC8gaX/Og+kHooJflt8lOisKi4EpPXs0QlRaGZwddofXlLUVBr/SIlXVEjvWGX27o9ARx3R5ZWYiTN7w0psweL+9UcKd60MSJ93EgW1dI+eOTRAMvUOGohoL/hJwe+J54zR0O8V1rI1Bss6ycLEMkKzY9xMo6JOziwRhsDin1wNo4TR8aZrvFSSVncYpj34j9KRphBbl5tuPfe7yZHmNIqvgkMExVDXPVx0/IFSdmex5zG1Ym1utlGFkUaUwZPiSwz9zm656NCSKdfh/nBOVlY/hsrj+veU5nNSF71AtEwzY3zSxzojHoy7A0dE9ueQxbH+njOySKslNZGWVubmDouSynQ73n2/KuM+JaFsu9znAsNxJbD64IhKYtsuw7Qd9GYAZPIY+1Sr/19gExZegQEQQsRZ7zooiYJy09xbY/bG2HCNsp01BgvdVBpuEpMV2/q3rsF7mDt1/u62yX21Osx8M4Dxb4rDnQweMxTLGcX9V0cRSNEUlG/rFON/N+5Sfy3mKxvcFX5CNS8zjKKAWUzVMWy5Oz10cULHkFRd4TFjwMMY5Xbm3rDbPcsOlxEdSLJa+Y6auHnoYTufQKRhAoaM6TonHfW47j6qYbo1I0T14yzfIqlr7yWBnIIWFiy21DOqMgh5vKBrOnYQqyt9JtXUlNkRIiIPcL2ctp9LoaaQj0oqihGbZhsB63MYo02irqUPNZqMagORzLfPWXV3nNk5sU+7GospwNsTD3jJZdeYxcH0UzdLtyi72hIpV/nRHnsljudUZ0x8Leu2vcg7ko07J88ZK9dEZDPsyxVuk3eiID82aIT9wvjialdRP7w2zo29sO4bfTqOPde6WrKEc7y337Rd4RH/kvMkhueT7c7SAej2Hw8Q/c8iHzT6x1QcVlnjvybUGwZ92zkT8e7r3FVFkDMpcC50Z2GeshW67BjxwaENWVW4/rDbXckOnxuFxxEshK1cMXHI0fVfCjuX/Oy4lbpst2UjTS6Y3lu/Iqn+PkpgIDdaJxGUpVUYRpuEQkKx7VMyGHT4htDhpO5lCadYWRIh9OY+kpUa9Y7wuKNY1e5jOHY9lelSiALwdBDRFZpvWfwcqiPIaujwJkwzUF3dJiyjmVUPQXwPwqSJ0R17JYyeuM3pahcP6Xv9ck3LHuHRjqaHm5NmKt927r4Yrp1u9F2M6q1+iPTtltfxTH0FUp6oIKKwmDZ08AxLkj6H45L8xhwLG2Qaq4SttDJp/W4uxytl2JlT1Ravx36ApaDTmI8sptxPXK927LjZCeyMsNXJlwDS7dAizZy+N/eqTDxfJ+M/vVRNvJQJ0knN3+xhUpbxWg8V1FNzSsLzVmW51o4nsCjRu1P92GmEhJaJqs//Rzf6qdejCCHLNueXplkFDrklfpYm50GQ3wsMMyohFrGl3ns+QNQeWniBcHyEr1pjiGfYU/FvEujxHqI1O4OqjKkfWC434gv8pQZ8S5LFbqOsM4XqEvkoY51jL9Mr2hjl0QY9iiHEouhyvCMswy/HYadbx9CLog96/+s2oLsf06r3hrp4QQ9TF0cs8fkS+6VwbpSLcOc46CmicetwhVUZU3IJPd/I4HGFgfomGM7w43fjy2K7eR1htquZHSE3G5eix5yN48HUBl+K+qigaTHAM/ONSVCFmoCjD58UDXsT2N+iRhuUlVPQbfkgZ506v/Ku7HWbYrJuq7/huTKyHzZwcs+0cek2lqG/WJYJpl342WwxlMYt+Pts7n0nNp7c10W5fsfcgMd/wiM+41sN6wLziOk2explFf/bX+LISRN/QbSQ+FDeRdSSw7Ug9BdSafoFpo3pguOY5FWZfHSPWRJi8qiZZRzHm4cjGHjWZZAilRF0yV+TgOdYa1YV5GdUZcy2KlrjPcjqWRDuN9mGPtut2O4+ug7j8SAXiWmN3WdoiwnfLCDGyBu7F/qwu3c5zKK1GNfNIinpPDH0M7fW+gdQi5aD9kyZEIVY7Ic6mBHjNru9D/hEv1jiKpvPeQiQIzSz31SA+7UUMB7U9Sct4/o15m5pBXbmN5DHOk9YZZbtj0eNieoLHk6mUOMZJdycaN/cbnxlCicN3r8qEc6olNelnyiULWq93ySq1/+Ix4qScOhulqtg2BUk/WcqS/knHuH3lMzI1Pf9p4UpM5LTdNPsHMmCa/lChOCdb5us2xDDFRNwcb082HMAStSz85KqZx2iaZp8b3tt8HMa1p9CcqLbY0OvOlqLjhuEFffUf2CAS+k5qag6Z8iEcY8qEdxhPrzGMh70u1HosyL49h6yPJuFJdLZ6uaFL3SMiHH5n7Q9TDutIoTZ3hb5jLaWZjvCzqjDiXxUpdZ4hjaTwMx1y+KEe+dMsxCXesRfqtx1NMK0oLFygbF0gL4OxNjrCdQWnIRbp8cqYxtepztpvES9V1UQ6Jcz8nR3sM7Zztp1T5gLQq8VAPKiunyF+H1n8rRUVFaNrU68O9y87GrUVo3bys0uGDfJRs0eDSnrycymq5VBbKNo8RxY55s2LicSEqPZajisvLsfH/JIDlKZRexDpfZSH33VmnI+YYquo9ZdELtxtn46Gslkt0MmyXTwA1rwZaXxX4wStEVH4qTZ1hDKsKTmeMDycgqsZUb7/stY1iiLAKxhw/JUB21bSHjIh5jCou5s2KiceFqPRYjiouHpvYyX3HHjIiIiIiIqJKiAEZERERERFROWFARkREREREVE4YkBEREREREZUTBmRERERERETlpEI/ZZGIiIiIiKiiK81TFvnYe6q2mMeoomLerJh4XIhKj+Wo4uKxiZ3cd3zsPRERERERUSXEgIyIiIiIiKicxDEgW4PXMsfij5bXa/l6EhEREREREQWJY0DWHneNH4O/mK++Sfhq3kz8S08lIiIiIiIiu7IbstioHuriv/hmj35PRERERERENmUWkO1etw0HE5qhXSP9AREREREREdnENyDb8yGy9f1jEz89D/0fvgqN9SQiIiIiIiKyi29A1ugqZJn3kD1QD0vK+sEe26dhYGoqUvUr62P9uZY7OjAtNXUgpm3XE1z4pg5E6uhc/U77OAupA6bBp9/6RVivlXW5EdMTabkyPZbpA6c6U+bDtAGB6UHb48KWJrdtdS7T9TuS43vqlYVACiJNp+pE5rvg/EtRc9QJgTojmvKmvxuybOciy62+ClMfqXrPMi3wCl8PE0XDOH+V3XmE9VT58rdPRN30Zhkfa4qGPCeI4+GhjWkq67JaJcgfhrbavn27/qv0Vk978sTIaZ/rd9HZ8FWkdCw9MbpduxOjl+i3/845MaDdgBM5/9bvl4w+MeC1Iv1GEO/btRst5nIjl2WZVy+7nXzdmnPCshQhwnptLMuNmJ5IyxXTbWlxfF9Y+phI72PmEotO5Nzazr5Oh6LXBti2zz6/FHkZAfK7ofaDFGn6yRc5j5UNtd9t+7n6kXnNW76qnjzlzbB1WhTlTS3Hra7TdYKcFlTHRa6PnKpCvi+vOqNcyfzhkjeqA9ZTZcNLOXK2T+jk8HJsgtuK3sQ6X2Uh911pYqiye6iHVrd+Q/1XfPmm5mBRrwnI7q4/uHgwhvQqwORpOv7uno1ZQ5OMv6XuQzAieRFy3XqzPs7FouRuSLtYvpFXizPgGz4X+eN7q8lWEddrZV1uhPREXm46smcPRmAJ6RgyPAWL8vT07dOQs7g3JjydbrwX3xw8uDcKXskJcUUiFzmvACOeCiwzffAIpCzO8V/B9k3NwuSkCfZ0h+RDUaH+01Wk6UTkXS6yMn0YMSdb1ARuvJY3Yzm9e6Xo9wGylyvDNwJz8ycguCaMUB8F0fXNYPfUEhEFSUq01DFUkaQkRX9kkpKCzzMUUHYBWf5MzCk4F20ua6I/iC+fryAoQ6SniWaDb0eIYTeh5eYtQkp6mi74IpCZnR8yCIlmvfblhlfq7fEVoSC5qX1d3dNFQ8qHHW5DhLbL5SYhUQWh2sVp6JZcgCK1Qh9k2yp0A0oPc4qiy7oycg69MoaEGd319iGlxv4IOWRMDQczPuv3SgGwOEN9Hm6Yl32ojLlOPVRAvYzuf9t8zuPhGAZrW6YaciaWYQ4983Aso0tjYHiCf+iJfLmux21/aTGks8qTF3t6DcFga/mNQe5oefEpG0NcKqmkobOQbwu6YmdccCp9eis6VT5k3rUN53QM03GUSX9+Vp8HD+kMDJuLsQ7wUrZsaXKU28xFQOFk9HNdtkOoshquHlKs2yRe1jSGmde/v/U2OpcbmG6w1UPO4yJErqfoZJDHwXmetB/LwPG2HjPn8bcfb2vZ8jZ/rPmSKBbxC8hEAGb9Ueg/zgP6j38Q1zbS0+NKBBki7yclRtFU2J6HpYUpaOqcRRQq2bM0xGMvkOf1RlquLT0xbI+YJy83EMT5jAV4bzy5BXA28gq7CNhgrXSsFZqYFjRzASb3d/uuKdL0ikWeAPq9koQJ+fnIl685I9BUT4skd3Q/1buo5hOvCSquNYL9ucNTgF7GNDPwVyeg3G6Ya64rfwKSXukXVMkvysxFupo+V/WwZoh92c83xJhHpC9FnMD8QaE8YfRfim5z7Mu0B5JiGXnpxnR/76q76NNo9N7I+YyeFj1fWi4yFhvfNciTYz8sTZ+rlyv2V5JoANoaRN7TWR3I8i7Lvq3BEdSAjFDeRKNZHpdsT3VfJPb6yM6Y1jutmhw3GbyYeVW85g73iXIaaPz78opsZbK3WWb1BbGledbylIvcxSnolhbYr1HVAV7L1uNAtnWZenr60+IzOVIkWZdfT2XPUVYj1kOy0atHpajpZn0peKrDpCSkpaegIDdPbLFJ57vBxkUFVQ8hUCer4+II1sLXU3SyyHzndp50KhB5ITdNHy+RTwteybLUc6Ls2I43MPlxS0AlRJq/9PmSyLv4BWSpgwI/Cq1eg/BbPemkKiyyFTiDKFj9JwPDs4Ou0PrylqKgV3qIYT9RcKw3/HJDpyeI6/bIk4do8MNLY8rs8fJOBXeqB816opYVVpJo4AUaFupk7T9Bpwe+J16q8utvbQRGml7R6CFW1iFhFw/GYHNIqQfWxmn60DA9DSp4T7ENH1X7S54gbA0MoPd4Mz3GkFTxSWCYqhrmqo+fkDvNmcfchpWJ9XoZRhZFGlOGDwnsM7f5umdjgkin38c5QXnZGD4rT6gmj+msJmSPuq0xIRvSvgxLcBypvIk6SA55tB3P2IWtj/TxHRJF2ancrEPHRUkdOkR8EhienjTUXibT/WXWJaiwDnvXoqkDPJctfz7Qy4xhpEmAvaxGqofM4frWRrdZX3qrwwxJad2QUrgUeWYeVxc9eyNd5jtVD7kcF/P7Xuopqnist3mo20Cs7R1RB1qPt8ofjvZUmPnjlS+rHnmRSOzPqDoQDGoeW91DVmV+D9lJ5+z1ERXtQH2VI/gqSxyv3NrWG2a5YdPjIqgXy+hqV1fyPA0ncukVjCBQ0JwnKOO+txwPXfOy0SErN/vV3oBI08udbAiJLbcN6YyCHG4qG8xuw2KCyN5Kt3UlNQ0+gTiF7OU0el2NNAR6UdQwEFtjy+M2RpFGW0Udaj4L1Xg0h0SZr/6TxXzW4baxH4sqy9qYEPsn3D2j9vIm65AMYPwsS4MiVpHro2iGblcJQWUyCU2T9Z+atWfT2gtjDyrEvp22yN/DE1LIOqAUZStSvROWdXmR6qHwPave6jDN0cNouyiq6iGjNzGwrAzxiW6Ae6inqOJxyzf+ixGSam/p463yvV3o+eOYL6sU89yRbzn3RKF7NvLHw9YzTQGVNCATFacoJ7aC50aOY9fdyq7Bj7yCFtWVW4/rDbXckOnxuFzR1MpK1cNPHI0f1QiOpjLw0tgPOkEZ6fQm0nejWVY5CdPQiUhWPKpnQg5XEhV2pPsRSrOuMFIswy38r1jvC4o1jV7mM4dE2V7xCBiqrqDGgizT+s9glvIme00K5dA3R2NCNdyj6bUOXR8FyKup9iF31ZvcZ/ahc7ZeGP0wJxUkWHt4SqMClK1I9VC4q+3e6zDdw+iTO8/tomjvwPBzy8vfsCyjOpjKh7rnzDqsUA7n1dO8ik++rErkbRcTAHHuiGl4pmwDZwITqvx+ik2l7SGTT2sxKt4A25VYeWVEHvgwJx7V7RzllduI65Xv3ZYbIT2Rlxu4MuEaXLoFWC7DXfwulvebWa+SCtYGgLra6HwqpXFlKFwlFWB8N7RI08uZ2p+W4S82wVe85fa4PdVOPRhB3ScSeHplkFDrkldtY24kGA1wZ56KWaxpdJ3PfuxVfirVFfnqR/XAOoaKhj8Wln2uLxZYX+p+DdVw99pQj1AfmcLVQdWGrBv0SAW1P8R+tgylcpLHVg59isdw+vIvW5HqIWO6+1Cv6Osw1cMoh0Q5L4rKekiWgajq4Ap+jqIwdEAe8yiA+ObLqsU6zDo6ap543CJURVXegExVvPYHGFgfomGM8bXcyxIktiu3kdYbarmR0hNxuZHuw9ABlHkztqyQwg93kYWqwHaTqz2NxtXGRZmWm9HlY/AtaVDDbsz1fZxlu2KiviuCu0D6I0yvaMyfHbDeBCyOyTS1Dbqynma9IVwOfzGJfT/aOp9Lz6W1N9NtXfJKeqaH4UphGPeKWG/wFxzHwbNY06iHEVl/FsI49vqNpIfCBvKuJJYdqVexOpNPUC2cjCz/8GHHsSjr8ubxvjB5UUlEBTHn4UrJdlzEPpB1g/mESWfDXxynoAdHyGO7OAdZoYa9RyNeZasUQV2keshteu5Uo56Jug5T9dQi5Dy+VMxsuSjqWn9Z6mkv9RRVIs6AShzrx4OHLIYT13xZpYn6JDXQY2ZtFzqfckrhVd57yEQFO2vOCPjMYTeqa9r+mzzOMb7qZWYOeaUylscwR1pvmOWGTY+H7Qm6F0C9zCFGsivZuLHf+NwYShRunK98KId64pZelhxGY73aLXt3/EPuxEs9cTBMV7NtCJR6Gp89/ZGmVzTO/SOPibnx6U9PUA1ic1pumnw6mTFNnQxEc9U6X7c5gSt1xs3kxnTzIQxB60otxThtk8xT43vb9nvqtKYRG9GhxJZGZ74UFTecN8sbwyDk0+b86UzNQVM+xCMM+dAO48le5rGQ96Vaj0WZl7ew9ZFk9DBUm6crmpJFoCpyublP1P11loduZKsHrOj9lZfu8uAI42JZgYeAN7I4lC0zqJPzxnKRJFI95Dz3iVeGTwfxMdRhsoexQARSzoui6U+LeshaL4tzZFGaeT7zUk9RZaLO0f58nwXIIEpP8yTO+ZIoklPkr0Prv5WioiI0ber14d5lZ+PWIrRuXlbpkMNtRGU8uJQN3iBltVwqC2Wbx4hix7xZMUU6LuqnMmTwW8p7JORV5pwkjw9+IqpkWL9VXF6OjfqJCHkfbJih125ina+ykPvurNMRcwxV9Z6y6EW8bpZ2KqvlEp0M8j5H82qf7VWRf56AqIpRwxgr7oNQ1JAkt3qCQ4yJqgV/72MUZV4FY46fniC7atpDRsQ8RhUX82bFFOm4lKqHTF4QUY/mTsEIyxBnoqqG9VvFxWMTO7nv2ENGRERUztRTVWMdrijvS1FPvWQwRkRU3TAgIyIiIiIiKicMyIiIiIiIiMoJAzIiIiIiIqJywoCMiIiIiIionFTopywSERERERFVdKV5yiIfe0/VFvMYVVTMmxUTjwtR6bEcVVw8NrGT+46PvSciIiIiIqqEGJARERERERGVk7IJyPJn4o+ZY/HH6Wv0B0RERERERORUBgHZGrw2z4e6Cefq90REREREROQm7gHZ7vdX4quUq3BnC/0BERERERERuYpvQLbnQ0z/FOjaq73+gIiIiIiIiEKJa0D2r8VrgCtuwrWN9AdEREREREQUUvwCsvyZmFOQhB7XNNEfEBERERERUThxCsh24b08H1r0HYTf6k9Oiu3TMDA1Fan6lfWx/lzLHR2Ylpo6ENO26wkufFMHInV0rn6nfZyF1AHT4NNv/SKs18q63IjpibRcmR7L9IFTnSnzYdqAwPSg7XFhS5PbtjqX6fodyfE99cqCLQVR7Deq2mS+C86/FDVHnRAoUx7Ko5/+bsiynYsst/oqTH2k6j3LtMArfD1cPcj9aeyP6lgGWPbJK3/7RNRNb6q/Q9VhdHLpOsxDG9NkHEsev7BOOGzfvl3/FYXdH5x46pEnT4wM8Xp1jf5eFDZ8FSkdS0+MbtfuxOgl+u2/c04MaDfgRM6/9fslo08MeK1IvxHE+3btRou53MhlWebVy24nX7fmnLAsRYiwXhvLciOmJ9JyxXRbWhzfF5Y+JtL7mLnEohM5t7azr9Oh6LUBtu2zzy9FXkaA/G6o/SA50qu2P9z3y17kPFY21H637efqR+Y1b/mqevKUN8PWaZHKo4Vajltdp+sEOS2orEauj5yqQr4vfZ0RTZ1awch84pJHosWyT17KkbN9QieHl2MT3Fb0Jtb5Kgu572KKobT49JA1ugpZ48fgL5bXqCvOBVKuUn/flaq/F0e+qTlY1GsCsrvrDy4ejCG9CjB5mo6/u2dj1tAk42+p+xCMSF6EXLdemY9zsSi5G9Iulm/k1eIM+IbPRf743mqyVcT1WlmXGyE9kZebjuzZgxFYQjqGDE/Bojw9ffs05CzujQlPpxvvxTcHD+6NgldyQlyRyEXOK8CIpwLLTB88AimLc/xXsH1TszA5aYI93SH5UFSo/3Sj9sUIDDG3T+yPCWL7lubxSilR9HKRlenDiDnZoiZwE6E8+hnL6d0rRb8PkL1cGb4RmJs/AcE1YYT6KIiubwa7p7a6SUr0UqcSVXNJiZY6hiqSlKToj0xSUvB5hgLi+5TFk8jnKwjKEOlpotng2xFi2E1ouXmLkJKepgu+CGRm54cMQqJZr3254ZV6e3xFKEhual9X93TRkPJhh9sQoe1yuUlIVEGodnEauiUXoEit0AfZtgrdgNLDnKLosq6MnEOvjCFhRne9fcilsT9CDhlTw8GMz/q9UgAszlCfhxvmZR/WY65TDxVQL6P73zaf83g4honalqmGnIllmEPPPBzL6NIYGJ5gGxrruh63/aXFkM4qT17g6DUEg63lNwa5o+XFp2wMcamkkobOQr4t6IqdccGp9Omt6FT5kHnXOpzTn5dlueiHySJQXpQpp1mGb1q/L17eh3Nb6wPx0usy05Gry6u/nIarD5xl0Fl+MxcBhZPRT06zlEFb2bbMY4pc9onsZJ5xnif9ZUt9w8ir8nNr/rLnZ2fetA6X9ja/WIJr+VLCliWi6JVZQNb4mgfxlzvL6vH3IsgQeT+qq4zb87C0MAVNnbPonqUhHnuBPK830nJt6Ylhe8Q8ebmBIM5nLMB748ktgLORV9hFwAZrpWOt0MS0oJkLMLm/23cF2SOIycgxGxqiAZLheb+XD3kC6PdKEibk5yNfvuaMQFM9LZLc0aLhlTTBmE+8Jqi41gj25w5PAXoZ08zAX52Acrthrrmu/AlIeqVfUCW/KDMX6Wr6XNXDmiH2dT/fEGMekb4UcQLzN+bkCaP/UnSbY1+mvbEnlpGXbkz39666iz6NRu+NnM/oadHzpeWKY2981yBPjv2wNH2uXq7YX0mi4WdrvHlPZ3Ugy7ss+7YGR1BjN0x5lGQZFMclOy5l0F4f2RnTeqdVk+MmgxYzr8reRfE+S5WRdGSrcgv0Hi+nzTICVBmMZcJWz/gyXY5XENlY1KM59LxGPaOJ9eYgW32u6plI9YE4JxVZy2AvUeZ0nkp/WnwmR4wk63Ksy6Aq2wjUc3OH+5BhabRGLvtEwWR+cztPOhWI/JubpvOWyJ8Fr2RZyk2u+M+aN4HJj1sCKiHS/CHLl6dzK1F0Km0PWUiFRbYCZxAFq/9kYHh20BVaX95SFPRKDzHsJwqO9YZfbuj0BHHdHnmiEw1+EeJEbkyZPV7eqeBO9aCJE/LjEI0Is8JKEg28wBVQdZL2N45lY8OsnHTl198ewA2ePQFQV4bFK+xwq4pAD7GypvHiwRhsDrn0wNo4TR8apqdBBe8ptuGjan/KE0Runu349x5vpscYkio+CQxTVcNc9fETcqc585jbsDKxXi/DyKJIY8rwIYF95jafGq6q/5Y+zgnKy8bwWXlCNXlMZzUhe9RtjQnZ0PdlWILjSOVR1EGyDNqOZ+zC1kf6+PqHK1d51qHjRpkr8FlLiJUP06YtspRrQQ9XjzSc2xzmbm2s2usZ+wWviPWBWK+tDEYaoaHKtnVbRa00dIgIQJciT+YzL2WfqDSst3mo20Cs7R1RB1rzZlo3pDjbU2HmD1e+vJ1bqypxXl4s9mdUHQgGNY/tvE5WVS8gc/b6iJPCQH2VI/gqSxyv3NrWG2a5YdPjIqgXy+hqV1cdPQ0ncukVjCBQ0JwnU+O+txwPXfNJQ7NV5eZvVKghOWbPiXwNQVH/aIbmnGRySJjYctuQzijIxoxsMLsN4Qkieyvd1pXUNPgE4hSyl9PodTXSYPaS6GEgtkaWx22MIo22ijrUfBYqgDSHQpmv/pPFfNbhtrEfiyrL2pgQ+yfcPaP28ijrkAxgvO6hKZXI9VE0Q7erBLcyGTKwMe71M4YwBl6yFyl0ECeF65HUHOckT/WBdeikHKIYjirbRi99YJkZ4hPdqPVQ9olKwy3/mxckFdXe0nlTnVPsQs8fvsff27m1KjLPHfmWc08UumcjfzxsvegUUEkDMlHJi3JiK3hu5MlFdyu7Bj9y2GBUV249rjfUckOmx+Ny5VXtVD20y9H4UY3gaCoDL439oJOpkU5v7N9VjTJrz4m8ejW+NxZNq8AFM2Sw44GseFTPhM9osES6d6I06wojxTLcwv+K9b6gWNPoZT5zKJTtFY+AoeoKaizIMq3/DGYpj7LHyhEEqMaECoq9DJUzha6PAuTV1BR0S4sp51QbxhBGx8tydT+UaK9Sh6sP1PBX69BJUT9H1jvwfcvL31gro3qNKBJ1z5l1WKEc0q+neRWufMX13FppBEY6xXQx3RyeXeX3U2wqbQ+ZfFqL8wqi7UqsvDKiTi6hG3Wq2znKK7cR1yvfuy03QnoiLzdwZcI1uHQLsNSTDc2nRzpcLO83s/ZACOq+tt5IlydT9YAP51MpjStD3hoBxncN1r8rCbU/9dCbIElomqz/9HN/qp16MIK8j8Ty9MogodYlrzDH3KAxGuDhr7JHIdY0us5nzw8qP0W8OEBWqgfWMVQ0/LGw7HN9scD6UvdrqKDYaxAcoT4yhauDSDDqksgX45yM8u19iFSk+sAInKMaRi7LtsxXUdVrlfBcQJWQHqUU8yiAcOUrzufWSicd6ZZbI6Kh5onHLUJVVOUNyOR4YMcDDKwP0TDG+Fp7ZJxiu3Ibab2hlhspPRGXG+k+DB1AmTdhywpJ3ZswONSVCFmoCmw3udrTmIS09BQsygwMuVOPwbekQV1RNdf3cZbtion6rgjujPQby7IPp5L3sFTgoUzmzw5YbwIWx2Sa2kZdWVt69+TT6gIDfMS+H22dz6Xn0tqb6bYuvX9CH7/IjPuwLHlKchwnz2JNo35yp/VnIYy8od9IeihsIO9KYtmRehWrM/kEVf/DIiTHsQhbHuPA431h8qKSiLgrZhmvEMyhplm2CzbyeEXqqXQr37lTreXTLnx9IAND631rRn4KYr1w4lonWOo+L2WfqEw4AyqRLx8PHrIYTrjyFddza6Un6orUQI+ZtV1ofzImRVJ57yETJ4NZ6mlUetiN6pq2X91zjvFVLzNzxPrY6EjrDbPcsOnxsD1B99molznESHYlGzf2G58bQ4nCjfOVD+VQT7PTy5JPy7Je7Za9O/4hd+KlnjgYpqvZNgRKPY0vkH7nsuS9Bp7voysnzv0jj4m58elPG09PM6flphlPTzOIk4Forlrn6zYncKXOuPHdmG4+hCFoXWL/xDxO2yTzlBwWajkuqdOaRjFE1y62NDrzpai44byx3xgG0Vuc4PzpTM1BUz7EIwz50A7jyV7msZDlyXoswpXHuAhbH0lGb0i1ebpirLpn64euBPZjP1965HOT85whXhm+MMFv2PpAlMGnRgD+/JSLdOeQRfPCiZyuG1zpT4uyba3rxHmnKM08R3gp+0RlQ52j/eeULEAGUXqaJ+HKV5zPrUTSKfLXofXfSlFREZo29fpw77KzcWsRWjcvq3TI4TbixDG4lA3eIGW1XCoLZZvHiGLHvFkx8bgQlR7LUcXl5dj4f+7Cw32uVrHOV1nIfXfW6Yg5hqp6T1n0wnqvVDyV1XKJTgZ5n6N5tc/2iuZBD0QUL2r4j1uZ5HBeIion/t7HKOohFYw5fiaD7KppDxkR8xhVXMybFROPC1HpsRxVXDw2sZP7jj1kRERERERElRADMiIiIiIionLCgIyIiIiIiKicMCAjIiIiIiIqJwzIiIiIiIiIykmFfsoiERERERFRRVeapyzysfdUbTGPUUXFvFkx8bgQlR7LUcXFYxM7ue/42HsiIiIiIqJKiAEZERERERFROYljQLYGr2WOxR9tr+fx3h49mYiIiIiIiGzi3EN2Lro+MAZ/GW++HsS1jfQkIiIiIiIisuGQRSIiIiIionLCgIyIiIiIiKicxDkg+w7LXgjcQ5b9/i79ORERERERETnFMSBrj7v8946J1wPtgU9zyjYo2z4NA1NTkapfWR/rz7Xc0YFpqakDMW27nuDCN3UgUkfn6nfax1lIHTANPv3WL8J6razLjZieSMuV6bFMHzjVmTIfpg0ITA/aHhe2NAVta3TL876/9XLd9i1VCzKvBOdfipqjTgjUGY6yq15ZcC/BkcpjLrLcynOY+kjVe5ZpgVf4epgsQp1/KjyZX8KfF6PF+oKoIjHKuJc2psloH4Y6B5FUdkMWG12FHinAwQN79QfxJjJE/8lIGp+P/HzxmjMCvkzLyV6czHKS5hrT5Gt8Eib3D5UZcpHzCjBicLr/vcpsmYv0e6sI67WxLDdieiItV0yf1hRzzfnzJyDplX62k17u6H6YnDRBT5+LEb6MsCcx2WjK8I3wL3NC0mT0sxQwt+WFLIDR7O+PczC5UP9dDbkG/0TRkg32TGCCWebEK7u7nqakYMScwLT8/GyYNZxNmPJonEQzEFwThq+PkobOsqzXeM0dLk4IvYZg8MXGd4iIqPLJHS3OCb1E2/Bp1zOKq/SnRRuz1yJksO0TUhneQ7YL33yr/ywDvqk5KkP4GyAXD8aQXgWYPE0f7O7ZmDU0yfhb6j4EI5IXIdftqt3HuViU3A1pqqEgrxZnwDdcBBfje6vJVhHXa2VdboT0RF5uOrJnD0ZgCekYIho4i/L09O3TkLO4Nyb4C0gSBg/ujYJXctyDIvGpChafCiwzffAIpCzOMYJAt+U9Jafnui/P8/4WDblMH3r3Eo0zIoqRUY5GzAkRZIl6rMjTRY/Q5TFwwWYCgmvCCPVREOdFLyIiqqxSkiztPY+SktjuC6fMArLd77+NZcXnomuv9vqT+PL5CoIyRHqaaDb4dkQ9xCM3bxFS0tN040IEHrPz7cGFRTTrtS83vFJvj68IBclN7evqni4aUj7scOu92y6Xm4RE69Xqi9PQLbkARXKFbsu7OFG8N5enhzlFebVDXlnxDc/GEC87pQJwDr0yegBEI9b/t8nYH4HPHEPG1NAj47N+rxQAizPU5+GGedl7N811Gv8a3zF6IG3zOY+HYxisbZmyh0UuQ/3rMq+L6NIY6CG1DWd1XY/b/tJiSGeVJy/2xKG3KVx5VL1ctqArdsYFp2rSO+Yoc/Zhh0Y+Hzg1V+d3+6gO/zwhhvbYypHtO6HLnhtVjmW6wq3TuR0u5c6entAjRVSaLPsh9HYYItcXVHU5z6WCyqfW/GX5jvP84M8z9nOK2/na/31bGSUqH/ELyPZ8iGzLj0JP/KoZRpXZ75CJoECUnqTEKJoK2/OwtDAFTZ2z6J6gISECMLso1htpubb0xLA9Yp683EAQ5zMW4L3x5BZwWSU1RUphkUslpQM2MWfY5Lrtb1Fhyivu2Z72dfmTjZZ+ryQFhoTNGYGmelok9uGe+ZigOgaMYN8YumVMMwN/2QDpl9staAiYc8jposxcpKvpc1UPZIY4mfTzDTHmEelLEYGe/8QjG1T9l6Kbf9ha8DBXsURk5KUb0yMMP4g+jUbvjZzPOjQ2Py0XGYuN7xrkybEflqYHhrw6h89Gk87qQJZ3WfbDN1wLMLm/Od2lsRzX8mivj+yMab3TqsFxk41CW5nTednR4JMjF/CUnD7LCFLlfKrH05wvHbmOIfOqHCFQp8wd7kOGY7nOshdWoUiXWabM5VmCI19eka3u6G2tW4Sgcj2+m55iJcu2Ht6kg/tI2xG5vqCqLQlp6fbedtW+8bc9JDkCwNq+sJwf9HkwNbUfigabeUwsLzOQt93Pz0TlK34BWaOrkGV9qMfDV6GxnnRSuQYRuer+LAzPDrpC68tbioJe6ZFPXpE41ht+uaHTE8R1e3SFAi+NKWsl5o2q/FRvmX28rxo3rP+W5Jhg98ax2/aJz2SDwzJEsmLTQ6ysQ8IuHozBtnt0wrM2TtOHhtluFbynOPZNOrLH90ZBbp7t+Pceb6bHGJIqPgkMK1XDXM2Tl9iCac5j4DasTKzXyzCyKNKYMnxIYJ+5zdc9GxNEOv3kPUyOvGwMn7UOj/WYzmpC9qgXiGA4N81oUATfMyqOjW5sGA0SiODMcU9qHMtj2PpIH98hUZSdykkEH9MWifxvr9fTnxbBTOFS5FkDYltvodt8Rtny0xf4AkPIRQ0wdEjQcm1lLyKX5Yka3hxmnjTUnp50S93iT4+1B7W7qB8t2y2Z+WKuuZ5I2+GlvqAqT12c9tf/8oKOyK29LOcu6+0gSvB5UF70NG8BMfK2fbSQ5/MzOYjjslgfoyjZjys5leE9ZOXE2esjKviBqcY9YcHDEON45da23jDLDZseF0G9WEZXu7qC6Gk4kUuvYARGQZO9OcZVUfMKfE7SBIxIjrA81+0zrpJivL4aXBnICl/sA9uQzijI4aaywRxp6JAieyvd1hWyl9IiZC+n0etqpMHsJdHDJW3DYD1uYxRptFXUoeazUI08ebXeks5UEdAXyG3wn0BjPxZVlvWeU7F/wt0zKhvXI5ILsDRPHql4lsfI9VE0Q7crN+O+veCGShKamkPBNXtPYqj5LFQ5MnrEA+VZXiCzLzfsMpyC6g6ZTv2nZu2BtfZSqQuOIeseg2+avgfRmi8ibYeH+oKqAevtFnK0DbphyOBuSNHnLnnOiFSnuPfWG6I6P5OFee5wPkDKo+7ZyB+PoJ59MlTSgExU2KKs+a/WhWIZPuIa/KiCHs2VW4/rDbXckOnxuFxRdWSl6qFdjsaPOhFHc/+cl8a+4yr7rKEQDYcwJ8tQ26ef4rYoM3ASVoGBaoSHuu+gAojQ4AhLVjyqZ0IOAxLbHOk+iNKsK4wU+XAayzFUL0+BvItY0+hlvmTLECX/qxIF8OUgqMEhy7T+M5hRxyhxK4+h66MAeTU1Bd3SYso5lVD0F8AMXubrbXuipvmKqWEUkTy29qGFQb1UXobIO3sGlQjbUUZ1IVUmskfWuIAkg38RQSFJ3sOu8pNxwTuqiw9O0Z6fSTMu1EOcO+y3PnikhmbD3rNOfpW2h0w+raXAZw8nbFdiZU+NeiR06EadGtIV5ZXbiOuV792WGyE9kZcbuDLhGly6BVhB3foWtgd0aOq+r95ID3GCN27MDzEMM9z26crP+lL3UalGeAVtdKv96daYkIKvJMvj4/ZUO+Px37KnUT+90k2odcmrxTE3TowGuDNPxSzWNLrOZ/TemdSJNeLFAbJSV3gdQ0XDHwvLPo9LeYxQH5nC1UFVjtETZvRCWjnvd3Fyn892gU6WI3kMQ9UhcWFJpzpuIj9YhhZaqTIbYehR0uBZeqispRci0nZ4qC+oejDbRPIUZlzQMYK0IvFBUZh2SjQ8nZ/JwTF8OQpqnnjcIlRFVd6ALK1b0AMMrA/RMO6fCTeePrYrt5HWG2q5kdITcbmR7sMIuudLNJimLULvwaGuRBiV2+THLTdTh0vjx1no53hstRrOotcXeX9XMubPDlj2jzwm09TxMYKdRdOsN6Jb768T+360dT6Xnktrb6bbuuQV6sxwxy8y4z4s+4348jjGdGUr1jTqJ3dafxbCNzXL/rtX+icS7L9PIpbNq5ahySE9hZOR5b9nzHEsHMfZ2OdeH17kgcf7wuRFJU89KVWCOWw0y9a4M36zJ9wTJo2HGNiGm4q6Jkv2Wppcy5+jnomWLf840ukMjER+sj1Yw63MfizqR0ejVjZ41W8PmUPDIm2Hl/qCqgWzTZSxODAqR16IWpQp82lpGvUezs8UBaM33TzfWNuF/qe5qncUSeW9h0xU7LPUjyfrYTdqqJz9yVLO+2fUy8wc8gpgLI9hjrTeMMsNmx4P2xN0n416mUOMZFey/vFm9bkxlCjccBb1Q33yCWB6WXJ4ivVqt/X+AeMHaMNfPQ+7fZWQc//IY2K2LI0b9QPTctPkUw+NafJLiaK5ap2v25zAvjNuYjemmw9hCFpXainGaZtknhovT2DmMsVrWtOYH64QWxqd+VJU3HDepG8Mg7Der5iamoOmfIhHGHI4sfGUS/NYyPs2rcfCNiRRPR3TUZ+UVtj6SDJ6NqrF0xVN6h4J+aP4gX2ihv2F6GkyycDFP3xKvh6H/aEeQvrTohxZ6xX5FLm0Ugz9SRYBtSiN/nTK+70sD0bIVr1bel156S5l1l6uUzOLXIezq3SrJ8IaeSP8dnipL6haUMG5+NcafCXJHtbS1inhz89E5eWUE4L+WykqKkLTpl4f7l12Nm4tQuvmZZUOH+RjtuUjUUvV4A1SVsulslC2eYwodsybFVNVOS7qJz1kkM57OagcsH6ruLwcG/XTFB4uNDnFOl9lIffdWacj5hiq6j1l0YsI90rFrKyWS3QybJdPyDSvWltfFfjBK0TkwhhGFFyWY7wZn4hIUyOE5IiWKG4rUMGY4ycvyK6a9pARMY9RxcW8WTFVlePCHjIqT6zfKi4em9jJfcceMiIiIvJEPV2OwRgRUYXBgIyIiIiIiKicMCAjIiIiIiIqJwzIiIiIiIiIygkDMiIiIiIionJSoZ+ySEREREREVNGV5imLrgHZRRddpN8RERERERFRODt37uRj74mIiIiIiCobBmRERERERETlhAEZERERERFROYnzPWQ/4+CWPPxzxSb80DAdfa+7FHX1FC+Ki4uxbt06+Hw+/PDDD/pTIiIiIiKKl7POOgtJSUm47LLLkJCQoD+tjg7iy3fnIXfvWbiky++R1rIuTtNTolUx7iH74T9Y98EsvL54E/aXiLdF/8aOb/U0DwoKCjBz5kxs2iSCOQZjRERERERlQra1ZZtbtr1lG7za+nYH/l0k4o6S/di0+HXM+mAd/lMOYUhcArLvC/Pw9qy3sbzwoP4kOrJn7MMPP9TviIiIiIjoZJBtcNkWJ+Bg4XIV0+QVfq8/OTlKF5D9vB9f/nOWiCbXlyqalMMUiYiIiIjo5GNb3OKH/2D9ByK++eeX2P+z/qyMlSIgO4h1781D7tb9OKo/iZW8Z4yIiIiIiE4+tsWdjmL/1lzMe2+diHjKXuwB2bc74NtZ2lDMwHvGiIiIiIjKB9vi7o7u9EX1TIxYxR6Q1UtE0kVn6DelI5/0QkREREREJx/b4u7OuCgJifX0mzJUiiGLdXHZtX2R3vx8lDYsk4/dJCIiIiKik49tcaczcH7zdPS99rKofsIrVqV7qMdp5+PS3w/EwKvb4telCKzlbyAQEREREdHJx7a4xVm/RturRXzz+0txfqw/Shal0gVk2jnJabhp4E24Mjm2GFL+IN1VV12l3xERERER0ckg2+DV+8ehA+omX6limrTkc/QnJ8cpJwT9t1JUVISLLrpIv4vWzzi4JQ//XLEJPzRMR9/rLo2qm0/+BoJ87KZ80gtvLiQiIiIiij95z5gcpih7xqp3MHYQX747D7l7z8IlXX6PtJZ1EWun2M6dO9G0aVP9LjpxDsiIiIiIiIiql9IEZHEZskhERERERETRY0BGRERERERUThiQERERERERlRPXe8iIiIiIiIjIu7g+1KNRo0b6HREREREREYWzZ88ePtSDiIiIiIiosmFARkREREREVE4YkBEREREREZUTBmRERERERETlhAEZERERERFROWFARkREREREVE4YkBEREREREZUTBmRERERERETlhAEZERERERFROWFARkREREREVE4YkBEREREREZUTBmRERERERETlhAEZERERERFROWFARkREREREVE4YkBEREREREZUTBmRERERERETlhAEZERERERFROWFARmXnX1Pw4IMPYsq/9PsKaPfCSRg5YRF26/cV1eppTyB74V79rhT2LkJ2RoRlrXkDIzPewGr9NloHl36CtTcPx7oeN6Lo1ptx4Nls/HKwWE3b+dfXsLrXQHzR/Tr4hgzB97Nm4Jcff1TTwluL10S6X1uj38bNMez7dCYmjM1UeVW9RmYia1wO1h40vrH7w2fEZ8/gg7CZZDfeyRbzZr8TnJd2v4M/ieX+aUEUuawSlB0iIiKrknU5yBTn0Jx1JfoT8qpKBWQ7lkzCM5nP4J1Stq7jtRwiFdxUpICvYW9kTfgTsvo01B/IQGcS3o1DrCd9M+99rH3kr6hzuAj1zjyE0348iJJPl+GbR0fi36PH4es57+OCmvuRcNYPOPXQPny/cD4OPPEwTvz8s17CSXT8MFZPeRzPzF2L3cfqIrlNG7SRr0suRJ2jxfhan0++/+579e8x9X/h4Fr847ksPPRarCErERFR1fPjoUMoOQ6Uwxm90qtSAdm+oh3YV+JvNsUsXsshqm4KXngDdc/8H844XdTIFj/v24NDn32KC+uJQOzUE0C9BJzSugXQ/GL8tK0AR3KX6G+ePLsXTMI/tpSgQadhyM7OwL1DhmCIet2LjLEZuL6x8b2WA8bj+UmP+t+j5Gts+/owjtk3kYiIqFpL6DoSzz8/HsMuq6U/Ia9OOSHov5WioiI0atRIv4vOsb2fYGbOu9hwQAQzNWqhwSXX4847O6DBppl4KGctTut0L8b3T9bf3oF5WZPwCTpjZHZfJB4/jC3vTsXsFTtwWDR0ap6biCv6D8X1LWuL78rhQBOQJ747KP17fPDOBhQfBWo3vRr33N8TjWvo6QeMJSv105CRdT3MNlSQ79Zi3tQFWL3baFjVuiANwx9rj/UhloMFf8KEZUC7XonYsWwtiuvo5R/bh09mvop3NxXr5bTB9aJR1+ECMW9JIT6a+TZyt+9DiUgvzkhAm+vvxpBODdSi1bCk2VvQ8rphuGDjbOQVHRYblYirh41Ex+KZmDRbrEfMV7NxZwy+py/Urgjj8Lp5ePnd1dj9nd7/XYbj0RsSI6Zjt962zrf3xPcfzlPHr2b9dhj04CAkrJyElxcZx6R2y+tx311paCDDeDPt/TOQtOZlfCDTXqM2ErsMwNAbWkIl1fzOgOcx7LfygzB5xPXSgMgTH87Guyu2iABZvBXfT77uYdzbNcH9+F1zCC9Fymf6U5McsvjcVy3wUNq3eG5uofFhvU54KKO3Le/IIYNztuo3Qst+f8Jd7fUb7MW7E17Gsm/1Wz3/14550Pw6TBrcTv1pX14y+k+4DR30O8k2XczXH+/i4/r3WHq2TMa696dZ0iN75eYeQNeRI3Gd+rr1O7JH7F1Aph/ye3qbFZ0ONT/Qf2Q9fDxpJYzBhsFpdPr5+8NYmj4Yv044hLNq/aI/DZA1zSmniD9+9Suc0qq58eaXX3Diiw04K60nEv6QYXzRlZnue3B+XmBfJ3TW+0QOxZz0FVr7t9kg96Prfiv5BH97bB4KL+iJJzKvhshRIZnlIy3jCVy/y8jTVkb+Nusol3pHDlmckAd0zcATN4gpzvdu3/FSvoiIiE6aDZiZkYO1p3XAveNuFa0Cw465WZj0qWhDPpiNvgeC232HN72DqW/mYYc4jeEMcR7raJzHTls2CZkLdli+W4yPJvwJH+xujKvHZKBnXfGRPjf+6qonkNHLeaZejSkP/gNbUjrj6mPr1XlSLavpasx8/SNs2V2seutkuzptgBFPlJR6neHt2bMHTZs21e+iE78eMrEBz02Yh22/6oBBIx/FvX2S8MOmf+Cvf98AtGmLNmeINtC2LSK00navxxYZf1yaKhrJJVib8zSmrCjGhX3uxaMjB6FD7W+Q99rL+MgaHB1ajQUrz0Hna/ui5yW1cbjoA7z89g4xoS7aX9UXHVSbSzTae/RF36vai09DEY3052bik28b4oo7R+LREdej2bFi7Iu4nGKsXQf0fex5PK8aXaIR9uwzmLftV+gwwFhO0tEN+MekmdggM8HBLdj838bofNtIPCG2qd25xdgwZzo+sG6TsGXhPHzTrBeuv6Ixah3egQ/+lomn39qHlr2N7Ty2+xPMFkFRWEXz8OfXP8HB+ldgiNr/zXDs4D5jmqd0FOOTeStwTqfrjHUeWIucZzLx4soz0fGm69H5wlo4vOUdvP2pfVyw770crG/UDX379USbcw+LYHUKZq4IMXY4XB5xsXvBS5iyeAu+P7cdevYTx6JHM5z24//ElBDHL2I+C+HblXhuYwtMEoVy0oTr0FK8n+6/x0oGMyI4ggim1HTxGtkJ38wN3M+0epoIEOoFpvdvYXzeYbB4309UWTJAk9OswZhleQ91PoA5lmGNavq3eh75av2VPbCzaYjUFudhy8a1+r3Y5H3ywP4X+3cZ70UVgf3fnofzm+i3pva3ieWL7cV5IniT67IGXIWY83fgTpWGe9C1nng/LbAOV6edJv53AsdPyKgrmArGpLrn+d8c/9a4UeuUmqerfyPZMvdN4P/0fhFpv+CTl4374Rpeitb1/ouN+daxl2uxcet5aJ3qCMakbT74RBlt/JsOYYOxIE3TRD5MFrWD0LCDyPd9kRZb3etJVOWLiIiozLRB21Y1gR+2iWBHfyRaLusLZCOrLVJdzoUl66bg6dfyUHzR9bg3cyQGta+Db8R57OXFxajVppW6eOnboS8MH98GnzyF19gN3zbjoxJxri4WZ+nkS8KcqQtWY3PL+/Dc8zrIKtqMHbXb4Orhj4r2YU8k/7wDeTPeUu3yuK2zDMQtINvw0afYV7MNBvyxL9olNkBy+jBc00xs2Ob1IqZugw7tRBPmwAas0Qdx9+cbxAY3QMeuopl8IBcfbSpBgx4jMSw9GQ0S26Fv/1QkHBcHep1xfV45loRe94oG0BUiGh5yDVqK1B/2FYrl1ELjyzojSbTzgDNFI6szOl8mghs1k5t9KJaR+gUt0a1NIhqkpGHI40NEYzTyclr2GISW5+o36xfh029qos0tGejb3ljOsF6iAV6yAes3iemNr8fIzEG4WqwjQWzToK7yesI+7CpSc/vV7jQIw67qjLR+96OXzNAlP6PZzWKZ6cZ2yrkOb1sv5gzjQDGMTeqGNmr/D8ETd+rmtcd0JPe+31jnXSIgPkt88IMIfu8bhquvEI1QeTzER4UF9t6B035zCzL6paHzFVdjSEZfJItjUvjFahFiBwufRxwOfoRZy8QWN70eo2XaxTHvfNUQsZ9kUQp1/CLks5CS0V8HS0A7XNX5PBR/9aURIK1ZimXfWqcLDXvjTvEdaxCUUD/Qq9yhj713zWbvIny81b68xn26iCDwK6hYQk0XAdL/WZYhAqf+zfXfLho3qA9s/Uo/hGMv8r8S+bS5JX1rvsKWei3gFpeEZk1DQ1yXJvKMfx3uTjurFmrVromSo6LCDuPEMT26XD7MY7cRQJ3RvKX6N5KEzrdYesCsx8oITP3HTQq33SUl6p6wc84NVLiyJ8z/YI9QD+Gon4zOv2ksagfhvCSR7zsjWex+vwN5mGBZhnpNECcjPTla0ZQvIiKistSmQzvRJi7Ghs/NRtYabDgANOiU5nLRuxi5H21BScOeGHlXGpIbJqJdv4FIrStm+3Itiuu2UufPku1bjPbtpkJsq9kYjcVnZsC0badYz1nN0DJko0qofwVu7tEA/pbHb0X7d9j16JzSQLQPr8b17cV5/uhuFMnmRrzWWQbiFJCJDd0tmjdHNyBnZKAh8o8CMeloCeQz1JLbXqoOYuEm2TQpFhG1+LehaEDLxkzRLrVj9i22NIie+0Q1Yv6nekS0hMZoakZHNS7EBbIt9dOPsHzDo0uReolY0I53kJXxJ0xZsBb7gkdYuUjABZZeht2+3aJRdwwbpge2+cE58oAek+099dCAwtx5+Ntzf0JWVqaeFuzCX5vZWDRofyX/FduZoj5Q2ykzCkRkHzaJbVLRUm7Su1l4KHsK3lmzD8fMo+spHQlofLG5c89CLdniPCsRzeS6pQubQI7CxHHZjA24MFEGd1qtpmgsj8nh76EfUGcROY/YbPOphnVy+zSX4Vmhj1/YfBZKvXq4UP/ppHqbXKarIOjbAyqNHVono/iTl709mXDXtzJ1mJPxhPi++XoXW8weLTW9Pi6IJnhq3wItcQDfqIDuS2xEC1z1+xZI0OmT25DQ4tLQQaKrKNOg/fq6NHz34+n4+Wf3XjLplAMHcGLTVzixpQCnHP8FpybUR63fddFTw7uggT1R6jhojVPlNuvAVvZs5hWiZVqY4Fj4URVUQ93Uq1WPV9/f6iHFsTgjIfBwEPPVLCFwooiS9/JFRERUxlLa4dKzROtq22bVRi/+8ivxbwO0kUFPkG3YpdolH6knDRvtvgn4RJ7AVNu9MVo2E225b3z4SpyKC7/agmMXd8E1oi1qBEy7UbjjGGqmiCBKLS+E+g3s5/lj+7B2wUxMGpeFrMcewoQVMqWmOK2zDMQpINPqdsCwMU/gCdtrEFRfQEpHpIqWtYqKD67FZnGQnMOFkq9zzisaq73LIkSthXZ3PYUnhvREm7o/YsuymXhmTA7WxnTZOQEd7gpO96DLgA1/fxp/ezcfP1zUGTf83x/wxHVeD++ZqGXGRl7VaodhTz2BIb3aIOHHLch74xk8nrNWXUmPOR1n1hKhWXR+jhTYhssjLk47Vf9hE+b4echnUatXP3wwo4b+6aGHMsCKNLRP9siZwxEtL/89YGECRHft0Lq5MVxvt+wek8FXQxFQqeBE9pj9NyiQKSuJI+/GORclYHfxWeqesZD+Z1xGOaXGqaj30GjU+JW6ElE6DXuju9gPKrCVgem3yWjtv8/PoVmSOqY7NuX7e5tqXdhO9Xh1vjj0YOeI6hj3kBoPB9GvG9qgjp5cWhHLFxERUZlJRsffyEbWeqw9WIy1m/aJRla78Be9m13vaPOJ13291Dk4uUVL1BRB0Nfb9mHL9hIkplyKlolJRsC0ezOKRPDWrHkbYzmeFOOjSc9g5opCnNm2F26++1EM62RvAcZ/nfERp4CsMdSF6oM74PslAQl1ra9a+upwIlIvlQdxMz5Zvl7sikS076J3UpMLVIPZt3O3Y94E1I42MPHqeE0ktLkaQzLHI/u6ROCHDch3v5UppMaNZJ9RMXb8R4RljnTXqrkB6zeLpl79DhjYLw3tUhqIRughY8ayIO9Zq5mANlcNwaPjsnG92KSSDfn4EmWbjoPFlisPB9Zjm7zy4bxaoXjJIxY6T2xbH2J4VsjjFyafxcA+HDDA6DmzB2qN+4wUgdV1aLl1RejHyDepJ7ZL92a5kdP9vTymvfjGfGBICBfWPw/FB/bga5Es454pI0jbv0vePxYmMCkDl73xAk6rUxsHvosUZJ2ChJGP4IyWl+j30XMeB9lbKYdqysC0uHmL0A8hqdsZHZuJf7d9gJkr5fjXk+/Hn37QfwGHC+SY9WDeyxcREVHZS2zXFrVF62rz8k+wfrd4f3nnEBe9L8QFst33nyLsPtfR7jtXN+4vSUazGsewY8NH8H3TGK3aiM/bJIuWmwiY8uRIqUQkRxMbHVyr0oTm16hbgdokJuDnHx1t3nivM07i1kPWoaMcV7pPRKaTMC93AzZs+AR5C6ZgyodyzxiMg7gDeSvEZ81S0cEMthp3RgfRwji2Pgd/yvkAazdswNpPRUNp/D8Qqa/B6sLzZZYoxlcf5yFv8VpjfKir1ch5KgcfbNiB4h0bsHTLN+KzwHBEz8tp3xHylqV9S57FpLl5Yps34JPcdzBlygfigCagjrwsXvwVln66FmtzZ+LVJaFTVGprjH23YYcIEDcshdqk+heI4lC26di35G/iGH+CT8TxmvLSR2Jf1UaHru7N4Eh5ZMvsTPUDvOr33xp3Q8+WtXBsyz/w9OR3kPepWMeHOfq74Y9fyHwWi/bdgh9osXcRpn8CdP297Nfbi3enWX5nbK8ItvSfft9+i6/1n2YvzrK/W3+bzLIM/XCKZf8MrG/3wjcDT3AMQQ3X2/ou5mwNDDVUwcncd7ElXGCiWB8AUnqn1voVLn/3NZyo1xD/2X8Wfv4lePiifIhHvcf+hDO7pOtPvNky1zIs1HYcNDl8UwTE07/6L1q2DtXvKtVC59tvRcuzSrBlThYyx/8NOTk54vU3TFhov08ySMMGuEDWnL61eOfTd/BJhK8HaSwqfpEnS1bPNMqOyNeTPt7tOqwxmvJFRERU5pqmom1tYMeKPOyukYzU34ZqZDVG5/aicS9vVZFttjWi3bfmE3zwxjP4xzr9lRqXIjlRNFFF+3l3/WS0kgNUarVA0gXHsHatOLk2bgUZL3l2bh2cY56f14g277t/w+wN9ltt4r7OOInfkMU2gzD69s5oXHM3PnlXNmzmYfGGH3GBdfhP045IldHycaBl+86iSWRKQM+RI3F9ywb4cdNHmCkaRjPf+0TsqCQRp3rXuPv1aFe/JvatewfvfOl2vdnUAAk1t+GjnEn406QcfHqgrmicifXry86el1OjDQZlDkLnxqdh98p3VINu3kcb8GODZqgrMuL1t1+NxLP2Ye3cmfjHSuDqPt4eXBCT+gmoue0j5Ez6EyZN/xR763XGoPvkkyDLNh0t+1yPWuvexby5H2HL0QZod/sjuNW8/83JSx7xEw3Pu/6AW2Vh3paHd+bOw7wV+3FafdnrEv74hc5nsWiI6zLuQddv3w3c82V7vHpDXICVeM51mmAGdJahjB0Gi+VZ58l4GftbWx6g4VjfdNwS9qEeigrkxL/W4Ev1xol9EDYwMR6MsWWuXJeHe+A8kkFZ6txXcPoF9eH7pjb+dzQw9vSUU09Dwh8fxZm/7ag/8a5lvxbYaO63SStxQT/7Y+7NnsFidMJVkXoFa3fAsLGPoq/IY2d+V6guqGzYUIj9xxsg8Yq+GBJquHSNDrimdyJqHy1E3tufovAn/blnLXHDIFEOzjiMLYvn4V1xYurZt4PrsMaoyhcREVGZS0THdqJ1IUdmNW+HzmEaWQm9RmLkdS3RoGQDPnpDtPtmv4tP/nM+kvz3ZdRCm+biXHv0GE5r1lK3gxqgpXymgVh+QrNWqh3jmTg/D7i9HRKOi/PzGzOxYEczXH+FcwlxXmecxPV3yKgacfmNMSI3a266G9/vLMav6x3Gr0R9p3rG2pddL0/I3x4jIiIiKiOl+R2yKhyQbcDMrLfg9jzB5L7ZGNRWv6lM9n6ESX9b4XKvSQK63DsSPU9m+5MBGXklqpgNQ0bhwMb/oMPfHsFZl5fhDW1BP4pNREREVPYYkNHJx4CMKpK9i5A9aSWK1Y9cMxgjIiKik4sBGRERERERUTkpTUAWv4d6EBERERERUVQYkBEREREREZUTBmRERERERETlhAEZERERERFROQkKyE455RT9FxEREREREZWloIBMPnSRQRkREREREVFkpY2dggKyGjVqMCAjIiIiIiLySMZQsQqa84wzzsAvv/yi3xEREREREVEox48fVzFUrIICsrPPPhuHDh0qVZRHRERERERU1cmYScZOMoaKVVDUVbt2bfz888/46aefGJQRERERERG5kLGSjJlk7CRjqFi5Rlz169fHf//7X/zwww8MyoiIiIiIiCxkjCRjJRkzydipNE45IR+r6KKkpAQ7d+7E6aefrlYi/5VCfJ2IiIiIiKjKkg8+lK+jR4/iwIEDqnfsoosuQq1atfQ3YhMyIDN9++23/t4yPuyDiIiIiIiqq1NPPRVnnXUWzjvvPNSrV09/WjoRAzIiIiIiIiIqG7xBjIiIiIiIqJwwICMiIiIiIionDMiIiIiIiIjKCQMyIiIiIiKicsKAjIiIiIiIqJwwICMiIiIiIionDMiIiIiIiIjKCQMyIiIiIiKicsKAjIiIiIiIqJwwICMiIiIiIionDMiIiIiIiIjKCQMyIiIiIiKicsKAjIiIiIiIqJwwICMiIiIiIionDMiIiIiIiIjKCQMyIiIiIiKicsKAjIiIiIiIqJwwICMiIiIiIionp5wQ9N9EldgqvHzfLGzW79y0uu0l3NNBv6ksdi3AmPFLgfRMjL2xif4wnvR+azkQL43oqD+jymDX/DEYnwt0yxyLG8oiaxCVKWfdswsLxo7HUnRD5pgbEDZLr34Z972xuczq9Cpdtpz7rszPMUTkBXvIiKhqkg2P++7Dy6v1e6o0ZIP4vvvGYMEu/QERVU6sh4k8YUBGVYu82vrSS66vStc7RkRUbTTBDWNEXR2pd4ziq8kNGCvOj+wdIypfDMiIiIiIiIjKCe8hoyrC471Q/1mA7OeW4vvmA/G4+F4d/fGu+dkYn/s9Wt32OO7pID495MPSObOwaOM+lBwXX6jVAK16DcTQ7kmoacyh73fognuuBhbOX4Fdh4zvpQ54AHdcUoylr4n5txrz17ogFf3vvwOp56qZsWryfZi1pRUGPt4Wm1+dj/XflAA1aqJOk4648e6b/d8LNb5/X/5bmPXOKvi+O6bmq1W/FfoMuR1dGhmpc/XdZiyYPgsrfIdwTKWprZgnGZvHvWXfb8f3IX/uLMz/3IdDR8X7M+qgyeU3YkS/VNRxvYQTat87Pje35cp70Of4Qsz/bBcO6X0z8ME70OrAUkydvQib1b6ohQap/fHAbaHWKQ6R2AeTxT7YpfdBnSaXos/td6DjBfrYHNBf1Mx7Jmz7/pW3sP7AscD9FBGPu/DNKsx4fSG+FAdc7sd4541gx7Dvk9cx9b312Cd2jTweSb8biN6/vIWXl9vvczm0fSneEvtQ5Seh1gWt0HvAUHS7OEy+CLvNh7B00mNYsKsthj47FG2tx0Ifz2OdR2Fc/yQP+SZwj9A9/YBFs1cY+Vdvz103thLlUecZ+XW/BNs2esn7ofOG/oJNiHTJPNi8Nwbe1Q1J/kUfwuYPZmHBss3GsXArs+Y9Ordmoe2Wl/HWxmIcE/WNKgNiH616YwYWfinyvtxHruuwKoey5a9z7sHNWIRZn+nj6VYWBE95zlPdEzgO1nvIDm1cgNfmWI5J6z4Y2nwzsuc47iELyscJSOp4M+66XuSrEHVINGXLU91gFeo+N+fn5vv+o5C8cQbe3yryi1hinaTeGPFgL9RZZ8nLMn3pd+GBq0OsUzq2DytmTMVCWb/481gX3DCgD1rJPOpcv8dzTPh8PhXz9X6Rx/bGu4dGrIelmOoroirq1CcF/TdRJbYL+R9uxIEDG/Hhhx8GvXbWvQrt5bnmnBZoenQdlv1rFTb/1AZdmtdBSf7LGL/AhzN/NwKZv28kzhKisfPUFKzYdQQ/m5crfj6CA1tX4cv/iXlayDDuELYu/xS+4p3I/2Kn0WCRxPf2fLkG/1q9DOu+Dsz/8w97sD7/CFp0a4XzxPtdaz7ExgNH8O8168SJ9mfjSyeO4+j3O7F+2QackXoFmp4lPju0Fcs+9QFJVyBNrVfMK4LHcQs247v/yVaBIOb7+Yd92PzZCuyp3xmXuQVlcpuyp+Ff+4/iuD9Ncp7NOCDf12+Dq9pfKBqM4iT69Dgs2PIdjv5ifA+/HMWh/6zHyp3noYP4zhn64wC9781l+Dk+19tS/HU+1u88hKOWfbNu7b+waoXYF0fMffEzjuxejzVHWqDbJXKPOXw5A1nTVuGgZR8c/X4PNn66DkdbtwW+EMfmR2OS6fw2Rh6w7fvvjfnVtDoejrtovGSPfxeF3wX2o/GdfOyqe6VYvtz3pcsbTrvmP4Nx7/8b5q6Rx+M7Xz7yvxaNmBNnoukVaZBJOyQaSE+9KoK/H8wvymUfwNbPv8TRVl3Q4hz9oVXEvF4fTU/ZiQ+/2IijCboMab5//h1L/3Meut55HVJqeck35n7xIV8Ebf78q7fn67PS8NtEEdTJPGNM0QLb6Cnvh80bYj8YxchCp+uQWM7nhTigWtuCzIMHtmLVZ/vRKL0tGpxSgvwpYzH1sz2BY2GW2Y1H0aZrC+MCz658fLjhAI5sX4N1IhJX+USVgVOwIHsc3i0Ued/cR3od+V+fhyvFPgouueVQtvSyDu3bjH9tOxBIq84XK75thJ6XNlAfecpzXuse8zigKa7Q+1Itf/q/cMB/LEXav9mMFV+JHCLmNcu0ez4uUflq6Ze/oE3nFP/FNyuvZcvbOcFB5wN/Gk3Oz/X7A1+twtb9JcY+kvnqv4VY+/m/sGLV1kBelun7twiSVFkJUc//6W9YJusXWx7bjvxVO3F+5/Zo9I1j/R7PMSqfi2Wc16E9LpQnATPdW1Zg4z5rfbYPG9fL+uxC7JPHM0Q9HFN9RVSFhbxuRFRVNbn+AQxsWQv7cmdgwcZVmDFnM0ou6IYR/ZPVdN8/F2Lz0QZIHTQKz07S96A9m4Whlydg37L5WGFczDOI81Wd1IEYK783aSxuFsvF8UMo/q4OWvXPxLMviM+z7zGuzB/ajDX/MWYzlKCkTkcMHTMpsI7fiYaOCIref2+9/o5D8VK8sWwfUKsJut01FpPkfC88i8z+snehBOvnLxQNmmDr57+FzSLddVrfjMxnxTxivkljhqJbE5Fei5JP5mPpN7WQ/PsHkKW/99KkZzHq2iT8vGUhFm3XXyyVOki9zUj7pDE3o5VMwnfFOHR2K9yc8axa57hhHdFA1E6HtqwRTc9gu7b7xNYmINXcB+ayLmqFVgn6XpTbWqnvyiuycrrtKrVj38tpXo578Z5jqNMkCd0eMNIpX88+0EWk5Bj27SnWy9ZKlTe04sV4IzfU8bbyYdF7Mh+n4o5Rz/r3ybOPD0Vqwj4sfWeF2OJgnvL65R3RVjTANn9uXUYhVn5xCEjugu71o8w3Yr/Uan6DzoeTkHV9MmQWKNwo83xH3CPmzUxPEH/LnjH5Hd1L4THvh88b4guhHBVb9//MdIl5xo/CDckiZUfy8f4/xbE9ug/FtRqgyaU3G8dULlse1+aiYXxgH77WizGVHD0HHc00yB6g4n04dl4TJKU/YBx7+fmzD6CL2H/HxPyO3BOj0pct0zGxO5Kv1/lUHKdnR90AuTtKPn8fC1XE7C3Pea17gq3H/Lli+TUs5UWkY+xd3dDEcVVo8zvz3dfxa7GOPYsxf7lMiYPnshXlOSFWZzRBL12vyDpFHqOS4mL83KSLrqecZSWYSucR+35Q+2LEDejWrw9aBV9NC1ayAvNFOauV3AsPPG7Wc/L490HS8c1Y+E/nGaYBupj7z1afhauHY6uviKoyBmRUtcjhL7pyt77sjfE66HjbjeLkJCr+KbPEibYJ+gy/AU1UadANTXyPwndew1NjHsNjj4nXUy/grS3i8+OF2GwdT3VGW9w8qCMS5MXKmgnocm0n0RQUf/7mZtzTuQlqyWWe2wo3/i5J/FEsGvTiH78G6DV8INrW11c6RWOv7a33oFcj0RjatlmkJFjJl+uxSzRoW92UiRsuTTCuqNeohSad78FdvxPNCHEiXB/UyhJp3noMqC+CzmFdYLaDatZvixvu74Nkfy1QgpXrxFpr/IyvP5uBF57S2z7mKbwmTtDHcEg0BEQDppRqigbtHR2MtNes3wV9Oqo9hrb97kEX2YAS6rS+ER3VLisOauhKCb9uIBomP+LQLrFPi0tE2oxl3aMbjZGJxv6dln3v8bgnXH4zHsh4AL1rFmDpfLGPJozBE1NWuDemS5U3DCVfblKN5pDH27R1JdbI5B8qxPzXnsIYmXbxeup50RiWn/97s8tPQnjM6zXaotvlYl2FK7HC3NAvViBfNPySL20vjkOU+Ubsl4EjRKNaHaeaaNC9N9qeLf4UAUu4AMFr3o85b8h03WemS8xztgi87xN5RDRi9xWuR8kZSeglGuSZtyWj+IuFeOu1icgeMx5vybLlIqHrHRhoplNKSMXN92XigZ41UZC7ADNeGo8xY1/GCseQrtKIR9ky1fzNQDzQXedTsYxaSd3wwIC24q994niK5rKnPOe17nGxVcx/VO7HEYHyItaecOkNePAa4+KZoRDrt4j0hFlH4ebgAMZz2fJaTkqpQde70Edn0FrJN6Nbc/Up0ofcrOupSGVFp7NOF9xl2Q9SzZbdcMPl5j4Mr2TVGhSKcvbznlWY8fxTxrY+NgZPvbYc+8ShPCTKgvUs0KDXPbjZ3H8R6jO/mOoroqrNQ/EkqoLqdERHeWVbqPn/OqFjffWnUIxDoqGJ4yU4dOiQ/XVEN7wCIyzEchJQz6UU1Tmvnv7LUOvMM/VfVmJe/3pN4jM5Rv/IIddGfvF38myVgAbWITBa0kVy2E8x9gWdqfU21W8Q/PSyWk1xob/XQHxPLv74MZQ4t/2Qcb3y2HHrxsfGuW8MdZBg2xe1cGaYq7m1Uu/B4w/0RoPCtzBx3MMYed99ePipiXjrExkAeNHAsQ89HvdD6zFjzEg8PHEqFuTmo/A/xSgJtcJS5Q1D5OOtie+pI1TiSLt4qftIRAMrOJne83pSekexx3ZhzWojV65ftxnHRADTpbNs9UWZb4L2y5k409J4DMVr3o85b7gdrxr1kCDb5mJb5Jbv+udEPPxINl6YuRgrvvRhn9y+EGfRBo2cCT2E9TPHYGTmREx9Zynyt+5CsdzPIeaPRTzKlsl1WfUTVO/Roe/E3vCU57zWPS708oP3o5j14gtFTjB5WMeB4ADGc9kyl+/1nBCjhAS3neE8R4QrKzqdTS6EDIliZewXcezEOci5vWo0rwzW1DcMznSHq8/8POUdouoljqcCospDjl+f9cUx0Qarg2Oi4fbCO+bpWjQ45BXIi2/Asy49bcG9baVRjG+Dro6Lz74T/5wtGlHGBzYJ58rmkFvQBfh2yuvdbg0MvU27vg4ezlhShK/9kZ/4nlz82R3xgMt2y5f7o5FFYCtrkqM/GidZU8mPcNw+EFd1krvh5pFZeHaiSNsLcnhcAjbPycbLbsOTIvJy3EvUzfL5/62DVr8filFjxxnDqF4YCGNQTvyZx/vr7cHbZBxvTXxPttOSbgwMpbS/7oH1kRCGKPJ6/U64tBGw77Ol8JWsEMGIKDuXd9MP+Yg130QnmrwfU944JMqebHBaHf8WxbJ9KjYwYftbmPyBKEFNuuDm+7Iwdrwx3DWzq1tJDVayfAamfl6MOq17YeiosRinh5QNVD0hoZRP2ZIO/fdb/ZfFAdHoF//UOVdss6c857XucaGX//XOoDlRsv1rkRNMeh0uQZd/HS7BmueyFU05sTrN+OfHH+3LL/mxrI5cmH19YD2Wfu7tYpWxX2qh433u2xqXnyXwlHeIqhcGZFT9HFqFWW9vRkmTPqJRPQp9xNlF3U+m7uFJRqffiBPS9kV4fr5+8pZpz2bkqydgxcs+LH5llnrKn1KyCyumTMTiPaIZ1qyVSEmwWpe2VUMrN789Hgu+1Gk5XoJdH7+AyZ+JplKdVmgbdLZMRlt5/9KhFXhtygrs0tt0TJykF7y4UA1PMdRCp8vEWo+swgzxPZ959Vc65EP+l7uMK6RBGqCBbJP6VmH+RuPqKkoKsfDFRcENg7g4Bt8HL2DGcsuxqHEaah79Wb0vLra38n48otPkmnaTl+NejOL/ivdnJqNjelskiWC+1tF9WP+PpWp4zY9HvldfjyfzeBe+/7z9eH/yMl6Tx9vUvBPai+T7/im/p58Cp+3bmI9CM4/ZRJPXE9D9dyJvHFqP5XPkkKYEtFdDk6RY800kP+J7cxPF/N7yfnR5w+boesx6aam9fDwnyudRkcOT26KWDkYatOqGjs0bIEE0fkt8SzF/lVymCJAsh8ONse5aSO7QHW2TROP5jBLs+3IWlm4VH5d8D/18GYeTXbYCjn0xCy98bB47kfu/XIDxs9eLvxogubWoTzzlOa91j4vmbdU9cIc+ew0vf2JPx/PvWwd063UcWIrJjnW8NekttY7kVm2NDy08l62oyolFA5FHxD++z+Zjs7zIJpQULsTzQfdgxYtOp97XZjmU+2HWK1OxYOZULPIwPLZWx/ZIrlGCVW+8jBU+Y8iv4RB8n6/3799o2erhmOoroqrtFD72nqqGVS6Py7YzHrdbjMXjx2BhsXzs+T3oKE4KxhO0xLw1O+KB7IFIFg1L9d7txFPLnM/9Ec2hHiHsfNSw8ej1WqhVqwQlzvX41yH+dlme8Yh+l3u5atRC20F/wtBU0ThxMrfRuS55SUaeDM1HT6unLIrt+kZNtavRAN0eysINv9bvLXxzHsPETxwtUueyQ+ybXfPHiO1xPGJa8D+e3nm1NFwa5f2B940zeh3yxT6fYckROh0hlxtqH0n6mNSa/zCm5odukSSobUOp8oZT6OMtXiIwMvebemqZWI5r8sW2W3/mwc/DNqt8KB1fj6kPT1UBChr1wtjH+qgGp+Ip34QoMwj+fN872cj+OLDNxn5tEjnvX1bsLW/Y6PUfEuXxmCiPlsahcoFI12iRruLFGP/UQnUfmzudp0Idzy9n4OHX8l2Pj1LfuV8MJ7VsSXpZh2rVwrGgyknEGWIdWXodnvKc17rHJR+EXL6e17+Pw+VjkVczRV517lfJa9mKqpz4+fDWYxOxwnHogtIeIr+4H6NQZUiT6Rwn0imHLjrUunwonh0kAlPn+qI5xwj+4x8qnzs/D1EPx1RfEVVhsmogqjZ2zX8ZC3fVQqv+dwROoHU64p7bUlFLnMxee2UVDsn3j4/CDZc2CNwELRp8DVr2wj2j3U68sWqKGx8aiLYX6ABK/tbLr7vgjgjraHJjFrLu6IKkc4174NRvMV3QFjdnjnMPxiS5TWK53S6ug5p6m+Rvvtzw4M324XY1muCG0Vm4o3MS6pj3mah0pYrlP+IajElJ/TJxx+WB/SVvqB84uoyG8qk0jsM9v2+FBmfrfSDI7ek1IjPQ4L6sD/pYthc1Q+wbk4fj3nbQKAy0TK95bhOk3io+k1emy0iTGx9BVv+2aGAmX/6+V+c7cE9nfzik1OlwDx4feUMgP0nyt5J+Lz4fHqJxE01er9EWqS2N/Z38u+6BYEyKMd+E0iD9GqRatqPmGcb4r4h532vecFOnE+4Y3s2ybLkfbsCoTNHwlfumfi+MCJou9tOIXkFP/XN16R0YdavjOF4+EKNuaxvmd7JOctmyqNNR5LF0y/GUeen6UXjEEvB5ynNe6x4XavnDXI5JP8ecbvlY/g5Z+j0Yl+kejEley1ZU5cQvCTdn3BHIxyKvJlw6UKyvDI+cTOdTWbj58iaB43ZGgnE8ZDDmUVA5E1Rd1z/Ldvw9CVEPx1RfEVVh7CEjKgdhr1AT0UkUodehugnVk0tERGXGvGZBREREREREJxkDMiIiIiIionLCIYtERERERETlhD1kRERERERE5YQBGRERERERUTlhQEZERERERFROGJARERERERGVEwZkRERERERE5YQBGRERERERUTlhQEZERERERFROGJARERERERGVEwZkRERERERE5QL4/5iNYkq0BfCbAAAAAElFTkSuQmCC;" parent="1" vertex="1">
          <mxGeometry x="2040" y="-96" width="868" height="296" as="geometry" />
        </mxCell>
        <mxCell id="JhqW3P9DHBe0ouiO6Wt8-37" value="" style="shape=image;verticalLabelPosition=bottom;labelBackgroundColor=default;verticalAlign=top;aspect=fixed;imageAspect=0;image=data:image/png,iVBORw0KGgoAAAANSUhEUgAAAhYAAAFYCAYAAAAP/bVSAAAAAXNSR0IArs4c6QAAAARnQU1BAACxjwv8YQUAAAAJcEhZcwAAEnQAABJ0Ad5mH3gAAFdASURBVHhe7d0LfBTV/Tf+D9ZL218VDUYxIUBIIOC/XH4NPJUABWKjRMHalhofeIBgRIWfiiC03Plx9xHEC/xAiECAH0hexXoBSSSPAQoJ+kD6R2jFkBu5iuWiaCtttd3nnJkzuzOzu9ndMIHd5PN+vcacc2Z25szssuc755xZ27gEEBERETngGvWXiIiI6LIxsCAiIiLHMLAgIiIixzCwICIiIscwsCAiIiLHMLAgIiIixzCwICIiIscwsCAiIiLHMLAgIiIixzCwICIiIscwsCAiIiLHMLAgIiIixzCwICIiIscwsCAiIiLHNMv/Nv2rr77CX/7yF/z973/HNddcg2+//VatISIiopbM0cDiH//4B86ePYvrr78et9xyC6699lq1hoiIiFoDxwILGVTU1dUhNjYWN9xwgyolIiKi1sSxORayp4JBBRERUevmSGAh51R873vfY1BBRETUyjkSWMiJmjfddJPKERERUWvlSGAhn/7gRE0iIiJyJLD417/+pVJERETUmjk2ebN1qED2iO6IT+yO0asrVBkREREZIiSwOILsGQswdcYWfKhKroby1dOxFM+goPwTbHsyQZUSERGRIfwDi6NbREBxErcPvFkVXD3lFR8j5d40JKo8ERERWYV5YHEE2ftuxbPPjUWyKrl6KlBbrpJERETkU5gHFv0wYfp9iFU5IiIiCm+cvBm0StSdvBND7uHcCiIiIn8YWARkPAnyHvqX/w4TuqliIiIi8sLAIqAETNj1CarK78XhxF8g+5QqJiIiIi8MLILWBR16fIz9e/n7FURERP4wsCAiIiLHhHlgUYd3lssfxlqAFw59IfJVyNV+KOtlvNOgb0FERETho41LUOkmq6ysRJcuXVSu5cqf0h1bE97lr24SERH5waGQECQm3Ini9wrA38kiIiLyjYFFCBKfXI5ZeAlp/J+QERER+cShECIiInIMeyyIiIjIMQwsiIiIyDEMLIiIiMgxDCyIiIjIMQwsiIiIyDEMLIiIiMgxDCyIiIjIMQwsiIiIyDEMLIiIiMgxDCyIiIjIMQwsiIiIyDEMLIiIiMgxDCyIiIjIMQwsiIiIyDHhH1g07MHiGQswVS2Ld9epFZGleHsahi9ZhmJbOlTBv/YQVixJw4oSlRWcqoN/1ViXMQ4dMnagzJI2HMCcPqLMskzDunK12qx8BzJM22Wsr/YqMy9zCtTrhLL106zrZx5Qa4SClaJsJfJU1jdbPc2vD4ZXPa3nmDfTvM60WK6Vun6+1gV5HSTjWmjXzyKE90LR9mWpY/Cs52xcf+862Ovf6HXQNP5eBVVnX581p2mfO88x7OepXx/9upjTRBHJ5YCKigqVclqt6+3nX3K9Xa+y9e+6Fv3mP13rj6h8BCna9lPX/au2uWps6VBpr1281FWk8v4ddC1f/FPX8qMqKzhVB/9Ou159aKwrdsZ+W9qw3zW797OuV8tU1i+53VjXQ+tOq3wjyl53PWTa56l1z7piH3rddUrPCrZ97X3BFdv7BdcePeeD/dj6eQRVFz+86+RtzwzrtbLmfV1LG9t18NT7dT/XMtj3wiOY8/BFe12j11zx8d4Eug5y/ey9KuPjcxO4zvpr3PvQrqN5nw6wvzfaeVqvvXaeqp7mNFEkCvMeiw54YPpkPBCjsjH3IS0JOHniiCqIHHFRiSplTYcqZVQBds+eiRSVD4VTdfCvEzp2UUlLOkTln4o7zGikpnZSBf7lbchDUfoIPK5Op7zqLNDlDnTVs0JnxInPTNAKSpCD3sh8zDh2Jzz+aG8UrXmjyXeQXePFB7i0AX47A8Qdc05eNOZmDfadV3VA3i6/PQr261C2fhVqH92M3Mfu0AuuIu09SU9Gusr7Ja7TADSgxjjHIK5D+rLNWJymp4HBGDcpGkXvHw66V6Vs/S7kJKVjnLGPxIeRKSqa81rTemZ8sb83SPsl5iadxaINnt6VxPholbKmiSIR51hcIXHD1mL3k6MQZ0sHqzZ/IoYvkcMXjQxhlCwzbbMA+1WxIbg6FGB+YnfEj3jVf0PYCPlFX7dMbwjM6WahNTxAZqrnGOlZ6RiQt9HdJS4b2EWl5kBBsXRN27qdk2JgCbvsDZ5gH87w7sL3yCv8qNGGVWt4kvoi1QgKCo9a8tpwwGtiHziL2iq9xMLHdej62ApTg9tU1mGIoWtEgGDje4ijaeznHfJ1aES5eXjMPTRSjcL3z2LA3f09gai6ll6BoG0owz684v86HECR7b1BwRviMyn+VsoAWiffr7rch7V6mNNEkSiyAouGPSgQ/yB79OynCloPLRCYXYDdw1JViY0MKvJrMCZT9mjIZT6GqFXhRdypjfR8CZvHs91zI0aKhtayne8GS294THebkrjjzD22EHMrRXAhXjv0/b7Yd2yqrVH/CBNeixHlIvCR2yaJvDE2L4OI0jxsNgUKWsOv0hrRyBSlytfqyz5xl5wz3VZHU0M0oTId+/wGWKrhedTWkBi9LqKhy+gzD7WPynqKc67yHv/3eR2C4v+90IOKeVjU5RHLeZrJxlQ7N/f6Bkxwv1eeuQ8TZIEM9nwdRzs/vXzomhhk2xvUEK6DPOZmEfxYAgVJvJ8Tqkao83gEmSI/x1SHrvF60Kl9/kY2IHOnCE7NgaR8L6c3YO5Oz3tubvgbvw5SNOLi9ZQWgMjP3vLejfdiEUWwCAos6vDOtiO40K4f7uurisituLQQCckzkRGrCposDQvKP0HVriesd+2OGIzFxhezXMQXONbMczc02p2aKh8gvow9X+T2wEDSGxGvBllr0IwGUTRC4ut9qNekxN6mBkx1rxt3jzIwEV/6OdP1xk4uRfGyPiZpUy29AV1T+3r1aMht3Of5aIOPOui8uuJN3A2d2IdxPKMR9PB3HQJp/L1A+WEUlorr1GhAJN6jJZ7jdn1sBDJF0FakBWWe/WfLNy/dE6DkmnuPtEDQqEMMcsT19jkBNeB1kI32RtswliKuryewU8MlVadVXtJ7ZoZqwYfxWYtBR+0fgN5LMmDSU56hDItA18GgB1o58Qs9QYm9Z4yohYiQwEIEFcs3YP/5eGRMvw+X3Xa2ODWovaCSkUSNZ1u/5IPjr0HWGhd3QyKChlx5h2sdz/bJfPdoDgpkYxbfgCJ3QyPZnkTQelgaocbUCwvtd9mNBAXiDt/a0J1Grew+t2ksMAmJ/b2okufcCG0ejLXHo0Mf2bBfBlWHnELTexXkddB6DWQDv9NXEOqDaRgiZ7rsCRHvtRF8WM5dP56vQEYT1HWQ63chTgTKRlBVJo5B1FJFRGDx4SYVVDw3Fj9WZdQSVKOmUiVD4qfL29ifZfJm4Emk2pd8I3eP1jkS8u5WNBymO3C9hyUwe+OkBQXiDnuALSjQe0DMkxYFrQGzb+vvOjRFiO9ForzG5l4lz3K5czsGxHfW/gZ7HWSPhh5UrPDTq2DlmeDbCal3R2s9GubATPs8uN9vffKv76EXIeB1GIwBckfmyZuCrIMz7xtR+An7wKJ+98vILb0ZQ55mUOFfR6QkJqKi/BBqtbz8DQvvyZvBubzJm6HQJ1baGo5geD25YVANRV6JZ3y7XJ+MZzRW3hpvnPU7YfOQgH4H69mfCDRmN95jYUwgtQYFauLgpF9632En9keq7GWZ7ZlkqB3DPgHU73UIndd7kZZs6c6Xjbd18qZsMM11dEDBSi1AcD8NFMx1EK+R9cpcHlxQYXwejMmUWvBinnMh1s+R+3NPttQ/U0VrVvl5IifwdUhPlU+ybPQM8djPM1inXsXoK/Rvk+hytJHPnKp0k1VWVqJLl6Y+W9gI+eNYrxyBdy+/DDRMj6G2eDXIXZ2FrRdV1i0RYzLXqnkV1m2GDNuAuMNZqO1fgGnJellwZGDxFLb0eAYFTs+zEF/aGeZhAzlk4Wv2u7bdUaT6vAOVwxAbUTZpoXWs3kQPBlRGGGDe1l4HIXO5+S5b9kjM02ftS7Jnwj7PQJvMJ59O0GUufwSYLru69fp6NcI+zlPfJgbZPuePSIHqEeA62OroZuzHfh18vRfmfcj1cq6InHho2s5+rbX5K7Zz0rZB4Ovo67WNXwf9GvgafnG/p17H8NGzYbsW1s+DLtB7GvA6WOoRfO+KVQWyR9yPpSeBsas+wQLfHxyiqy68AwsiInIrX/0LpL0EzNrzO0zopgqJwkxkPW5KRNRqFWDrSx8DPe7BUAYVFMbYY3G11W/H5JxNqFBZb+bhDiJqjfSeChFUjFiFqhdt4zREYYaBBRERETmGQyFERETkGAYWRERE5BgGFkREROQYBhZERETkGAYWRERE5BgGFkREROQYBhZERETkGAYWRERE5BgGFkREROQYBhZERETkGAYWRERE5BgGFkREROQYBhZERETkmLAPLD7ctABTZ5iWTUfUmshSvD0Nw5csQ7EtTU6rQe5qcX1Xb0etJe2g8h3I6DMOGeurrWm6+gpWokOflchT2dYmb+a4K3b+ZeunoUPGDpSpPP9dkCHsA4sfj5+Plc8Zy33oUboH2UfVykjTthPiVNKSDiNa0LP9kMpFsKiOnutrTjuoa3wnlbKmrxSvL3aiMHC1/13Q1RdhQyF34PZ2wGdn6lQ+csRFJaqUNU1OE0FElEpa0g5KvANdVdKSJrrK0pdtRt2xqUhX+SuK/y5IaeMSVLrJKisr0aVLF5VrRg17sPiVMvR6ejIeiFFlLYbsts/C1osq23Y81j45Sr/TLlmG4fk1GJO5Fhmx2lpBbR81H7tHDdSLtO0K9bQwZFgBpiWrjFx3uBPW9q/GRGMb0zFkT8XSKr3YKhWzZs9Eiso1pjZ/IiZeGI21UdswsaRcL4w31U+q347JOZtQobLmOuivH4QxFzZp12HIsPlA/gLsR6Ll3K11Db5+FnnTEP/UbqQ88y62PZmgCp1UjXUZ87CoVGWFzOWbsThNJGR3/XQg29QAyC7sCXgEdcsGqxL/r5c9FUPXnFWlZtGYu3MFHldxq327AZMWIvcxeQep77v27nSUrclDEXojezkwYfpHQFI69uU+rBoFWx0s69T+q0agLrVEnI94rZRuPocgaNdCvVayvV5el5z4hViMVe5z8ZyHTrt2lr5/cT7mxtV2DPf7oDmAOX12IW7nU8Bs41yt1zGQoK5Do3XQ2c/Dep5BvBfu99p2/to5bkSZ7brpr4nxbCuHL0bKz4POfp19fSbt9SDSyMDiclVUVKhUc6h1vf38f7qm/EZf1h9RxS1KtWvHqp+67t92UOVdrqJtIr9qm6tGy+nrn86r1nKaum2upxc/4dpRp/JHl7ruN+e19T91LT+q8tp68z4PupaLvGWfgnZcUz1CUZP3hH4M4/X2Osjz2GYcX7LWwXi93F6rh3Y+1nO3XhfjNUtdRSoftD3PujonJLlGrSpXBU467Xr1obGu2Bn7Vd5m7wuu2N4vuPaorLRnhnV7e96XU+uedcU+9LrrlMqbaessx9jvmt17rOuhdadFWtVPW6+Xa/spe931UO9nXa+Wye29z0Grk+l4+jGM/Uj6vmbv1TKBadfBOJ7k55hG/WSBpY7edfK6tvZjaK8311Gdv1j0a9P4dfUl4HUIWAcf52ER+L1w8/HZkrzPSd+ncc7+rot7vY86hHqdqPWIgKGQDnhgujHHIgu374vcCZx+1R9C8UVx5226s08ZPB4JFw+iuF7mOiIlMREV5YfckxBrTxxERfxoz118aSESkmd6ejRiRyEjHthfap4vIY5h9IJgIFLE+ooLNVrOMbIHwjiPWHGMtqKuZ41jdETGKOP4ko86iNdnGL0s2vmZhzPEdapKxJife/YRN2w0hqAQxSWqIFjpK1BV/knz9FYUvCHu6sRdYyh37r7klTRxEl41Ct8/K+44f2m6ax2McZOiUfT+YfecDPP6zEfFXae5+7r8MApt55CelY4BpUdRqDqjdOa7486ISxJ3wlXBTdjLKxR38OkjTD0DnfD4o729z9t8V6zV8SxqtR6rAyjKi8bcJf7vmOUxBkx6ynOMxIeRKSqbU3hAFejMd+dd42OA0gZYTjMg/9chYB3KdyCnsfMI+r3wr2tqX+v2ap+Z6pzLCo+iKP0RUy+K7fPiow5E/kTYHAsRZAwVLVHpSXyoSlqEM9WoEI3j0iXyaRG1mIcLBK0BdQcaNSguL8eQJCMQqUHtBdFAl2R5Xi8W30MbV5cc7mhyHevFeYqv+605ntcPXyKHSsJLWVWDaAxjEGRPuk9yrDw7/SNM6CNn+YslpEmap1Fb6j1xLqQGU5xDEUzHl4upm9zNcp4iMMjdbOs+96caNZWiQY/vrPKKqOMANKDGXMku5vH6wVh8TA0jlH8a4JroxyhaM89zDmKxDpvoLNcqbWro8xT8Xocg6qBd6xh09PeBCfa9aIwWzJxFYaEe7OiBRLL7HMurzooIaKOljpbhNq0ORMGJsMBCaXerCDFakPadkKDNFSjAbstinlMh7+7LUXxC3N3LHg6Y7uzVJMWE5A2214vFPL/haitZhoklwJhMT/1miTgxaLL3QptvYTo/tbjnkoSBpt3xetMn4sllIeaKe/ihM6132f757jkIKeDRGnh5F27UwViCn3vQuE7o2EU0uFWnVV4J1MiGRD+G7I2wnoNYrtiddxB18BVMmTn0XqSn9lY9ELJHC5ib5bkGifHRYoNHbPsXC+dPUBNEWGBxBNk7qxDVoxfc7W1LoA0ZFGJpgMc85fAIykVQceKg+CYYaBpSEOuSUlEhGu5crUej6bQnVqoONstvbOhDIiI4MN48Ud/QelX04Grrmw78LoWcvJnYHaNXm/uFHJKWjEx5h+kvELA1JHISna+7aA+9cbLTAxhf3eGdkHp3tLhLfsMzpFC+A3PEHag25KGKGpXYH6lJjZyDA2RDh7xdWOeu/wHMmS6HDcxDOI3Q6ui5C/eaCCpojemaVaZjXHkB66DOY9FsP71STr0Xab8UAar4vBQcRiH6ItUUlGhDJXkbMadAFdipz3SRWm+dLBqa/CndtX978xv9zFMkC/PAQgQS5h/HmrEHGDkfc4a3qP4KoSMyntyAMRcWmLr4xWL/YScZgGATlpaI7Yd1VIVK8kzsFmXWYYI0rAhx7kHcsJkYI4Mc9z6c+yEvr30f7oRZyaHdmqaMKsCsqE2Y6K6fs3V0huyufwSZtq5l95e26pZeNFJ1OVeNwL5J4o7RTc6+97xOLhMq07HPfpedNhXZpv106DPN3Xh1fWyFdShlZB66+ngSwT/Znb8Qcyut5+Do72aI+u+bBFP9vZ9caJyo4xIRghjDDPJJm53pImgzkcMay2NMx9AXvw1ocwhYB3WtZa+Uab3nx6UCvRemz4sWWBnvu+fzoJMBp7je08VnwR5gis9krrh2ZdPVftTiqYP4TC/vjRy1fuj7fbFP5Jti2D3Dtb9b1rx62b16FJ7ayBmcKt1kV+xxUyIiinAFmJ/4FLaMWIWqF4OOdCmCROYcCyIiikjlq9dii/g79h4GFS0VeywoCIewIsDTF5Yf46JWz/tHq2xC/SGtq6Hc+oNR3kL7IS1SPRW4E7P2/A4TuqlianEYWBAREZFjOBRCREREjmFgQURERI5hYEFERESOYWBBREREjmFgQURERI5hYEFERESOYWBBREREjmFgQURERI5hYEFERESOYWBBREREjmFgQURERI5hYEFERESOYWBBREREjmFgQURERI6JoMDiCLJnLMDUGVvwoSqJJMXb0zB8yTIU29LUTEqWiWuchhUlKu9XDXJXp2Fyfo3KC+bXBr2f0OTNHIcOfVYiz5a2qsa6DLlOLTMPqHKgbP00T7mP9WbGthnrq1WJScFK/68t34EM0/4tr7etMy9zCtQ2Rv0zdqDMkiailixiAosPN+3ByXY3I0rlI1LbTohTSUu6VTmEFc3QUDsvEXHtVdKSdlBSjNizYk5LWsM9D4V3L0Tdsc36smywWqmkP+JZ52u9JPYzZw0wIEnlTbSApjAGc32s04KC2UeRulPte2c6sGaeJ2hIfBi55mOrbQYgGnHxahtDlzvQVSUtaSJqkSIjsGjYg4LSeGSMjtyvpLgoT7NhTlMzSZ6J3bMLMC1Z5UPRvhMSVNKSdlBifLRKWdOGvA15wKSFyH2skyppGn0/TyGziyowFKxETrwIWpb1VwV2nfB47go8bnxURSCRKWKLnELfvSKSPFZR+gjPa8Q+OrqPa04TUUvWxiWodJNVVlaiS5fm+taowzvLN+B4jyzM+dFxLH7lHNKeG4sfq7Uth+ySz8LWiyor7l/HZK5FRqzKeq1X4udj96iBWrI2fyImlpRraY9UzJo9EylaT8E2xGXOBN409hPgGG3HY+2To0w9K4HroA0d5Bfqacm9Th5/AfbrpVbm1wesQwD12zE5ZxMqVHbIMB/BhW0bKSF5A14e1lHlglGB7BH3Y+nJ4VhbvgLDVKkzDmBOn12I22lq2G3k8MbQqhG+eykMcphjOpB9bCowc5wWSHgHKnKIYh4WdXmk8X0JsodjAvxsV74DGSPz0HX5ZixOU2VE1DrJwOJyVVRUqFQzOLLZNeX5d111Ml3/rmvRbza7PtBWtCw1eUtdO7ST1BVt+6nr/lXbXDWN5bcdVDnh6FLX/Yuf8OxDyy91Famsy3XQtXyxeI1Yns6r1kpq8p4w7bPatWOVdZ8h10Eew5yv2+Z6Whxv+VGV1+j1sJYZAtcheH6O41Un/ZjGNQleuWv98CRX54RnXXmqxDFlr7se6v2Ca8/eF1yxvceq5VnXq2VqvXBq3bOmdXIR26t1utOuVx8a65q9V8/tmTHW9dC603rGQt8udsZ+lfdDq5Nnf3ZafR563XVK5Ymo9QrzoZAjyN5ZhR5D74P7prqFihs209RzAKQkpQIXq1Gr5WpQe0Hcfff33Llr6y+IcpWvPVsj7vxHe/aRPAhD5OvqVV4x35nHRYu/xjHqD6H4YipmuXsOxDEGj0fCxYMo1vYRuA7AQEwzvR6xA5HSVtUtGAHrcPlqTxxERfz8pg2RWCRgwq5PUOV4b4XhI0woTHbPX9g3CVg00jPBs+tjKyzzG7LTxfamCaBl61dhEdIxzpHeAznfIg9FSf72dwCb15xF5qMPc/4EEYX3HIv63cU4mXQfJvRVBS2Z7J5fIp8WUYt5OAEdERcF7D+83R1o5B4W66NEuZZXQULVNuSqBrg2fxv2y9fZIjJtO4M2D0EOkwhnqlGBQiw118EyXBC4DpL+xIux+Bg2aUzAOly+2gv2oaJw1RvZpiGHro+NQKYINorcT1xYpWfJiZMNqNFOTzb0wNwlTjT0aqikVNQn1/f+ytbvQo7foIOIWpswDizqUHLyC6B0D6Zqj5mK5ZUjuIAq5Mr0piNqu5bgEFaIBhTJG7QJh9oyLFWtM7m4CRONBhvjsdbcO6Apx9YcvUGeWAKMyVRBQzC0SYpyPoY6vnsxz8EQGqmDnOOxtMq8jw0Y01atDEawdWjpEuWTE0aQYObjiQtDVQOKVBIFJcjBWSwa6XkEdEIeULRmnkhPw7oQYqu8mSqoODYV6arMSu+tGHB3f/ZWEJEmjAOLDnhg+nysfM60PN0PUYhHhkyP76e2awHq9eEET2+CCDQsPRaHUFwlJ1qaGlvbhMbi0kJtmKPJjbE2bFGIpdsPqQK7wHXQegNMj9HW5i/z0WPREXEi2Nhf6uM4Aetw+bThm6qD6jdE/ExGDYqcvNkd8YnTkK9KnDMYA9JFYLDB/LsVslegL1J9TuY8gDnTPwKMJzLSplqGSfShEmDAJPnoqv8JoXZyguiEvGjM3ekvqBC0IKY3Mi/j6ZXy1b8Q17E7Rq92sm+KiK6WCHgqxKRhT4t9KsT6RIdowIcNQnF+NTLUUEXjT3wIPp50kDxPRehPZcDXUxJuPhpa01MZAeugjuF+8iN+PmZhAXKjbE9c2Ova2FMhUghPhviuo3VuiRyuWVqlJbXyjAtZ3nUMqDmfCpGMIQiVTUrHPtNQhPaEhjGhQsgM8DSG3N7yVIh6isPdy2EwjuNvPWSgYQQn8umVjSi73MdiT72K0fe9JIK95rqWRHQlRVZg0VppDfFBpPh6NDRKNsodtXRxorVx1BvZjqaG/zIErIN9WIYoWCpIwzMo2PWE9YfCiCjiRMYPZLV22qRGuxrUirv6hCgZSOhpO/vQxGUJWAeiJspbi6UngZR70xhUELUA7LGIEL66+C0/6uRrKCTUH5cKIGAdmlUjP7Cl+PwxLApjxnASMHbVJ1jgdyIHEUUSBhZERETkGA6FEBERkWMYWBAREZFjGFgQERGRYxhYEBERkWMYWBAREZFjGFgQERGRYxhYEBERkWMYWBAREZFjGFgQERGRYxhYEBERkWMYWBAREZFjGFgQERGRYxhYEBERkWPCPrD4cNMCTJ1hXRbvrlNrI0fx9jQMX7IMxbY0tUQ1yF0t3uPV21FrSTuofAcy+oxDxvpqa5quvoKV6NBnJfJU1hHaPsdhToEtTRSGIqLHImpgFlY+N9+9zBneQa2JMG07IU4lLelW5RBWLEnDihKVbQ712zF5yUTk1qv81RLV0fMem9MO6hrfSaWs6SulbP00dMjYgTKVp+YUjbh4lbSkicILh0KukLioRJWypqklEkFElEpa0g5KvANdVdKSppYpPgYDVNKSJgpDbVyCSjdZZWUlunTponLOkkMhBdFZkdtLETTZZZ6FrRdVFokYk7kWGbEq67VeiZ+P3aMGasna/ImYWFKupT1SMWv2TKRoPQXbEJc5E3jT2E+AY7Qdj7VPjjLdaQeuA0qWYXh+oZ6W3Ovk8Rdgv15qZX59wDo0QvZU5GxChcqaJSRvwMvDoO87ynw8QaszbNdpNGpzPPUdMqwA05JVRpDDWUurVMZ9jUOUNw3xT+1GyjPvYtuTCarQSdVYlzEPi0pVVshcvhmL00RCdqdPB7KPTUW6vgp5M8dhAh5B3bLBqsT/62VPxdA1Z1WpWTTm7lyBx1XsbN9uwKSFyH1M9qzo+669Ox1la/JQhN7IXg5MmP4RkJSOfbkPq2DJVgfLOrX/qhGoSy0R5yNeK6WbzyEI2rVQr5Vsr5fXJSd+IRZjlftcPOeh066dZexDnI/p2tqP4X4fNAcwp88uxO18CphtnKv1OhJFFBlYXK6KigqVct4HG//TNeU3puX5d111al1LUpO31LXDdGJF237qun/VNldNY/ltB1VOOLrUdf/iJzz70PJLXUUq63IddC1fLF4jlqfzqrWSmrwnTPusdu1YZd1nyHWQxzDn67a5nhbHW35U5TV6PaxlhsB1CIp2XNO1MPO6LvoxjWviuU6e12vXyfQae53s64O251lX54Qk16hV5arASaddrz401hU7Y7/K2+x9wRXb+wXXHpWV9sywbm/P+3Jq3bOu2Ided51SeTNtneUY+12ze491PbTutEir+mnr9XJtP2Wvux7q/azr1TK5vfc5aHUyHU8/hrEfSd/X7L1aJjDtOhjHk/wc06ifLLDU0btOXtfWfgzt9eY6qvMXi35tGr+uROEu7IdCfjzeM7di5XNZGIIjeGH5Hlzt4XOnxQ2baeo5AFKSUoGL1WrCXw1qL4i75v6eO3dt/QVRrvK1Z2vEnf9ozz6SB4lrJdbbLpR+595RS8dFi7/GMeoPofiiuPM23cmnDB6PhIsHUaztI3AdgIGYZu4JiB2IlLaqbsEIWAcHaNelEMXGHA/tmIlI6alfE8OQYZ6enLhho03XUmxflYgxP/dcB329aZ/BSl+BqvJPmqe3ouANcecr7ppDuXP3Ja+kiZMQq1H4/llxZ/9Lz107BmPcpGgUvX/YPSfDvD7z0YfR1TysU34YhbZzSM9Kx4DSoyi0dMyZewc6Iy4JKKsKbiJrXuFHYqcjTD0DnfD4o729z9vcU6LV8SxqtR6rAyjKi8bcJZ5eFDt5jAGTnvIcI/FhZIrK5hQeUAU6cy9I1/gYoLQB9v5HokgQYXMsOuCBofHA+XOIvOdCAtAmHMqnRdRiHk5Q4/T7DxtPFtQg97BYb5oQqAUJVdvcExZr87dhv3ydKViRtO0MyTOx2+jCP1ONCtE4LjXXwTKsELgOkv7Ei7H4GDZpTMA6OGEgMpITsb/0kJarPXEQFeaAzK9y1J4Rf+plIFWOrTmmOvob4rmKyqoaRGMYg8vpSU9fthnZ6R9hQp9x2lMIoU3SPI3aUu8JpSE1mOIcimA6vlxGymETG8t5isAgd7NlmMK/atRUigY9vrPKK9ochgbUmCvZxTyPZTAWH1NDGeWfBrgm+jGK1szznINYrMMmOsu1SpuKOvNQClEEibjJm/VnPlepluQQVogGFMkbRENfoC/DUtU6k4ubMFFryESDjfFYa+4d0HgavIni7nlMZgjj/u07IUGbK6CO717MczCERuog53gsrTLvYwPGtFUrgxFsHS5TXM9BSKg6iGIRHBWLxmPMYPt1tNGCiUTEtRfpWBlIybkp9jpa52BcbU7d8crgok40onXHFmKuuIcfOtN6l+2f756DkAIerYGXvRFGHYzFqbkHndCxi2j0q06rvKIFNDHo6OAxZG+E9RzEcrm9SURhKrICi4Y92HToC0QNTMWPVVGLoDVc5t4EEWhYeixU97u5MbNNaCwuLdSGOTwNXYiNsTZsUYil2/U7eW+B61B7QTRjpsdoa/OX+eixEA2zCDaMHgOLgHUIktb4l6P4hJ8hmNhRyIgvRO5qUb+owL0VxQc2oaLtIKRo24k6xosA7k0HfpdCTt5M7I7Rq53tk9GkJSNT3u37CwRsd+VyEqSvu2gPvYG00wMY+9CE1Ampd0eLO/U3PEMK5TswZ81ZfchDFTUqsT9Skxo5Bwekp8phj11Y567/AcyZLocuzEM4jdDqeBaFhSqAsk8EFeQxitasMh2juRRgvvg8xSdOQ74qIboawvypkDq8s3wD9p9XWdyMIU9PxgPiu6ylsT7RIRrwYYNQnF+NDDVU0fgTH4KfJyI8TzPoT2XA9nSDlY+nPkxPZQSsgzqGe1ggfj5mYQFyozzzOjT2ujb2VIgUypMhBtvTKea5JRq13v60h9c5SJb66axPhUjm6xCkZn8qRD5tsBE5KieZn0awPMmQ/gj2xe/Sn7DQ7qS9nwixP5FhsD4RYX2awf60hOf4+v4L75bzCk5r9YS2znhCwthH4/XQngp5v6/PegXL/5MrOu0cLE/L2IiAKcM9RNMb2TtjkDOyAZmNPBUiea6F/j7p56+tarL8Kd0xcRea8TNFFARtCudlqmjGp0JI8PmUg/kJCvuTDbomP63gS8A6RBivp0MMjT21QhTm1JNG88yP+xBdYfyBrEigTWq0q0GtuKtPiJJ34Xrazj40cVkC1iGS6ENNQ4aF2MNAFNYqkL1mt/g7HP0565OuorD/gSzS+RqGsHTv+xoKacoQQiMC1qFZ+RiisPEe1rAxXSP/9Q5myIgigfePVtmE+kNa4UwNq6HHMyjY9URwk2OJmgkDCyIiInIMh0KIiIjIMQwsiIiIyDEMLIiIiMgxDCyIiIjIMQwsiIiIyDEMLIiIiMgxDCyIiIjIMQwsiIiIyDEMLIiIiMgxDCyIiIjIMQwsiIiIyDEMLIiIiMgxDCyIiIjIMQwsiIiIyDEREljU4Z3lCzB1hlo2HVHlkaN4exqGL1mGYlv66qlB7uo0TM6vUXkn6Pscvno7ai1pB5XvQEafcchYX21N+5A3cxw6iPX6shJ5qrxFKlhpO8dqrMsQ552xA2WWNBFR8wr/wKJhDxbP2IDjPbKw8rn5+jK+n1oZYdp2QpxKWtItTVRHz7mZ0w7qGt9JpaxpQ9n6aZiQ1xvZxzajTlumIl2tuyK0oGca1pWr/NXS5Q50VUlLmoiomYR9YPHhe0eAgVmYM7yDKolMcVGJKmVNtywiiIhSSUvaQYmmxtGctimvOgukJ1/ZYCKsdELHLippSRMRNa82LkGlm6yyshJdujTHN9cRZM8oxu1PT8YDMaqoxZJDB1nYelFlhSHDCjAtWWUEOYSytEplkIpZs2ciReVq8ydi4oXRWBu1DRNL1G1y/HzsHjVQT0v12zE5ZxMqVFZKSN6Al4d1VDlbHdqOx9onR7l7HIxj7E46iOH5hXqh/RjByJuG+Kd2I+WZd7HtyQRV6Cw5DDIBj6Bu2WBVYjiAOX12IW7nU8DseVhUKsuiMXfnCjzujvfkNhuRo3KA7PkwejzksMI81D66EHGvGa8HMpdvxuI0kZA9FSPzUKQXWwyYtBC5j6neFdt2lnXuOo5A7UijHvY6qnO0jO+Y60lEdJXIwOJyVVRUqJTD6t91LfrNZtcHRza7pvzmP9XykuvterW+BSna9lPX/dsOqpw3bf2qba4ala/Je8J1/+KlriJL3rSPum2up0V++VE965V3Vbt2rPqp6+m8akveXAffxxRl7uMedC237DNIe551dU5Ico1aVa4KnLLfNbv3WFesj+Whdae9tjHKTq171hX70OuuU1pOX+/ZXq3v/YJrj5Y77Xr1If31s/dqBbb1Stnrrod6P+t6tUzlzbR1ntd7H9Ooo+f1e2aIvLuO3nnX3he860BEdBVEwOTNKuSe6OGeX/GsuDne/8oWfKjWtihVB/1M6DyE4qpEjPm5p/cgbthoDEEhiktUgSR7GIzeg9iBSGkL1J7VJ2fWnjiIivj5lh4Qi3pxjIupmGXqfUgZPB4JF0Wd6lWBxtxT0hFxpmMELX0Fqso/aYbeisFYrOZUZMvb9vRH1PyKzabeAJ25h6BrfAxQ2gCtn6egBDnizj/TtH3Xx0YgEx+hqEAVCPL1Wg+F0DW1LwagATVBzqcoKzyKIlE34/Wy3uMmRaPo/cOWyZWZyz09FOmpvT11xAEU5UVj7pKHOWeCiMJOBAQW8cgwTdaMHZ6CHiLYOH5UFbQQKaMKMCu+EEuXyCdGbE9T1NeIdDm25qh12rIA+9XqYNReCNDqnalGhQhU3MeXi23YRGOZdNoRGU8WmIZSIodlwmfaVPfkzrKqBiApBtZZMJ0RlyTX+X76JFTa/I+8jaYnVsZh6BpRFqzyT/l0BxGFrfAOLGKicTs+x2fiu97qZtzeAudcyOBi92y5bMAYbMLE7Yf0FbHyyYpEjMk01nsWvz0QoWrfCQlab4T9GGuREau2aQUsvRdup1FbagtGLkNifLSlN8W95LIHgogiX5j3WPRDr6QvsF8+GaLU7y7GyXZdkdyiJ3Pan6gYiJT4cmx9s+m/CZGSlGoaavGeKKoPnRRiqRHMNCc5eTOxO0av9uoPufrSkrVhjxzTb2PkzdyInKR0jHMPXQRBe2LlLAoLvXs5tKGTvI2YYxpaCUlif6QmmfYtf8Ni+kd6OkTlq38Rvu8FEUWksB8K+fH4LAw5t8f941gvnOyKZ6ffh5Z1E61+TMo0DLH0gmm+hKANlURtwkTTNiH9yFbyTNNQSxaKEzeIvFqnkcMaGzDmwgLT/sXi9A9chb3BWLwzHVgzzz1MMaEyHftC7k0Q+1neG0Wm/bh/yCvxYeSKY5RN9wyFWNYH1AmPLzHVcTqQLfY3QK0NReI992jzZYpfWot8vYiI6LKE+eOmRNS8KpA94n4sxTMo2PWEbW4JEVHoImDyJhE1m7y1WHoSSLk3jUEFETmCgQVRqyR7KrprP1Q2dlVzPPpLRK0Vh0KIiIjIMeyxICIiIscwsCAiIiLHMLAgIiIixzCwICIiIscwsCAiIiLHMLAgIiIixzCwICIiIscwsCAiIiLHMLAgIiIixzCwICIiIscwsCAiIiLHMLAgIiIixzCwICIiIseE9//d9OgWTN1ZpTJmN2PI05PxQIzKRoDi7WlYWpWKWbNnAqZ0ilpvV5s/ERPLB2Htk6MQp8oiRskyDM8vxJBhBZiWrMqcUr8dk3M2Ackb8HLPQ570sI5qAwcUrESH6R8hc/lmLIYpnabW4wDm9NmIHJVD+iOoWzZYZRS1D4P19UDZ+mkYuuasykVj7s4VeDxRZTXVWJcxD4tKVTYpHftyH0ZXlQ2WcZwBkxYi97FOqlQp34GMkXkoUlmf2wSQN3McJuSpDHoj+9hUpKucff/W87Sdn4X9ehjXO9D+PezXOyjGe+b1fgbxfgfQ6HWy719oUv01xnX19Zm6jM+D32ttOhe1DeTrUg970iF+pijyhXePRd+xWPncfOsyMl6suAW3R1BQ4da2kydIMKedIhvdJRORW6/yzUAGPMNXb0etyl8tcdGeQMKcdk404uRHTWNOy0ZiIyC++OuOyeURZOZtRMb6arVWkF+w0xvEF7vaZnlv5EyfhnXlnvVz3u+LfdrrN2PfJGDRyJVwtztC3kzROHQRDZi2zULMFWuHzjyg1gZDNjDjMAd9kalKrERjJr74uxrnsVM0DWvmYU6BWh0E2UhNqBQBjzqP7PSPMCFjB8rUeiQ+jFy1zn2es431nfB4rrFOXENRIhtTPW9qEGVj36cEcZOiVYGJbf/aIs5jgO39Co64HiKoGJBkP47e6JeJBlI/hngvKm3vdyDiHCbAeC99XCcMxmKj/nLRPi/Wz0OwytavwiJx/gNU3uMyPw8+rnW22GTApF+aAiRd13hPIGFOU+sRYUMhdXhnXxWiBqbix6okUsRFeW4dzOkWKXkmds9uht4KKbajJyAzp50UH+P5YjanlfRl5rvJwRgnGr2i9w+7G4q8DeLOLn2Ep3FM+yXmJp3Fog0qMJBf0qbeh66PjRBf9h+hyPgSF4FHTp6448warApEI/xob7HjXZ7gJADZwNQ+ulncLd6hSqzK1u9CTlI6xhnnIeqUKVqInNfMDV5jDmCzuPPNfNRzHulZolEvzcNmP8FJV3EtUdqAIE9BEI3dazEicJmKVFUSiNe1D5J2PdIfweK7VYGhoETrKcl033Xr70XRmjeCb/jTplp6OPTrdBSF/i6E9plrQE3wF0qR7wkwd8kIr54txz8PMljKM18XIfEOz3HNaWp1IiuwOFqI/edvRq8fdVAFkSNu2FrsVsMa5rRHDXJXp2H4En2ZWOL9rSKHU4z1cllRolZoPRWiLGcTKsTX9tYczzaT82vURoKxna91AWg9FeI1Wr0ubsJE935MPSS2/bvrp9HPb0W+sc0yFMshE5m29IBYr4N378hATHMHLea0VfnqXyA+sTvmN+W2T7s7U3fN5nRQDqBIHDMz1dOQoOANvcu/8tOgGu2ywqMoSuqLVPcxxd3ma3JY5SxqfY0M+tD1sRWNdKVXo/D9sxhwd3/Pl78WzIi/wTb8qsEdYDqG1qiLv2VVvu/m8wrlMEOy1x2uf+JOPpThH3UOlmuvyN6VDn3EHbuvoEe8bo5skN2BnE1SDCxvv8+GX+8R6NCnaT0NZt7vf3BkT1qOn6DK2c+D/nnMXG4ezpH0nhf9OOY0tTYRFVh8eEJ8qyalRNTciuDIxjQLW6Pma3f6clmbbPt2EI1wcZK+zli/P1+UyXWxo/CyLM8cjwTxFTgm07Ode+6BmpsQN8xYNx9xJVlBBxdaMKSOi7bjsVbtf/fstciIVRsZ9RD7HqKK7PaXVCNDW1+IpYc7Ya2s88WDKNaCE+/rMCtKBDFhMPTin37nbvlSNnXFy7H1DvKue3lvv422drdoa6TRRd3xiS/4jD7zxN3mQsxN8t9oN4XRTa01uiMbkKkNI4Rwp+xucOVwwTjkxC/UuseLqk5rpRptKEM2uOP0YZMQ5yaEQm+QTXfdQZIBESY95Tt4lEGErRfGCKCaSnu9PXDQ3mf9Og1dE4PsUOfTaIFAb2RfxvUN+vMgA2URUoR6nan1iJzAomEPCkpvxpB7+6mCFqT+EIovpmLWqIGqwIfkmZY787ieg0QQUYPaIOdT1J44iIr4+aZ9DESGCBIqyg9d0UY7IXm0e8LqkP6jEGcezvBxHVIGmwOP4CU++TtUlX+CBcHfHjeJdpdo6So3eBrbOqORsN/5SqJBmKNNpvMeq3Z/wZvu/Jwds9bvsodWjUCdezJhDDr6amD90QKHXYjbKbvZ9boNiO+s/dXIYQA1Jl/3aAOG9jHNNXGU99CMmbxjl3XwuoP21aVvJnustDkPeqMvl6J42eDaGXNG7HfxNtrx4F1PrWdMXaedMcgRxwl+vot4H2fL4Mj7MxSaYD4P4nMtJzP7uc5EUsQEFh++dwQXWmRvhXCmGhUq6d8hrDCGB+SiDXsEr/aC+DavWuB5vVh8DbdcVdp1KMRSUx1DPc8rSZ/pL2ff2xuTs1g00trYllU1aH8t5F2qnGmf/oj3zPm8jbYv+NOotTxBoQcuRmMnl1AmXko502VPiGjIjLtcUUfLnbisn+UYtqBA3MkP1eZAGENF1aip1Nb4puaaFBY61+ti8JojEBR/Xfo25uBIBifx8jqFGIBJMgiTE0QnLWx8iMCY31AY5GRd1YOw2F9wFKSAnwfBPReFvRXUiMgILLTeCqBHzxbYWxEUOUSwAPvjPUME+rBH8LQJo+bXG0s4Pc7avpM4J/kYrq2O5uGWMKE9EaEFFfb5F4MxQLZStrHu8ir7cIkIDFRQYX90sWtqX3FHbJ68KZTL+Rnm4RLbkwSywQv6y74TUu+O1h5hNTfEWvBjngNhvovWFtO5piXrT3JY7lxl8BON1NTGGzjnnxTwNRwVhPLDKBTfK+beCO0RYBHUNRaohT5XRJBBmgoqgn380tLz0witPjLIcweAshdNBrcibXn6xJ8gPw/iHBqdi0KkRERgUf+HMlxo1w/39VUFLU3yIG3OQbGa7Kj9hoWlN6EGtReBhCjjsUoRaLzp405eG1YoR/EJ73kT2tBJ1QLbhMrQaY92NmFoIiixA5HSthBLtx9SBU13WZM3AxF3nrIBylzue1Jneqp8gmOjp2HSur/NDa7schZf/uKLfJ+vMfHE/kiVT5G4H83Uu7qLQm3MGqEFL6IxmmM8Nqk1GuKcfEx89E0PoMyPRWrDQo1MOtQehSy1zSVxgteTG958Tt70CpzkI7GigZXBnkj7CtT0Xipfcxn0YQTfkzc9QWRQQYXX50UR75Heg2Q9hnxKyXwO+uO7MugV6SDnagTzeWh0LkoI8qd0b75/mxQWwvsHsqSGPVj8yhHcPnI+JrTUwEJSPyqlkZMj+1djopzcaPQomNcLQ4bNF/9CtyEu03Y3b9suwfzjUWoCpzkgsawPkv5jXyqjTRbV6+AdEOn0Y0CbmFmcKNM1WLFkAaD9gJYc4jGfh5rAKQIpN3k9QuxZkYFF2ksfY+wqp+dZyCEIeUfozfKjRqrbW2ft2ZCNnOfHsUxkoOFuCGRDZfoBKR89G42yHN/EvB/ZUMkGT89Z6x8kyw8/Werv4zxt6z30ayp/G8R6fNs1cDNfT/218ncmGmu0jboEOkdtOzkE5b7Wwb4Pxnb2H7+yXSMzY19e75X3PjTu98vPejd5TeRQnCnwvdzPg22dWcifm7xpiH9qN9DjGRTsesJ73hFFvPAPLIiIqAUpwPzEp7BlxCpUvRhiJEsRIaIeNyUioshWvnottoi/Y+9hUNFSsceCfA6RWHmGO4iImkb1VOBOzNrzO0zopoqpxWFgQURERI7hUAgRERE5hoEFEREROYaBBRERETmGgQURERE5hoEFEREROYaBBRERETmGgQURERE5hoEFEREROYaBBRERETmGgQURERE5hoEFEREROYaBBRERETmGgQURERE5hoEFtVjlq3+B+MTuiB/xKspVGVCB7BGiTJZPKVBlRETklAj436YfQfaMPTipcsDNGPL0ZDwQo7IRonh7GpZWpWLW7JmAKZ2i1je/Q1ixZAH2q1xC8ga8PKyjyjUX/ZgYVoBpyXrJFbsOp17F6Pv2Ysie32FCN1VmUYD5iU8Bqz7BgnRVREREly3Meyz0oAIj52Plc/ry7EBg/ytb8KHaIqK07YQ4lbSkr4iBmDa7ALtnb8CYtqroarkS16GiHMU97sFQn0GFlIb+I4DyigqVJyIiJ4R3YNFwFp/hZtxu6p2IbX+LSkWWuKhElbKmW5srdR3KKypVioiIrqSwHwr5cNMC5JYawx96D8ZnA7MwZ3gHtUVLIIcMtiEuczRqczzDFUNMQwiSPoygMoJnvT7kUGsb3qjNn4iJ5YOw9slRpl6BGuSuzkJxoq+hEOtwCeA9TOG/DkrJMgzPL1QZndc2AenDFFt6PIOCXU+gKeGHnF+R9t49jb4+f0p3bE14F9ueTFAlRER0ucJ+8uaPx8/HypG3YP8rCzBVDYu0rKDCUI6tOTK4kMMVBVibnIj9+ctQrNbKBrs4SV/nvX4gMkS+ovwQarW8dAi5JeUY0t8cVDTGE5x4jlGDpUuCrYOgBRU1GKPOYffs+RiiVl1p5RUfI+XetEaDksSEO1H8XoFpYicREV2usA8s6ne/jKk7P8eQp2WAEY+TO0WAsemIWtuyDBm2Fhmxejpu2GjRKNegtl7PI3mm5a4/rucgJJjWa/mLB1FsbF9yEPuRipRgewrU9hmmXgy9DoUoLlEFAepQXFqIBLGNcQ5Nl4YF5Z+gqgm9FcaTIIfv+SRgT0Tik79D1QvAfLH96NWca0FE5IQwn2OxB5sOfYEeI9VTIH3HasEFSovxToO+SctWjtozKqn1KKRhuLHkbIKlKYwdhYz4chSfqNGyeiM/OuinLWrPitd5TaTsiLi2ap2msTqIAOOCSl5FWrAggpL+ewMHC1oQ8iy0IIbDIUREzgjzwOIcLtgmbyLmVkSpZItWLxpqcb8e115m5LyIBdgfP989DLE7czzsTWFKUqoaDjmE4ipr70MgcdFi24vVpqEUSdTholoXZB3CRTDDHMEMlxARUWjCO7Do2wM98AWO/6FOFQAfvndEBBu3WIONFqj4wCZUtB2EFG1YQW/gE6KMQEE08m/aeiyk5NEYg01YsXobakPordAkD9KGPXLzjd4JOVFTBBJtxyNDG/4IVIeOSEk0z/OwTwQNhZy8af9hqytM/g7G1a4DEVEECv8fyGrYg8WvyGDCEI+M58bixyrXMvhohGXPwKiBKiPYnrYYMmw+kC8ne3rmZUjakyAlwBhbua+nNTTm49Rvx2Tz8IYIKixPlASsg/7EyVYRgEhDhm1A3OEs1PaPxKdC5C903o+lJ4Gx/BEtIqKgRcAvb7YGemBh/oXKpvL9iGkrlDcN8WsSL+txUy04eQmY5ffXO4mIyC7snwqhENRvxwrZW/HzVh5USAmJSDm5F/tOqbyXAhzeJedi+JslUoCtL30MNPrrnUREZMfAoiWQQxTqKY040yOrrVq3J7DgGWDpff7+J2RPYcuIVT6HOPRHVvX1TXnklYioNeNQCBERETmGPRZERETkGAYWRERE5BgGFkREROQYBhZERETkGAYWRERE5BgGFkREROQYBhZERETkGAYWRERE5BgGFkREROQYBhZERETkGAYWRERE5BgGFkREROQYBhZERETkmAgILI4ge8YCTDWWTUdUeWQp3p6G4UuWodiWDj81yF0t6rd6O2pViZOa/zpUY13GOHTI2IEyS9qmYCU69BHrZh5QBaHJmyleK1+vLSuRp8qDVr4DGe7Xj0PG+mq1IniN1yHI60BE5LAwDyxkULEHnw3Mwsrn5oslC0PO7cHi3XVqfYRp2wlxKmlJtzZX4jp0uQNdVdKSFrQGuTAGc5NUQYjK1k/DhMp07Du2GXViyU7/CBNCarQPYM7IPHRdrr++bmc6sGYe5hSo1UEIug6NXAciouYQ3oHF0ZM4iXikDe+gCjrggaHxuHCoEB+qkkgRF5WoUtZ0+OmIjCcLsPvJUc3S4Df/deiEjl1U0pJWClYiJ34h6pb1VwWhOoDNa84i89GH3Y10elY6BpTmYXOQgUHZ+l3ISUrHuDRVkPgwMkVskfNasMFJMHUIcB2IiJpJG5eg0k1WWVmJLl2a4Zvr6BZM3Xcrnp1+H2JVERr2YPErZej19GQ8EKPKIlxt/kRMLOmIWbNnIkWVAYewYskC1CZvwMvDOmolcuhgaZWWFFKt29dvx+ScamTMHoRi8br9WqGvbTahQmXt6y37bzsea72CCzlMkoWtF1UWiRiTuRYZ6s3RzuPCaKyN2ibOp1wvjJ+P3aMG6umgFWB+4lPY0uMZFOx6QhylOcjhgXlY1OUREWQMVmVBkEMo04HsY1MhYgGN7AGZkAcMmLQQuY91UqX+6MctvNu0rRwWGZmHIvS27Nevy64DEVHzCe8ei5hbEXX+CPYcVXnhw/eO4IJKtxRxw0ZjCApRXKIKpJKDIjhIRYY5qLggGvvZBdgtlrXJNVjqNT+hUJQtAIbp28yKF/nth9Q6EaiIoCJOrdMXcyADpIwy9u2rKVdBRZQIFIzXi7ptzZmI3Hq1iVS1QAsutPWZ45Eg8ivM59USJMWoYOcA5vQZp/WAZIsWvqjqtFYajK7xeuMvhzQ6jGxA5s50DEADalQ8FpADdSAiag5hHljchzkj43Fyp2fy5vHofohSq1uOgUiJB/aXGkGACCRKC5GQPFo1/IdQXJWIMT/39CD4DEaEISJwmJasp7Whhgs1lkmY5mOEpF7U4aKow2BT74Oo35i25Sg+UaMKBNnTYfRQxIrzagvUnjWtD0oaFpR/gqpm661wgDb5cxfidm529xAMiO+s/Q2OPqFyaNUI1Ll7HmLQMZQTvuw6EBE5L/yfCuk7Vk3c1JcJ7c/hAm7B7S1kGMSQMlje3R9UPRB6IJHSU++tQL0MDsqxNUc+RWEsxnCHWSLi2qukEDdsrWmuxEBMmz0fQ6oWuPcxOT+EBv9MNSrQEXHuMSlJ5EWUVyGCl1alNA9DX4vBvmMr8LgWCFSjplJbE7Sc6fNQ++hmzzBMVQOK9FRwHKgDEVFzCP/AwubDE1VAUg/8WOVbDO3uXvVAyGGQ+NHuuQuIFQ24CBrGZKohCNNi9E4ERwYX6rWZ48VxsoIfpmjfCQkQAY552EPmLwAJUSoAag3SkpEp/pgnTgKnUVsajdTUYOY2dELq3dHiM2yavCmUicAC6cmB51dIl10HIqLmE1GBxYebFiC3NB4Z4/upkpakIzL6p2pDFXIYZEiSecKjHCopx9Y3HfxtCS1YCYEW+Ig6HPAMpdTmL8PWi555IM6Rkze7I37Eqwh2yoHj3L8zYf99iMEYIFr/nOme8ryZG5GT1BeptmEM43cm7L9R0TW1r/YExxyjXBxrjnzKI9U2idSBOhARXWlhHljU4Z3lnvkVubgPK58b2/J6KwzJg7ShCjlJM8PWEyEnVs6K2oSJ7qEQuYTw41LyiRDLa/UnTjw9HvIpFH2d9kTHReNYxjHkY6jWoRTvJ1kigLuxnodFpSKft1Fr/EP58aj0Zep3I7T9jNN/TyLX3HsQQOLDyFW/XaEdW/2mxWJTD0Ygl10HIqJmEt6PmxIREVFEibg5FkRERBS+GFgQERGRYxhYEBERkWMYWBAREZFjGFgQERGRYxhYEBERkWMYWBAREZFjGFgQERGRYxhYEBERkWMYWBAREZFjGFgQERGRYxhYEBERkWMYWBAREZFjGFgQERGRYxhYEBERkWMYWBAREZFjGFgEI28a4hO7i+UXyD6lyoiIiMhLG5eg0k1WWVmJLl26qFwTHN2CqTurgKT7sHJ8P1VoqMM7yzdg/3mVbdcPz06/D7EqeyWVr/4F0t67BwW7nkCiKiMiIiKPq95j8eGmBZh64lYMaacKbD7cJIKKW0XA8dx8sWRhCI7ghU1H1NorK/Gee5ByshzlKk9ERERWVzewOLoFBdFZWDm+lyqwadiDgtKbMeReoxejAx4YGg+UFuOdBlVEREREYePqBhZ9x2LO8A4q463+D2W40K4rkmNUgRwW2Vcl/n6BzxhYEBERhZ3wn7x5a7Q+n6JhDxbP2IDPhmZpwyafnanTVl9R3RKQiN04nKfyREREZBH+gYVQv/tlTH3lHNKem48JffWy29v77+loPmlYUP4J+u+VT4hMQ74qJSIiIl34Bxale/DC2RSsfG4sfqwVfIrPjCdErrgCzE/sjsP3fIKq8hUYpkqJiIhIF9aBReyPuiIK5smbQsNZfIZ49FI9F1fUqQqUYzj6p6s8ERERWYR3j0VML/Rq9wX2b9uDeq2gDu9sO4ILST1U7wURERGFk6v7A1lyQuYrIlBQWTfLj2DZfiDL549oXSGnXsXo+8oxhsMgREREPoXHL29GCgYWREREjYqIp0LCRfnevSjukcif8yYiIvKDgUUw1P+ELO0lYNYL/P+EEBER+cOhECIiInIMeyyIiIjIMQwsiIiIyDEMLIiIiMgxDCyIiIjIMQwsiIiIyDGOPRVCRERE5FhgERMTo3JERETUWnEohIiIiBzDwIKIiIgcw8CCiIiIHMPAgoiIiBzDwIKIiIgcw8CCiIiIHMPAgoiIiBzDwIKIiIgcw8CCiIiIHMPAgoiIiBzDwIKIiIgcw8CCiIiIHMPAgoiIiBzDwIKIiIgcw8CCiIiIHMPAgoiIiBzDwCKQSyXYMGsyZmwowSVVRERERL4xsAjk0pf4UkYU/9KzV96nePv5eVi861OVD1Of5mPxr/8bH6js5fhg4zxMaXRfl3dNvv3qr/hk2kKUjBiDE/eOQMMzE/GXgjxt3d9qP8WRXz6Go/c+hBPpD+KzRfPwtxPHtHWB1O96EVOez0e9yjvmi4/x7rplmPHryZg8WV+mzVqI53efVhvU493nRPlz7zZ+7A/Xaa9d96HKm3ywTu53XQjvXz3eWixes/gt58+XiCJaqw8sThe8iGUzluEtf9+OUUMx5cWX8dyEZHxPFbUseiOdfURlw8BdjyzEi8//L9yl8jjy34422B/+4nF8fvgoott8irbfvYRvq8pwYfULOP/aOhwZMwXf/7IGt333Atpe/1f8vexP+PPc6fj6g2L16ivrm8qdWLZgHfZ+ch7fj+2FXr30pcft1+HCZ2fUVhfx5Zfiz7++0bPC+SOv4/n503wGEUREzanVBxZnKk/jzCXPFzK1bHXZ/42vP7+E9rdcAtqoQuXczt+h3XVf4MbvfwvXd76DNncmoU3XLsCt7XBh3Stqqyvoqw+w/tWDOHNDNzw4YwXmTc5CVpZaJs/Ec1lG6HUn/ufSl/HyrAcRq0r+VleG+i/4uSaiK+87/ymodJN9/vnnuPHGG1UuNN98ehA5L6/C5jfeRf7eAzhW/wN07dMBPzixBdOWbkThlwn46Q/bqa1PY+ec+VhX+Ff0SL0TN//rK3z81hq8vH4H3s7Lx/sffIKvb/8hukffILaVXbVzsfb3f8Vt1x7Ga6s243e781F06jtI+h8JuKmNvn5XtdzvJZwuykd+yd/R6yfdcZMscvsA6yYvx9aaW5Det4PIf4PTha9h7bqt2LlLvGZfEWq+1xt9O35f3DGq+mwS9RHHkutOfNEWvXrE4AatEQtUJ7mN3V9QWnQUf47uh+uLluOF1/fhvYJ9OPq37vhJkvmalyD716/iv8U6uf69gnrcnNYLssY62/ramzCs/XEsXvQmTn4NnP1Ylh/D33/YH9213cqejOVY97ba/v//O3oOSPRcGzn0sWgL3tT2J14XF40/f/w1uliOqWjbfoDrTevkcMcLBaZ9mrZps+tFzH/7orbuY7nd788DX9ei2Kj3v98Y5DXxdnrtFvzz3HnccuM/VInHtd9x4Ybr9TGvNvGd0OYmfV+ui18B58/h31LvwTU/+IFW5stXpz5A8blopFz/Aea/vFO/bub3Qfa8vHzc9r7o1/ng9UORbEQFyul3XsW7VS70GjMHv0hUhT4Znyv98/vxuslYd0SfEXT2hPgc5tfglvS+6FBfgvwTZxHdMx3aR9mkriQffzwbjZ5yO5GXQyPLt6rX6ZvYyr7CJ78vEv8i4/HDm/4v1q7cqH2W3y9pwE1JP0IH/5eJiFq4q9tjUf8WVjy/E2XfvQtjp8zEf4yIx1//+Dpe2noc6NUHvUR8cKnsY08XeP0xfCy+42/s3RedRTBQsmEJ1olGJ27Ef2DmlLG468bPsC97LfaeVdtLX36AN4vbYtADI3HPD2/EV5XvYu0bcmw6Cv3uG4m77pAbfQ/d0kZi5H39RGnjLv1+PV58+2Ogx0j8x4wpGNuvHb4+/ze5Rq/P/tO4PukejPyVOF5XUeVDW7BEno+Z3zr5d/7gWpzoKYcIxPKrbiIvghdjioE2v+Ft4FdqvVimDTqLXPc8Bdl4vY3PBk1U6ydiSLQovmMY5sj0reKeV3vtFPxMux5ye3G8Hsb2C5FxazFWbCyRK/XjvViM293HexjYVwzR/Pt2R2/0vPUUTriHWz7FZ+fEn3PnUKsXiJbtHM7feiviVNagDYuI88WtKZgmj/VIsloT4Jr48Z3rrsW/XCpj08YI7ESiTdQtetrlQpsvvtCSba67TvvbqHPiOp3o4b5ulvehXw/cCfN1ED79CCfOdUPPfirvdh6nqsSH/YZe6NdHFQWp6xDxuUrSB+7a/1h8rn81FOKj2DzEZ3nL25eQLD7LDw7sjGvPH8frq3aKgIOIWqurGlgc33sIZ67rhVFTRyK5c3t0S30cw8U34KU/HcNx9MJdyeLL8exxHFGRRf3/PS6+btuj/5DOorwQe/94Ce3TpuDx1G5o3zkZIzP6ot2/6nHsD6Ym7pt43PsfIzF04CDcnzUcd4oz/qrqlNjP9xD7o0GI19qP7yP23wdh0I9iA86juHBe7lu8tt8gdLujM5J/NQVTRohbTVWf6/pkYV7W/RgkjzfhN3iwizifP7yPfeZHSvzWqRHdf4YJRuPT724RDHyOE0f1VvSDPNGom9cLsSMeFttYG7Hb22tRg3AHfjbC00B7OfI+9iMF40cY24sGPj0F7T45qTWQ3scT+xsj1quctztwuwhePj5hBCaiMUU33Gmq3wcnTqFdj97urvygNHJN/Ln5rn/H3769Fv/8p8/uIZ0IJsQG2l/XaRH6fPMNrr2tPb4T5f8MPbohwxT8xI74iSmYSEbP7qbrINQfPSmuZQ/PfBK3v+Fr2aly002m6yp7zzwTOP1NtmyXNAh97vi+lo5KEJ/rgd0s783H28370JfXRazcJN/cjnunPo77xWd5qPi38ETKjeLDfBSHS9V6Imp1rmJgUY/K+m+Avx/HhimmLzj5hfT3S/ha/OnWp7dowsWd2x9lk3sex0rF3ztEwCHvtivrIKeunXlvoecLcsVBrXH+29eyB0FpF4suRrRwTRxul9+w//hafG03Tez/6IX211xCybrJmLNiC/aVibtKeRVVfbre2UvbTncjunWUB/wKFy/oJZom1KlddIxK2el3/97r9cb8szOyob0DfXvcgo9/Oy+oSZD1Z87qd96/lk9nqOVF2SNxFp996u94jburZzexz7PasWVjih534z5RJ71+cp+3oGdfTyATjFDrIMWM+iW++/1rcOFLOVzmn+ujP8F1/E/iY6eHez/42S+1vwF59brE4DbxPhi066ACNDk8tecgMCS9kSDv60v4q0qKT5dovGUPxD3o9m+qqAlujPNMAjWW2MZHkPxrF49uptd27ijP/hK+1Dt5iKgVuqo9Fpqou/D4/HmYZ1nGins7Iak/+oovrfqPSnD+Qgn+JNqg2H+/y3L31e1n9teKRnBYSPe9oYl9EDOX/hojB3bG9fUleGv1HCzb49TzCk3n6Y3wLXbEFK1rXhvSEIFCwEc1jaEHy2IMlQQ+nhc5DHDuJI6KwETGFTKIiG0fjfMnP0K9NhwQjdtD3GVTtLnuWvRcPAUXvr4Bf7l0rSr14V//1HoqpO/+ez/cdP+DWvqyaT0rMkAT6SMn8fGtPeA7nhLBZ9x1wF//hOOVqkh88rsNlD0QfRCrd0g0Sdwg0yRQtfzEPgbVVP/8ViWIqLW6ioFFLES7Alw4jap/tkO7KPPyPeij2Z3Rt7eMLP6EgweOibvdzuj3ExVWdLhdCzCqquttr22HGwONZ1wOObfve7EY9KspmPfC40gWd45n/nAE9ao+ZR+b51N8hVM14o73GlkvVeQ42zCDm96zYA8AtDkLU1KAg+/77EaXZINvmf9g4ed4co6ESvom79w/x5/rGvBnqMZUCzbEceRrfQ4HNI+owf3x/z39MD79/Pv49pvG/wlcl9ANt/5mnmkCRqjE+Z67Bbe5J0vK3iNoQzaBhn96DboLN4rP0MEdO3H6qjzg8TUuGUN4//oYp7SJzjZfnsd502+8HC+tEv9th9ttk0OJqPW4qj0Wd/WXvw1xBntffBE7C4/j+PGD2PfmOqwz9QB0Tu4jvlxPY9/vRVnXvrjLCBpiB+Eu8Y38zbENWLjhXZQcP46SQ+9iy3Ovw97ENibuNhkOnMfJ/7MP+94rwZkL+0TDOxkzsn3/0qb8EaQXf3sQpz49g1PFR1EvNrouuj2iYu/GPXd+z12fg4cO4t3s/423xN1m+588iEHNGOzo8x/etvwWRf2uHdo8ifu0OQglyDYmXko+ggB9SELR7qpPIdf8GtM+9O7835smSop1vz2l0v4YwzFvi7v0aNWYyjkH4jjitXf2bGQ4QPIb6DRNzNhfoefsCTh9/iZ88RffkzK/27MPblu8Atd8L4Q371wxNpl6gz7YKM63+0/cPT1SrIwsTu7A//kkwPBPl5GYmNpevDkH8eKvRUC4YQM2yOXlDTjUeBSH2Jjbtb9VR97CwbcPItQpFF27ynfoNN77r53Yd2gfdr68Ex/76oz45ji2r5TbiH+7v30e24+JCKjLINzdjJ2GRBTeru5QSK+xmD1uEGKvqxdffvJLcyfeO/41bk8w3d536Y++smdD3BXd2W+QaXJlO9wzZQoevLM9vv7jXmwRX7hb3jmI+uh4dFZbBCP2pw8iOfo6nPnDW3jrIx/f1uK45u/T77b7Ps4f2Yn/em4Z/usN8XXd/UE8+chdol434q4Jz+B/9ovFP0R9dv52J/ZW/Bvu/NkUTPt5M3/Lyqc7pqTgMzmHQs2JWHGyB6b9ephqwGNw27m3PfMlfgtkuH+A6g78bKh8omKtWPeiChZE2a9/hjtFsOJ+za9/j9uMuQD9/hde/FU09r9orDuJnuL45iEqX2SDKrcxBxFx0XL2rK+nIkyMQEceyxLsXJ7bHkzHD2dm4c9f/psIKL8LmJ4Wuf7Onrh1zmJ85/shjjncmoKfYof7uuWeS8E002ROjXxKBp/jvC3g8CX2ZzOxeMI9uDP6a9T/UQbfYjn9NW6K7YV7skbqQ4a+9BuO+7vciEtlIigoOmX5DAej3ZCx4t/Wjfi2/iDeeuN91HYeiXsT1EqzdoPwYM9avP/GTrxV/Gdc2+UeTJk0VPxrIKLWqo1LUOkmq6ysRExM6BPpIkLp65ix5gN8/ye/xrxf8jasJbpQeBBHRVB103e/QUzUJdzww964beH/RptrG5mDcVn0x3n/PHSh5UkeIqKW4OpP3gxT9YVbsLNwH7a88QEuifvsXnLchVqkqNRB6Pfir/HXb27Al1E9cNuC55oxqFDDVD5/u4KIKPKxx8KPM+89rz/tcYMIKh58DFkp7dUaoiaSv7ypzUXpZhqKIiJqWRhYEBERkWM4FEJERESOYWBBREREjmFgQURERI5hYEFERESOcSSwaNPknzsmIiKilsSRwEI+WMLggoiIiBwJLK655hoGFkRERORMYHHDDTfgn//8p8oRERFRa+VIYPGDH/wAX375pdZzQURERK2XI5HAjTfeiG+//Rb/+Mc/GFwQERG1Yo5FAdHR0fj888/x17/+lcEFERFRK+XI/yvEcOnSJVRXV+P666/XAg35V3LwEERERBTGHA0sDOfOnXP3XnBSJxERUevRLIEFERERtU6cDEFERESOYWBBREREjmFgQURERI5hYEFERESOYWBBREREDgH+HyEbptjAu8LoAAAAAElFTkSuQmCC;" parent="1" vertex="1">
          <mxGeometry x="2030" y="246" width="534" height="344" as="geometry" />
        </mxCell>
        <mxCell id="JhqW3P9DHBe0ouiO6Wt8-39" style="edgeStyle=orthogonalEdgeStyle;shape=connector;rounded=0;orthogonalLoop=1;jettySize=auto;html=1;entryX=0.5;entryY=0;entryDx=0;entryDy=0;labelBackgroundColor=default;strokeColor=default;align=center;verticalAlign=middle;fontFamily=Helvetica;fontSize=11;fontColor=default;startArrow=oval;startFill=1;endArrow=classic;" parent="1" source="JhqW3P9DHBe0ouiO6Wt8-38" target="JhqW3P9DHBe0ouiO6Wt8-32" edge="1">
          <mxGeometry relative="1" as="geometry" />
        </mxCell>
        <mxCell id="JhqW3P9DHBe0ouiO6Wt8-38" value="" style="strokeWidth=2;html=1;shape=mxgraph.flowchart.start_2;whiteSpace=wrap;fontFamily=Helvetica;fontSize=11;fontColor=default;" parent="1" vertex="1">
          <mxGeometry x="976" y="71" width="28" height="28" as="geometry" />
        </mxCell>
        <mxCell id="JhqW3P9DHBe0ouiO6Wt8-42" value="EventStore" style="rounded=1;whiteSpace=wrap;html=1;fontFamily=Helvetica;fontSize=11;fontColor=default;" parent="1" vertex="1">
          <mxGeometry x="1130" y="360" width="120" height="60" as="geometry" />
        </mxCell>
        <mxCell id="dWknvMuqGTiPlQEZfjd2-1" value="Common" style="rounded=1;whiteSpace=wrap;html=1;fontFamily=Helvetica;fontSize=11;fontColor=default;" parent="1" vertex="1">
          <mxGeometry x="1190" y="186" width="120" height="60" as="geometry" />
        </mxCell>
        <mxCell id="LPhZucbt2zR15aocdCSv-4" style="edgeStyle=orthogonalEdgeStyle;rounded=0;orthogonalLoop=1;jettySize=auto;html=1;entryX=0.5;entryY=0;entryDx=0;entryDy=0;" parent="1" source="LPhZucbt2zR15aocdCSv-1" target="LPhZucbt2zR15aocdCSv-2" edge="1">
          <mxGeometry relative="1" as="geometry" />
        </mxCell>
        <mxCell id="LPhZucbt2zR15aocdCSv-1" value="EventPublisher" style="rounded=1;whiteSpace=wrap;html=1;fontFamily=Helvetica;fontSize=11;fontColor=default;" parent="1" vertex="1">
          <mxGeometry x="990" y="400" width="120" height="60" as="geometry" />
        </mxCell>
        <mxCell id="LPhZucbt2zR15aocdCSv-5" style="edgeStyle=orthogonalEdgeStyle;rounded=0;orthogonalLoop=1;jettySize=auto;html=1;entryX=0.5;entryY=0;entryDx=0;entryDy=0;" parent="1" source="LPhZucbt2zR15aocdCSv-2" target="JhqW3P9DHBe0ouiO6Wt8-29" edge="1">
          <mxGeometry relative="1" as="geometry" />
        </mxCell>
        <mxCell id="LPhZucbt2zR15aocdCSv-2" value="EventConsumer" style="rounded=1;whiteSpace=wrap;html=1;fontFamily=Helvetica;fontSize=11;fontColor=default;" parent="1" vertex="1">
          <mxGeometry x="990" y="505" width="120" height="60" as="geometry" />
        </mxCell>
        <mxCell id="UfJdWlm_zbCe48178-TH-1" value="Flow put/post/delete" style="text;html=1;strokeColor=none;fillColor=none;align=center;verticalAlign=middle;whiteSpace=wrap;rounded=0;" parent="1" vertex="1">
          <mxGeometry x="1010" y="71" width="140" height="30" as="geometry" />
        </mxCell>
        <mxCell id="UfJdWlm_zbCe48178-TH-4" value="" style="shape=image;verticalLabelPosition=bottom;labelBackgroundColor=default;verticalAlign=top;aspect=fixed;imageAspect=0;image=https://www.cloudamqp.com/img/blog/exchanges-bidings-routing-keys.png;" parent="1" vertex="1">
          <mxGeometry x="1680" y="-115.19" width="287.54" height="315.19" as="geometry" />
        </mxCell>
      </root>
    </mxGraphModel>
  </diagram>
  <diagram id="hDRpypicE73t_Y8_FpmQ" name="Flow API">
    <mxGraphModel dx="1050" dy="621" grid="1" gridSize="10" guides="1" tooltips="1" connect="1" arrows="1" fold="1" page="1" pageScale="1" pageWidth="827" pageHeight="1169" math="0" shadow="0">
      <root>
        <mxCell id="0" />
        <mxCell id="1" parent="0" />
        <mxCell id="V37gjrcoIpeCDSo2ARfd-7" value=":Api" style="shape=umlLifeline;perimeter=lifelinePerimeter;whiteSpace=wrap;html=1;container=1;dropTarget=0;collapsible=0;recursiveResize=0;outlineConnect=0;portConstraint=eastwest;newEdgeStyle={&quot;curved&quot;:0,&quot;rounded&quot;:0};" vertex="1" parent="1">
          <mxGeometry x="180" y="100" width="100" height="300" as="geometry" />
        </mxCell>
        <mxCell id="V37gjrcoIpeCDSo2ARfd-8" value=":Service" style="shape=umlLifeline;perimeter=lifelinePerimeter;whiteSpace=wrap;html=1;container=1;dropTarget=0;collapsible=0;recursiveResize=0;outlineConnect=0;portConstraint=eastwest;newEdgeStyle={&quot;curved&quot;:0,&quot;rounded&quot;:0};" vertex="1" parent="1">
          <mxGeometry x="300" y="100" width="100" height="300" as="geometry" />
        </mxCell>
        <mxCell id="V37gjrcoIpeCDSo2ARfd-9" value=":Repository" style="shape=umlLifeline;perimeter=lifelinePerimeter;whiteSpace=wrap;html=1;container=1;dropTarget=0;collapsible=0;recursiveResize=0;outlineConnect=0;portConstraint=eastwest;newEdgeStyle={&quot;curved&quot;:0,&quot;rounded&quot;:0};" vertex="1" parent="1">
          <mxGeometry x="460" y="100" width="100" height="300" as="geometry" />
        </mxCell>
        <mxCell id="V37gjrcoIpeCDSo2ARfd-10" value=":EventPublish" style="shape=umlLifeline;perimeter=lifelinePerimeter;whiteSpace=wrap;html=1;container=1;dropTarget=0;collapsible=0;recursiveResize=0;outlineConnect=0;portConstraint=eastwest;newEdgeStyle={&quot;curved&quot;:0,&quot;rounded&quot;:0};" vertex="1" parent="1">
          <mxGeometry x="590" y="100" width="100" height="300" as="geometry" />
        </mxCell>
        <mxCell id="V37gjrcoIpeCDSo2ARfd-11" value=":EventStore" style="shape=umlLifeline;perimeter=lifelinePerimeter;whiteSpace=wrap;html=1;container=1;dropTarget=0;collapsible=0;recursiveResize=0;outlineConnect=0;portConstraint=eastwest;newEdgeStyle={&quot;curved&quot;:0,&quot;rounded&quot;:0};" vertex="1" parent="1">
          <mxGeometry x="700" y="100" width="100" height="300" as="geometry" />
        </mxCell>
        <mxCell id="V37gjrcoIpeCDSo2ARfd-12" value="" style="shape=umlLifeline;perimeter=lifelinePerimeter;whiteSpace=wrap;html=1;container=1;dropTarget=0;collapsible=0;recursiveResize=0;outlineConnect=0;portConstraint=eastwest;newEdgeStyle={&quot;curved&quot;:0,&quot;rounded&quot;:0};participant=umlActor;" vertex="1" parent="1">
          <mxGeometry x="80" y="100" width="20" height="300" as="geometry" />
        </mxCell>
        <mxCell id="V37gjrcoIpeCDSo2ARfd-13" value="Create (payload)" style="html=1;verticalAlign=bottom;startArrow=oval;startFill=1;endArrow=block;startSize=8;curved=0;rounded=0;" edge="1" parent="1" target="V37gjrcoIpeCDSo2ARfd-7">
          <mxGeometry width="60" relative="1" as="geometry">
            <mxPoint x="100" y="200" as="sourcePoint" />
            <mxPoint x="150" y="200" as="targetPoint" />
          </mxGeometry>
        </mxCell>
        <mxCell id="V37gjrcoIpeCDSo2ARfd-14" value="Create(Object)" style="html=1;verticalAlign=bottom;startArrow=oval;startFill=1;endArrow=block;startSize=8;curved=0;rounded=0;" edge="1" parent="1">
          <mxGeometry width="60" relative="1" as="geometry">
            <mxPoint x="229.5" y="230" as="sourcePoint" />
            <mxPoint x="349.5" y="230" as="targetPoint" />
          </mxGeometry>
        </mxCell>
        <mxCell id="V37gjrcoIpeCDSo2ARfd-15" value="Create(Object)" style="html=1;verticalAlign=bottom;startArrow=oval;startFill=1;endArrow=block;startSize=8;curved=0;rounded=0;" edge="1" parent="1" source="V37gjrcoIpeCDSo2ARfd-8">
          <mxGeometry width="60" relative="1" as="geometry">
            <mxPoint x="390" y="249.5" as="sourcePoint" />
            <mxPoint x="510" y="249.5" as="targetPoint" />
          </mxGeometry>
        </mxCell>
        <mxCell id="V37gjrcoIpeCDSo2ARfd-16" value="Publish (Event)" style="html=1;verticalAlign=bottom;startArrow=oval;startFill=1;endArrow=block;startSize=8;curved=0;rounded=0;" edge="1" parent="1">
          <mxGeometry width="60" relative="1" as="geometry">
            <mxPoint x="350" y="292.5" as="sourcePoint" />
            <mxPoint x="639.5" y="292.5" as="targetPoint" />
          </mxGeometry>
        </mxCell>
        <mxCell id="V37gjrcoIpeCDSo2ARfd-17" value="Persist(Event)" style="html=1;verticalAlign=bottom;startArrow=oval;startFill=1;endArrow=block;startSize=8;curved=0;rounded=0;" edge="1" parent="1" source="V37gjrcoIpeCDSo2ARfd-10">
          <mxGeometry width="60" relative="1" as="geometry">
            <mxPoint x="460" y="310" as="sourcePoint" />
            <mxPoint x="750" y="310.5" as="targetPoint" />
          </mxGeometry>
        </mxCell>
        <mxCell id="V37gjrcoIpeCDSo2ARfd-18" value="Transational" style="shape=cylinder3;whiteSpace=wrap;html=1;boundedLbl=1;backgroundOutline=1;size=15;" vertex="1" parent="1">
          <mxGeometry x="480" y="410" width="60" height="80" as="geometry" />
        </mxCell>
        <mxCell id="V37gjrcoIpeCDSo2ARfd-20" value="Events" style="shape=cylinder3;whiteSpace=wrap;html=1;boundedLbl=1;backgroundOutline=1;size=15;" vertex="1" parent="1">
          <mxGeometry x="720" y="410" width="60" height="80" as="geometry" />
        </mxCell>
      </root>
    </mxGraphModel>
  </diagram>
</mxfile>
